<svg xmlns="http://www.w3.org/2000/svg" xmlns:xlink="http://www.w3.org/1999/xlink" width="182px" height="75px" viewBox="0 0 182 75"><title>8E6909BE-3CE7-41FB-BC70-DFA1C506D7A1</title><g id="Design" stroke="none" stroke-width="1" fill="none" fill-rule="evenodd"><g id="Technical-LP" transform="translate(-354.000000, -4049.000000)" fill="#18162D"><g id="klantenlogos-copy-2" transform="translate(0.000000, 3792.333339)"><g id="Group-27" transform="translate(354.691665, 257.572865)"><path d="M38.20059,0 C38.2427198,0.166554572 38.4055634,0.169174041 38.516236,0.246884956 C39.0309617,0.607498525 39.05541,0.932530973 38.532826,1.20932153 C38.0578289,1.46100885 37.5223658,1.60311504 37.0074218,1.77469027 C27.7903835,4.84907375 20.6660826,10.5446726 15.9333569,19.0282596 C4.65566962,39.2442301 14.5456932,64.5579056 36.5108142,71.9048614 C37.026413,72.077528 37.5417935,72.2547788 38.0445133,72.4610619 C38.386354,72.6012035 38.7364897,72.819056 38.6998171,73.2375162 C38.6677286,73.6066431 38.3359292,73.7395811 37.9886313,73.8022301 C37.90459,73.817292 37.8384484,73.9314572 37.7640118,74 L34.2713864,74 C34.1646431,73.6529204 33.8618761,73.7688319 33.6326726,73.7439469 C29.6338348,73.3073687 25.7441416,72.4058348 22.0984956,70.6918289 C10.4326903,65.2073156 3.17435988,56.2092212 0.593309735,43.5146195 C0.410383481,42.6150501 0.489622419,41.6528319 0,40.820059 L0,32.9616519 C0.282466077,32.8778289 0.221345133,32.6287611 0.257581121,32.4264071 C0.488749263,31.1398112 0.662070796,29.8396814 0.960035398,28.5688024 C4.40682006,13.8657227 16.7469204,2.5699174 31.6768024,0.400560472 C32.1797404,0.327651917 32.7619174,0.435705015 33.179941,0 L38.20059,0 Z" id="Fill-1"></path><path d="M181.179941,39.7286136 C180.850324,39.866354 180.782873,40.2160531 180.599292,40.4677404 C179.582501,41.8610796 177.872861,42.4364897 176.265162,41.9025546 C174.655499,41.3679646 173.565799,39.8608968 173.581516,38.1914218 C173.597233,36.5453038 174.741941,35.0255752 176.341782,34.5272212 C177.948826,34.0266844 179.663923,34.6328732 180.659976,36.0273038 C180.818454,36.2493038 180.855127,36.5819764 181.179941,36.6725664 L181.179941,39.7286136 Z" id="Fill-3"></path><path d="M47.7444944,54.0783487 C50.0943764,54.0783487 52.2347009,54.0519357 54.3737156,54.0934106 C55.0687481,54.1069445 55.2350844,53.8906201 55.1765829,53.2191628 C54.9277333,50.3659062 54.759869,47.5052277 54.4937746,44.6537174 C54.3911788,43.555505 54.3612732,42.4450684 54.0283823,41.3080006 C51.9620578,45.5070094 49.8959516,49.7060183 47.7444944,54.0783487 M34.1422466,64.9009032 C34.1081935,64.5509858 34.3550785,64.3008265 34.4978395,64.0218531 C39.2919044,54.6509209 44.0988484,45.2865375 48.8824354,35.9103664 C49.1882584,35.3111628 49.5464708,35.0810861 50.2253499,35.0874992 C53.6784649,35.1205965 57.1324531,35.1205965 60.5855681,35.0878531 C61.2779811,35.0813044 61.5030372,35.2692513 61.5656861,35.9830566 C62.1050785,42.1287676 62.6911847,48.270331 63.2631021,54.4134224 C63.5558277,57.5574401 63.8492083,60.7016761 64.139751,63.8461304 C64.2471493,65.0085198 64.2436566,65.0126673 63.1225239,65.0144136 C61.0505239,65.0172513 58.9780873,64.997387 56.9065239,65.0266378 C56.3330785,65.0347145 56.0477746,64.9019947 56.0082643,64.273977 C55.9333912,63.0794991 55.7522112,61.8911333 55.6895622,60.6964372 C55.6572555,60.0764962 55.5219162,59.8049445 54.8188071,59.8138944 C51.7655976,59.8529681 48.7117333,59.842272 45.6580873,59.8200065 C45.1130195,59.8160773 44.7986832,59.9856879 44.5627127,60.4875345 C43.9447363,61.8009799 43.2641109,63.0849563 42.6328189,64.3922897 C42.4426891,64.7863015 42.2381522,65.0296938 41.7452555,65.0246732 C39.2735681,65.0002248 36.8014442,65.0085198 34.3297569,65.0002248 C34.2712555,65.0002248 34.2131906,64.939977 34.1422466,64.9009032" id="Fill-5"></path><path d="M120.862388,47.0409923 C121.15686,46.8124437 121.26404,46.7657298 121.315556,46.6838714 C122.316412,45.0964732 123.825881,44.291423 125.610831,43.9856 C127.121609,43.7269274 128.654435,43.7072814 130.162813,44.0272932 C132.230447,44.4662726 132.963025,45.3496885 133.103385,47.4660012 C133.110371,47.5709982 133.111025,47.6711929 133.233704,47.7207445 C133.411828,47.7098301 133.446317,47.5428389 133.501545,47.4236531 C134.401769,45.4804437 135.999208,44.4232696 138.023403,44.0192165 C139.82276,43.6596944 141.641326,43.6839245 143.402701,44.2933876 C145.115179,44.8860425 145.95712,46.0763729 146.078707,47.8766029 C146.181084,49.3897829 145.839244,50.8407504 145.534076,52.2945558 C144.699556,56.2706914 143.815704,60.2363493 142.997338,64.2157593 C142.865055,64.8588389 142.606819,65.0395823 141.987096,65.0273581 C140.24253,64.9928684 138.496435,64.9967976 136.751651,65.0247386 C136.105078,65.0352165 135.962099,64.8706265 136.109444,64.2048448 C136.940689,60.4504909 137.721946,56.6850041 138.508223,52.9208271 C138.634176,52.3179127 138.740919,51.7053935 138.783922,51.0924378 C138.872547,49.8281074 138.284258,49.1841546 137.027568,49.0968389 C134.768713,48.9396708 133.349615,49.9483847 132.780317,52.2886619 C132.189191,54.7199658 131.710919,57.178774 131.191828,59.627541 C130.868323,61.1533817 130.547657,62.6803139 130.251875,64.2116118 C130.138801,64.7981546 129.901084,65.0552991 129.240978,65.0336885 C127.570194,64.9784614 125.896353,65.0203729 124.22404,65.0131693 C123.238028,65.0090218 123.189568,64.9439717 123.404146,63.9352578 C123.924984,61.4871457 124.466996,59.0436177 124.97299,56.5926678 C125.346919,54.781305 125.815368,52.9882785 126.056359,51.1502844 C126.224005,49.870892 125.695745,49.200308 124.438182,49.0985853 C122.009061,48.9019068 120.629474,49.7746265 120.02525,52.1771162 C119.291362,55.0952047 118.722064,58.0549864 118.087497,60.9981782 C117.850435,62.0972637 117.620577,63.1980956 117.405999,64.3017652 C117.309515,64.7972814 117.108689,65.0415469 116.53699,65.0293227 C114.756188,64.9906855 112.973421,64.9919953 111.192618,65.0271398 C110.528146,65.0404555 110.384512,64.814308 110.519196,64.1972047 C111.337999,60.4402313 112.135627,56.6784555 112.938494,52.9179894 C113.499061,50.2930631 114.07709,47.6718478 114.60273,45.0399363 C114.744618,44.3285322 114.971639,43.9925853 115.78935,44.0342785 C117.348807,44.1135174 118.915031,44.0519599 120.478418,44.0591634 C121.49499,44.0637475 121.506341,44.0868861 121.280412,45.1198301 C121.157952,45.6801782 121.036365,46.2407445 120.862388,47.0409923" id="Fill-7"></path><path d="M67.915672,19.5621729 C67.5282088,19.5916419 67.3092649,19.3126684 67.0687103,19.119046 C63.0056956,15.8444914 58.2740614,14.2156183 53.1750466,13.5869457 C48.8596897,13.0547569 44.5556838,13.0704737 40.2842029,14.1285209 C29.0386041,16.9136714 20.2976543,26.4216891 18.5310407,37.8851404 C18.1758844,40.1902732 18.0025628,42.5039192 18.2603622,44.8391758 C18.3201735,45.380751 18.6340732,46.2733351 18.0318136,46.415223 C17.2328755,46.6033882 17.1470879,45.6165032 16.9375304,45.0533174 C15.1774655,40.3262673 14.619082,35.4575475 15.4505451,30.4731345 C17.1075776,20.5374885 22.4659198,13.2328808 31.3873947,8.63112861 C36.9098903,5.78267434 42.8368755,5.00512861 48.9832413,5.88046785 C55.2950702,6.7793823 60.6911764,9.4254826 64.9388637,14.251636 C66.047554,15.5116006 67.0034419,16.8813646 67.6827575,18.4261965 C67.8381794,18.7796065 68.0547221,19.1332348 67.915672,19.5621729" id="Fill-9"></path><path d="M90.054551,44.0571552 C88.8519965,45.5712083 87.7965687,46.9008071 86.7402678,48.2293145 C85.3833829,49.9358985 84.0518195,51.6636566 82.6532413,53.3353145 C82.1957074,53.8823469 82.115377,54.2783233 82.4338608,54.9528366 C83.8754419,58.0042997 85.2386572,61.0926537 86.6274124,64.1690018 C86.7280437,64.3920932 86.8059729,64.625226 86.9135894,64.9028897 C86.3820555,65.0912732 85.9127339,65.0083233 85.456728,65.0109428 C83.6752708,65.0212024 81.8935953,65.0159634 80.1121381,65.014872 C78.9573888,65.0142171 78.9641558,65.0105062 78.5675245,63.9616271 C77.7332236,61.7558159 76.8934655,59.5524059 76.048905,57.3505239 C75.946964,57.0844295 75.9030879,56.7703115 75.6527103,56.5930608 C75.2202796,56.2872378 74.5630112,56.5823646 74.437495,57.15581 C73.9880378,59.2114383 73.5562619,61.2707776 73.1190289,63.3290254 C73.0965451,63.4355504 73.0908696,63.5455681 73.0686041,63.6520932 C72.7826454,65.014872 72.7822088,65.014872 71.4144094,65.0150903 C69.887259,65.0153086 68.3601086,65.0198926 66.8331764,65.0135622 C65.9309876,65.0098513 65.9218195,64.99981 66.1008165,64.1471729 C67.8237723,55.9462702 69.5495658,47.7458041 71.2753593,39.5455563 C71.5292295,38.3384177 71.8223917,37.1382643 72.0271469,35.9232673 C72.1325805,35.2985239 72.3807752,35.074341 73.0229817,35.0894029 C74.7308755,35.1293499 76.4402973,35.0972614 78.1490643,35.1051198 C79.0687162,35.1092673 79.0667516,35.1190903 78.8812059,35.9983587 C77.8174832,41.0384354 76.7539788,46.0787304 75.693967,51.1194619 C75.639613,51.3790077 75.3538726,51.7398395 75.7286749,51.879108 C76.0702973,52.0059339 76.5249935,52.0871375 76.844787,51.7308897 C77.0628578,51.4881522 77.2558254,51.2218395 77.4492295,50.9581463 C78.9523681,48.9066655 80.4659847,46.8628248 81.9448932,44.7943174 C82.3135835,44.2785003 82.6966808,44.0248484 83.3674832,44.039692 C85.5102088,44.0868425 87.6544625,44.0571552 90.054551,44.0571552" id="Fill-11"></path><path d="M99.03241,56.3258749 C98.5842625,56.3520696 98.0095074,56.3151788 97.4338791,56.4627422 C96.0894366,56.8067658 95.4105575,57.613344 95.3618791,59.0101758 C95.3267345,60.0223823 95.6611534,60.467692 96.6449823,60.7147953 C97.687531,60.9765239 98.7292065,60.8758926 99.7717552,60.7089015 C101.280351,60.4672555 102.075796,59.6111257 102.188652,58.0979457 C102.261342,57.1230667 102.02428,56.7860283 101.102227,56.5125121 C100.465478,56.323692 99.8134484,56.3341699 99.03241,56.3258749 M101.23582,62.6034324 C100.064917,64.353456 98.302233,65.0364826 96.3195133,65.2128602 C94.8010944,65.3479811 93.2728525,65.3407776 91.757708,65.0502348 C89.2161681,64.5630136 88.0511593,62.9537864 88.3281681,60.3692437 C88.4763864,58.9848543 88.7551416,57.6430313 89.3159263,56.3706242 C90.1408407,54.4992319 91.5503333,53.2543292 93.5014012,52.6625475 C95.590646,52.0288543 97.7445044,52.0685829 99.8819912,52.2611139 C101.236693,52.3833558 102.442086,52.8836743 102.792876,54.6507245 C103.134935,54.127049 103.185578,53.7288897 103.260233,53.3294206 C103.459531,52.2600224 103.730209,51.2015386 103.880174,50.1255917 C104.053277,48.8830903 103.56933,48.2666419 102.342109,48.0769487 C101.622847,47.9660578 100.885248,47.9564531 100.168168,48.0898277 C99.2657611,48.2574737 98.522705,48.6933971 98.2048761,49.617633 C98.0300265,50.12581 97.7648053,50.3672378 97.1837198,50.3552319 C95.4391534,50.3189959 93.6932773,50.3513027 91.948056,50.3373322 C91.1986696,50.3314383 91.1141917,50.2190195 91.3073776,49.5060873 C92.0755369,46.6709487 93.7674956,44.7187894 96.748233,44.2143233 C100.209425,43.6284354 103.701177,43.6524472 107.161277,44.2298218 C109.831608,44.6753499 111.065378,46.2834855 110.772434,49.4735622 C110.639277,50.9221286 110.308569,52.3372968 110.00995,53.757049 C109.285885,57.2007776 108.539555,60.6399221 107.849761,64.0904177 C107.709401,64.7933086 107.448982,65.054164 106.71444,65.0321168 C104.970528,64.9797274 103.223997,65.0041758 101.478994,65.0216389 C100.921702,65.0273145 100.764971,64.875167 100.981077,64.3189664 C101.176445,63.8160283 101.264198,63.2711788 101.399537,62.7448838 C101.518723,62.6056153 101.564127,62.4425534 101.554959,62.2620283 C101.662575,62.2054914 101.72326,62.1369487 101.595779,62.0430844 C101.58923,62.0380637 101.512392,62.1286537 101.468298,62.1747127 C101.27533,62.2550431 101.273366,62.4388425 101.23582,62.6034324" id="Fill-13"></path><path d="M156.959283,56.3014702 C156.453288,56.3326855 155.938781,56.3163139 155.442828,56.4042844 C153.959772,56.6668861 153.189867,57.6315056 153.19969,59.1475233 C153.205583,60.0536413 153.520793,60.4705735 154.398097,60.6993404 C155.474262,60.9798419 156.55392,60.8833581 157.632923,60.7063257 C159.180592,60.4526737 160.029737,59.4256236 160.046109,57.8504496 C160.053312,57.1613109 159.745088,56.7419776 159.113359,56.5658183 C158.412433,56.3702313 157.691861,56.2853168 156.959283,56.3014702 M159.064026,62.5892873 C157.916044,64.3727091 156.130439,65.0179717 154.158852,65.2100661 C152.642834,65.3576295 151.113719,65.3392932 149.599229,65.0518065 C147.008575,64.5600012 145.79969,62.8839776 146.152663,60.2804437 C146.299353,59.1988212 146.488173,58.1342254 146.851625,57.0995351 C147.715831,54.6389805 149.394256,53.0996059 151.939288,52.5030218 C153.84015,52.0572755 155.769607,52.0791044 157.684876,52.2602844 C159.013601,52.3858006 160.271165,52.8049156 160.681985,54.437718 C161.190598,52.7977121 161.651188,51.2273404 161.741123,49.5807858 C161.773867,48.982892 161.461713,48.5098596 160.891324,48.3096885 C159.574386,47.8480071 158.254392,47.8453876 156.978055,48.4620543 C156.499129,48.6932224 156.201383,49.1197593 156.044215,49.6200779 C155.882026,50.1361133 155.59825,50.36619 155.021094,50.3546206 C153.276964,50.3199127 151.531961,50.3520012 149.787395,50.3373758 C149.030368,50.3308271 148.952002,50.2260484 149.143005,49.5067858 C149.898722,46.6635705 151.598976,44.7140307 154.576002,44.2178596 C158.070374,43.6356826 161.597489,43.618656 165.088805,44.2564968 C167.890327,44.7681664 168.747766,46.4398242 168.597147,49.1383139 C168.444781,51.8712932 167.622486,54.4844319 167.09379,57.1497416 C166.64215,59.4260602 166.130699,61.6905912 165.653737,63.9618891 C165.434356,65.0066206 165.443088,65.0122962 164.416474,65.0144791 C162.744598,65.0177534 161.072504,65.0251752 159.400628,65.0107681 C158.593613,65.0037829 158.586191,64.9723493 158.809501,64.1969864 C158.949861,63.7095469 159.089129,63.2218891 159.228834,62.7344496 C159.326409,62.5993286 159.458911,62.386715 159.307637,62.3068212 C159.088911,62.1913463 159.1413,62.4829805 159.064026,62.5892873" id="Fill-15"></path><path d="M171.867663,65.0152431 C170.996035,65.0152431 170.123752,64.9966885 169.252996,65.02201 C168.693958,65.0379451 168.483964,64.9237799 168.621704,64.2782991 C169.998454,57.8282932 171.347699,51.3723935 172.687994,44.9147475 C172.817876,44.2886944 173.060831,44.0145233 173.760229,44.0385351 C175.428831,44.0961634 177.100926,44.052069 178.771492,44.0592726 C179.778023,44.0636383 179.810548,44.1046767 179.59597,45.1225587 C179.102637,47.462836 178.599917,49.8011487 178.10069,52.1401162 C177.253728,56.1083935 176.384719,60.0725233 175.578141,64.0490956 C175.42512,64.8035027 175.160991,65.1034319 174.372094,65.0320513 C173.543468,64.9569599 172.703055,65.0152431 171.867663,65.0152431" id="Fill-17"></path><path d="M29.7178324,24.464269 C29.8638678,23.9894903 30.1688177,23.7814608 30.4604519,23.5725581 C39.2422218,17.281685 48.5854313,16.2240743 58.4230655,20.7588118 C61.8023988,22.3163044 64.5425817,24.7742395 66.7372602,27.801036 C67.0766997,28.2690478 67.4279268,28.7394608 67.5599917,29.3805758 C67.0987469,29.5222454 66.8215198,29.1574844 66.5270478,28.9656083 C63.1937735,26.7938501 59.6666584,25.0294195 55.8625345,23.8445463 C49.2959622,21.7993959 42.6433841,21.1923339 35.8740212,22.7042041 C34.2062926,23.0766053 32.5844047,23.6015906 31.0020271,24.2501274 C30.6215493,24.4059858 30.2515493,24.7030773 29.7178324,24.464269" id="Fill-19"></path><path d="M101.554871,62.2620283 C101.56404,62.4425534 101.518854,62.6056153 101.39945,62.7451021 C101.34204,62.701226 101.287467,62.6540755 101.235951,62.6034324 C101.273278,62.4388425 101.275243,62.2550431 101.468211,62.1747127 C101.496806,62.2041817 101.525621,62.2332142 101.554871,62.2620283" id="Fill-21"></path><path d="M101.468189,62.1748 C101.512283,62.128741 101.589339,62.038151 101.595888,62.0429534 C101.723369,62.137036 101.662466,62.2055788 101.55485,62.2621156 C101.525599,62.2333015 101.496785,62.2040507 101.468189,62.1748" id="Fill-23"></path><path d="M159.064091,62.5892873 C159.141147,62.4829805 159.088976,62.1913463 159.307702,62.3068212 C159.458758,62.386715 159.326475,62.5993286 159.2289,62.7344496 C159.173891,62.6859894 159.1191,62.6377475 159.064091,62.5892873" id="Fill-25"></path></g></g></g></g></svg>