<svg xmlns="http://www.w3.org/2000/svg" xmlns:xlink="http://www.w3.org/1999/xlink" width="261px" height="60px" viewBox="0 0 261 60"><title>8754D769-EB8F-477D-ACAB-111C652F8712</title><defs><polygon id="path-1" points="0 0 260.877223 0 260.877223 58.9991692 0 58.9991692"></polygon><polygon id="path-3" points="0 59 260.877306 59 260.877306 0 0 0"></polygon></defs><g id="Design" stroke="none" stroke-width="1" fill="none" fill-rule="evenodd"><g id="Technical-LP" transform="translate(-1283.000000, -4048.000000)"><g id="klantenlogos-copy-2" transform="translate(0.000000, 3792.333339)"><g id="Group-8" transform="translate(1283.000000, 255.680661)"><g id="Group-3" transform="translate(0.000083, 0.000582)"><mask id="mask-2" fill="white"><use xlink:href="#path-1"></use></mask><g id="Clip-2"></g><path d="M71.0402737,14.1563776 L71.0402737,42.1376348 L77.7765793,42.1376348 C77.9103416,39.8038556 78.0258259,37.798251 78.1670656,35.3448334 L91.9204946,35.3448334 L91.9204946,28.0419072 L78.2335314,28.0419072 L78.2335314,21.0671558 L91.9288028,21.0671558 L91.9288028,14.1563776 L71.0402737,14.1563776 Z M65.0982342,21.196764 L65.0982342,14.1995804 L44.2828175,14.1995804 L44.2828175,42.2464725 L50.9227476,42.2464725 C51.0997127,39.9276481 51.2608922,37.8240065 51.4536429,35.3041231 L65.1937787,35.3041231 L65.1937787,28.0635086 L51.4337032,28.0635086 L51.4337032,21.196764 L65.0982342,21.196764 Z M38.4005971,14.2029037 L17.4447715,14.2029037 L17.4447715,49.0052102 L38.3956121,49.0052102 L38.3956121,42.4367308 L24.5939956,42.4367308 L24.5939956,35.262582 L37.9868477,35.262582 L37.9868477,28.0277833 L24.6837243,28.0277833 L24.6837243,20.9101304 L38.4005971,20.9101304 L38.4005971,14.2029037 Z M245.182246,42.2772129 C244.960416,41.4339285 244.87318,40.7584702 244.608979,40.1594474 C243.732461,38.1729518 241.537429,34.0545667 240.384248,33.1722336 C241.130326,33.1049371 243.554665,30.5102797 244.870687,28.3634354 C247.900696,23.4167206 244.289943,15.5305574 238.462557,14.4538119 C232.653449,13.379559 226.58097,13.9802433 220.735306,13.6961022 L220.735306,42.1584054 L227.577126,42.1584054 C227.71338,39.8919227 227.83385,37.8987805 227.966781,35.6904554 C230.233264,35.6015574 234.551046,35.7020869 234.551046,35.7020869 C234.551046,35.7020869 235.46412,36.8112344 235.955136,37.7999127 C237.195553,40.2957023 238.067085,42.2905061 238.067085,42.2905061 C238.067085,42.2905061 242.899977,42.6544062 245.182246,42.2772129 L245.182246,42.2772129 Z M144.087814,27.7494579 C144.052919,28.1956093 144.224899,28.8594362 143.894232,28.9832287 C141.47654,25.55858 138.310277,21.8664066 135.915017,18.3096573 C134.540837,16.2691582 132.913257,14.1979187 132.913257,14.1979187 C132.913257,14.1979187 128.128552,14.2029037 126.033219,14.2643845 L126.033219,42.160067 L132.973076,42.160067 L132.973076,28.2047484 C136.277255,31.5770552 139.092911,34.9609936 141.221477,38.7246177 C142.041499,40.1744022 143.64914,42.1376348 143.64914,42.1376348 C143.64914,42.1376348 150.213465,42.1376348 150.981975,42.1957924 L150.981975,14.1954263 L144.087814,14.1954263 L144.087814,27.7494579 Z M176.537232,42.5073507 C178.905075,42.3785732 181.05275,42.2614273 182.955333,42.1584054 L182.955333,14.2029037 L158.074704,14.2029037 L158.074704,42.1758526 L164.775284,42.1758526 C164.967204,39.9309714 165.135861,37.9544456 165.313656,35.8782212 L175.958149,35.8782212 C176.152561,38.106486 176.325372,40.0846734 176.537232,42.5073507 L176.537232,42.5073507 Z M119.228786,14.3582674 L98.1691075,14.3582674 L98.1691075,48.9188047 L119.264511,48.9188047 L119.264511,42.5247979 L105.465387,42.5247979 L105.465387,35.2426423 L118.995325,35.2426423 L118.995325,27.8391866 L105.575056,27.8391866 L105.575056,21.0089982 L119.228786,21.0089982 L119.228786,14.3582674 Z M189.87525,14.1646858 L189.87525,42.2971527 L196.174543,42.2971527 C196.346523,40.1295378 196.503549,38.143873 196.678852,35.9289013 L207.688076,35.9289013 C207.830977,38.2360943 207.953939,40.217605 208.07607,42.1941307 L214.718492,42.1941307 L214.718492,14.1646858 L189.87525,14.1646858 Z M0,0 L260.877306,0 L260.877306,58.9991692 L0.196074014,58.9991692 C0.196074014,56.8830653 0.201058946,55.2704396 0.195243191,53.6569831 C0.13126989,35.7710451 0.0656349452,17.885938 0,0 L0,0 Z" id="Fill-1" fill="#18162D" mask="url(#mask-2)"></path></g><mask id="mask-4" fill="white"><use xlink:href="#path-3"></use></mask><g id="Clip-5"></g><polygon id="Fill-4" fill="#18162D" mask="url(#mask-4)" points="196.810122 27.6672065 207.543513 27.6672065 207.543513 21.481736 196.810122 21.481736"></polygon><polygon id="Fill-6" fill="#18162D" mask="url(#mask-4)" points="165.441603 27.7170558 175.791985 27.7170558 175.791985 21.4202552 165.441603 21.4202552"></polygon><path d="M228.020785,21.3333512 C230.665291,21.3333512 233.083814,20.9628045 235.287985,21.4820683 C236.476892,21.7620554 238.067085,23.0664461 238.067085,24.6840567 C238.067085,26.3224378 236.409595,27.4772805 235.210719,27.7489594 C233.004886,28.2474526 230.601318,27.8910299 228.020785,27.8910299 L228.020785,21.3333512 Z" id="Fill-7" fill="#18162D" mask="url(#mask-4)"></path></g></g></g></g></svg>