<svg xmlns="http://www.w3.org/2000/svg" xmlns:xlink="http://www.w3.org/1999/xlink" width="83px" height="68px" viewBox="0 0 83 68"><title>CC72A712-04F6-4838-8AB3-50FE58583B27</title><defs><polygon id="path-1" points="0 0 81.8774358 0 81.8774358 48.3588759 0 48.3588759"></polygon><polygon id="path-3" points="0 0 8.09961898 0 8.09961898 12.8089005 0 12.8089005"></polygon></defs><g id="Design" stroke="none" stroke-width="1" fill="none" fill-rule="evenodd"><g id="Technical-LP" transform="translate(-1128.000000, -4049.000000)"><g id="klantenlogos-copy-2" transform="translate(0.000000, 3792.333339)"><g id="Group-27" transform="translate(1128.411983, 257.572865)"><g id="Group-3"><mask id="mask-2" fill="white"><use xlink:href="#path-1"></use></mask><g id="Clip-2"></g><path d="M78.5430629,-4.12891241e-05 C79.0939975,0.247280567 79.6896619,0.391654872 80.1796262,0.777432926 C81.2492898,1.61904291 81.8643601,2.68966991 81.8646354,4.06941482 C81.8668374,18.6475037 81.863259,33.2255925 81.8774358,47.8038189 C81.8774358,48.2818094 81.7164074,48.3551664 81.2959465,48.3508998 C79.3510911,48.3312187 77.4052723,48.3158041 75.461105,48.3583319 C74.8823691,48.3709939 74.8139668,48.1633096 74.8143797,47.665638 C74.8266288,34.3920102 74.8186463,21.1182449 74.8406671,7.84475474 C74.8417682,7.18550505 74.6927144,7.02612903 74.0275466,7.02681718 C51.9905775,7.04649833 29.9536083,7.04663596 7.91663911,7.02626666 C7.24266296,7.02557851 7.1057207,7.19913046 7.10695937,7.84957181 C7.12898024,18.7201725 7.12870498,29.5909108 7.1075099,40.4615116 C7.10627122,41.1020435 7.22532153,41.2929369 7.91017048,41.291423 C18.802792,41.2659613 29.6954136,41.2784857 40.5880352,41.259768 C41.1739279,41.2588045 41.3532603,41.372212 41.3374328,41.9945767 C41.2884364,43.9157597 41.3088057,45.8390071 41.3279363,47.7612911 C41.3320652,48.1734942 41.2794904,48.3544782 40.7895261,48.3539277 C28.5925811,48.3390636 16.3956361,48.3484225 4.19869107,48.3369992 C1.77598288,48.3347971 0.0465190803,46.5023857 0.0461061891,44.0021916 C0.0441793632,31.6439437 0.0476201236,19.2856959 0.0433535808,6.92758565 C0.0425277983,4.61828492 0.0151393457,2.30912182 0,-4.12891241e-05 L78.5430629,-4.12891241e-05 Z" id="Fill-1" fill="#18162D" mask="url(#mask-2)"></path></g><path d="M77.612351,56.9162186 C77.5757413,56.9203475 77.5391316,56.9244764 77.5023843,56.9286054 C77.2166636,58.2429758 76.9303923,59.5573463 76.6452221,60.871992 C76.3504177,62.2304042 76.3509682,62.2305418 77.7336034,62.2305418 C78.7420214,62.2305418 78.7476643,62.2294408 78.5387413,61.2383642 C78.2347157,59.7966856 77.9216065,58.3567962 77.612351,56.9162186 L77.612351,56.9162186 Z M82.3878511,66.8772199 C81.656896,66.8809359 80.9252527,66.8670353 80.1953986,66.8960753 C79.8514602,66.9097007 79.7105267,66.7914762 79.6517585,66.4574471 C79.5490862,65.8737566 79.3821405,65.301214 79.2838724,64.7169729 C79.2282697,64.3866599 79.1096323,64.2578378 78.7575737,64.2696741 C77.9587667,64.2966496 77.1573448,64.302843 76.3593637,64.2670591 C75.9921657,64.2505434 75.8849517,64.411571 75.8246695,64.7151837 C75.70906,65.2968099 75.5609697,65.8725179 75.4592608,66.4564837 C75.4024194,66.7822549 75.2734597,66.9103888 74.9267687,66.8967634 C74.222101,66.8689621 73.5156441,66.888368 72.7560618,66.888368 C73.4297627,64.3223865 74.0861221,61.8125583 74.7483997,59.3043816 C75.1267457,57.8713737 75.537022,56.4463484 75.8850893,55.0061837 C75.9856971,54.590127 76.1761776,54.5175957 76.5455776,54.5312212 C77.2073047,54.5555817 77.8724725,54.5689319 78.5324103,54.5273675 C78.9911325,54.4984651 79.1430765,54.6740815 79.2542818,55.1029379 C80.1923708,58.7230307 81.1563342,62.336242 82.1237384,65.9486275 C82.1833323,66.1711759 82.1388777,66.4511161 82.3878511,66.6025096 L82.3878511,66.8772199 Z" id="Fill-4" fill="#18162D"></path><path d="M24.0467586,62.9763473 C24.2628383,61.9383387 24.4816707,60.900743 24.6941721,59.8620463 C25.0239345,58.2505317 25.3608538,56.6402559 25.6679073,55.0243372 C25.7354838,54.6687002 25.8493041,54.5178572 26.2346693,54.5292806 C27.1488105,54.5562561 28.0648786,54.5541917 28.979295,54.5301063 C29.3489703,54.5203346 29.4374779,54.6499824 29.4363657,55.0016281 C29.4253552,58.7764175 29.4248047,62.5512069 29.4374779,66.3259963 C29.4387054,66.6858999 29.3371341,66.7761854 28.9805337,66.7849938 C27.1700056,66.8290355 27.1687669,66.8404588 27.1706938,65.0094238 C27.1730335,62.6302068 27.1781258,60.2508522 27.1819795,57.8716352 C27.1821171,57.7485936 27.1819795,57.6254144 27.046964,57.4843432 C26.7838147,58.6502105 26.5173622,59.8155272 26.2582041,60.9823578 C25.8718755,62.7215934 25.4783902,64.4594526 25.115734,66.2036429 C25.0273753,66.6282327 24.8809365,66.7983439 24.4102405,66.7888474 C23.049351,66.7613213 23.0428824,66.787884 22.742848,65.4484648 C22.1985198,63.0191503 21.6625869,60.5880467 21.1214241,58.1580441 C21.0786211,57.9654991 21.0230184,57.7758444 20.8505675,57.593897 C20.8505675,58.0061001 20.8505675,58.4181656 20.8505675,58.8303687 C20.8505675,61.3011099 20.8409333,63.7719887 20.8603392,66.2425923 C20.8635047,66.6510794 20.785193,66.8222916 20.3413349,66.7834798 C19.7756739,66.7339329 19.0332955,66.9575823 18.6827508,66.6736508 C18.3104605,66.3722402 18.5729217,65.6017851 18.5707196,65.0380509 C18.5581953,61.7665759 18.5807667,58.4948257 18.5496622,55.223626 C18.544157,54.6362194 18.71881,54.4925332 19.2733229,54.5258398 C20.0711664,54.5735976 20.8752033,54.5654774 21.6740102,54.5273537 C22.1305303,54.5056081 22.2940353,54.6576897 22.3799166,55.1062273 C22.8825429,57.7273985 23.4197144,60.3418259 23.9451874,62.958593 C23.9790444,62.9645111 24.0129015,62.9704292 24.0467586,62.9763473" id="Fill-6" fill="#18162D"></path><path d="M28.8357603,24.2412717 C28.8356227,25.6588649 28.8211715,27.0765958 28.844431,28.4937762 C28.8514502,28.9212563 28.761027,29.0963222 28.2863397,29.0929311 C25.451566,29.0725121 22.6165171,29.0736132 19.7818811,29.0921933 C19.3193052,29.0950835 19.2137427,28.9395611 19.2166329,28.4991438 C19.2357636,25.6412482 19.2390667,22.7830774 19.2146322,19.9253195 C19.2104396,19.4196653 19.3905978,19.3307561 19.8443653,19.333784 C22.633308,19.3520888 25.4226636,19.357594 28.2116064,19.3300679 C28.7412082,19.324838 28.8590198,19.4898568 28.8474589,19.9889047 C28.8145652,21.4056722 28.8358979,22.8236784 28.8357603,24.2412717" id="Fill-8" fill="#18162D" opacity="0.7"></path><path d="M62.7154,24.2017855 C62.7152624,25.6427759 62.704252,27.083904 62.7224192,28.5246192 C62.7275115,28.9289774 62.6168566,29.0927576 62.184009,29.0905774 C59.32515,29.0755538 56.466291,29.0767924 53.607432,29.0894544 C53.2131209,29.0912436 53.0998511,28.9537508 53.1015026,28.5711383 C53.1138894,25.6663107 53.1171925,22.7613456 53.0991294,19.8566557 C53.0962727,19.4063289 53.2804222,19.3346235 53.6684023,19.3362751 C56.504277,19.3482489 59.3402894,19.3501757 62.1763017,19.3350076 C62.5930466,19.3328343 62.7304017,19.456564 62.7239331,19.8789518 C62.7017746,21.319667 62.7155377,22.7607951 62.7154,24.2017855" id="Fill-10" fill="#18162D" opacity="0.7"></path><path d="M66.0780827,58.5222417 C66.0780827,61.0758364 66.0650078,63.6295688 66.0897812,66.1828882 C66.0943231,66.655924 65.9886229,66.7952059 65.4971447,66.7885997 C63.824247,66.7660283 63.8239717,66.7876363 63.8239717,65.1487333 C63.8239717,61.809957 63.8337435,58.4710432 63.8127676,55.1322669 C63.8097958,54.6557904 63.9284332,54.4856792 64.4149567,54.5301339 C65.1621523,54.5983986 66.0903318,54.2442755 66.6149789,54.6643235 C67.1023282,55.0545058 67.1749971,55.9678212 67.4194287,56.6547346 C68.0770268,58.5015971 68.7280187,60.3507994 69.3841029,62.1982124 C69.4332369,62.3368063 69.5021898,62.468381 69.6500048,62.579724 C69.6500048,60.1429775 69.6746407,57.7059557 69.632801,55.2698974 C69.6223411,54.6556528 69.7745604,54.504397 70.38096,54.5220137 C71.9474693,54.5678446 71.9484328,54.5361896 71.9484328,56.0720074 C71.9484328,59.4336303 71.9354955,62.7955284 71.9621958,66.1570137 C71.9661871,66.6732654 71.8469991,66.8296135 71.3281325,66.7865352 C70.6028202,66.7261155 69.688679,67.00523 69.1933471,66.6574379 C68.7032452,66.3133619 68.6231443,65.3747224 68.3806395,64.6906993 C67.6505102,62.6316106 66.9289139,60.5696317 66.2038769,58.5087539 C66.1618996,58.5132957 66.1200599,58.5176999 66.0780827,58.5222417" id="Fill-12" fill="#18162D"></path><path d="M57.6981383,60.6288266 C57.6981383,62.5050044 57.6839624,64.3813199 57.7090111,66.2570848 C57.7146539,66.6827757 57.6057883,66.8195803 57.1788587,66.7842093 C56.7016941,66.744847 56.2165469,66.7462233 55.7389693,66.7836588 C55.3152053,66.8168277 55.1986323,66.6834638 55.2070278,66.2552956 C55.2357925,64.7915961 55.2068901,63.3267956 55.2261584,61.8626833 C55.2309755,61.4927327 55.1561045,61.3350082 54.7465164,61.3575796 C54.1079113,61.392813 53.4644891,61.391712 52.8257463,61.3582678 C52.4121669,61.3366598 52.3382594,61.5009905 52.3433517,61.8731432 C52.3628953,63.3371179 52.332066,64.802056 52.3633081,66.2656179 C52.372667,66.7063105 52.2365505,66.8115977 51.8253108,66.7836588 C51.3014895,66.7481501 50.7729887,66.7610874 50.2475158,66.7803556 C49.9465181,66.7913661 49.8607743,66.6844272 49.8614625,66.3872832 C49.8701332,62.5663876 49.8705461,58.745492 49.8610462,54.9245964 C49.8603614,54.6174053 49.9639971,54.5250553 50.2561865,54.5334508 C50.804919,54.5492783 51.3554406,54.5597382 51.9029344,54.5304229 C52.2759128,54.5104665 52.363721,54.6525011 52.3584911,55.0020823 C52.3401862,56.2373153 52.365235,57.4732364 52.3429388,58.7083318 C52.3359197,59.089568 52.4326739,59.2350434 52.8338665,59.2154999 C53.4728845,59.1843954 54.1161691,59.1799912 54.7546366,59.2167385 C55.1764738,59.2409615 55.231526,59.0624548 55.2257455,58.7025513 C55.2063396,57.4903026 55.237857,56.2769529 55.2075783,55.0651171 C55.1968431,54.6390133 55.3131408,54.4969787 55.7406209,54.5295971 C56.2183361,54.5660692 56.7034833,54.5688218 57.1805103,54.528909 C57.619689,54.4921616 57.712039,54.657731 57.7073595,55.0691083 C57.6861644,56.9221642 57.6981383,58.775633 57.6981383,60.6288266" id="Fill-14" fill="#18162D"></path><path d="M34.9847294,56.7802811 C34.9482573,56.7827584 34.9116476,56.7853734 34.8751756,56.7878507 C34.6279914,57.943671 34.3885144,59.1011427 34.1318337,60.2547609 C33.6943066,62.2213619 33.6892143,62.2104891 35.7233918,62.0992837 C36.0888006,62.0793273 36.1108214,61.9849128 36.0359505,61.6557009 C35.6676515,60.0346898 35.3319709,58.4061091 34.9847294,56.7802811 M39.6682924,66.7470628 C38.9440812,66.7470628 38.2151905,66.7368782 37.486988,66.7521551 C37.2037446,66.7582109 37.0929521,66.6618696 37.043818,66.3773875 C36.938806,65.7700245 36.7681443,65.1739472 36.6629947,64.5665842 C36.6040889,64.2260865 36.4559985,64.1081372 36.1159138,64.12947 C35.6827909,64.1564455 35.2467777,64.1362138 34.8120032,64.1362138 C33.2832046,64.1362138 33.2832046,64.1362138 32.962801,65.6622599 C32.7351603,66.7469252 32.7351603,66.7469252 31.6550368,66.7469252 C30.1163287,66.7467876 30.1164663,66.7469252 30.5118785,65.2541857 C31.4181748,61.832556 32.3317655,58.412853 33.2209956,54.9868191 C33.3363299,54.5425481 33.4944673,54.3432593 33.9918636,54.3845484 C34.650838,54.4393253 35.3183455,54.4134508 35.9811736,54.3917052 C36.3242862,54.3805571 36.4968748,54.4533636 36.5955558,54.8339117 C37.6107177,58.7461939 38.6514789,62.6517322 39.6830189,66.5597478 C39.6938917,66.6011746 39.6768255,66.6500334 39.6682924,66.7470628" id="Fill-16" fill="#18162D"></path><path d="M16.8675845,66.768657 C16.0135878,66.768657 15.2391415,66.7504898 14.4660714,66.776502 C14.0980477,66.7888887 14.0116158,66.5591835 13.902062,66.3001631 C13.408657,65.1333324 12.9089209,63.9692544 12.3586745,62.6806208 C11.8208149,63.951913 11.3137844,65.0894283 10.8626319,66.2484141 C10.7011914,66.6635074 10.4823591,66.7986605 10.0543285,66.7777406 C9.37732446,66.7445717 8.69756784,66.7689323 7.91004661,66.7689323 C8.37551267,65.8152911 8.79143179,64.9589547 9.21120455,64.1045451 C9.61404878,63.2848183 9.96115269,62.4295829 10.443272,61.6589902 C10.9157572,60.9038122 10.8473549,60.267822 10.4586866,59.508515 C9.72057472,58.0665612 9.08307064,56.5734088 8.38349524,55.1112232 C8.18145379,54.6888355 8.18365587,54.5294595 8.73417754,54.5231285 C10.8612556,54.4986303 10.8609803,54.4815641 11.6546949,56.4831232 C11.8981631,57.0969549 12.14287,57.7103736 12.4416657,58.4616981 C12.9236474,57.2477978 13.3801675,56.1639583 13.779158,55.0594742 C13.9320654,54.6359854 14.1543385,54.4980797 14.5829197,54.5268445 C15.0837567,54.5602887 15.5898238,54.5580866 16.0910737,54.5280832 C16.582552,54.4984926 16.6967852,54.6153409 16.4658414,55.0905787 C15.6773567,56.7126908 14.937318,58.3583376 14.141126,59.9764584 C13.9288999,60.4076545 13.9154121,60.7407201 14.1380982,61.1752193 C14.9714503,62.8003593 15.761036,64.447933 16.56466,66.0883499 C16.6625152,66.2880516 16.7461945,66.4947725 16.8675845,66.768657" id="Fill-18" fill="#18162D" opacity="0.7"></path><g id="Group-22" transform="translate(40.407821, 54.191100)"><mask id="mask-4" fill="white"><use xlink:href="#path-3"></use></mask><g id="Clip-21"></g><path d="M2.50603078,6.49341231 C2.54346625,7.56637902 2.50080083,8.64553911 2.73848855,9.70226544 C2.8794221,10.3287591 3.11779798,10.8862999 3.86513113,10.9995697 C4.50084602,11.0960487 5.04682587,10.8075753 5.29125749,10.193606 C5.51325535,9.63634047 5.62019418,9.04384153 5.58578658,8.44803946 C5.55853576,7.97569188 5.74323577,7.84535588 6.17470713,7.89380178 C6.42313003,7.92174076 6.67719577,7.89889411 6.92878417,7.89889411 C8.17667914,7.89889411 8.18438645,7.89985752 8.03244247,9.16220369 C7.95344261,9.81980181 7.84003515,10.4707937 7.52678832,11.0708623 C7.12504514,11.8403539 6.52525179,12.3641753 5.68501811,12.5960825 C4.62278657,12.889373 3.55573796,12.883042 2.50699419,12.5552063 C1.11706463,12.1208447 0.486992592,11.0269582 0.268573123,9.69841178 C-0.081971544,7.56569087 -0.095872216,5.4105362 0.265269993,3.2805679 C0.741195969,0.473320322 4.03675626,-0.901745155 6.45918919,0.64494545 C7.49293124,1.30502092 8.2040676,3.02347428 7.98523524,4.26421248 C7.94339559,4.50107442 7.81787665,4.50162494 7.658363,4.50258835 C7.06379961,4.50616675 6.46896095,4.49281659 5.87494808,4.50919461 C5.5754643,4.51745244 5.47981116,4.40115474 5.48215088,4.11089219 C5.48531638,3.72332494 5.44595408,3.33837267 5.33997866,2.95823747 C5.16546329,2.33188145 4.79152145,1.9836765 4.12511498,1.95628804 C3.44453258,1.92834907 3.06549842,2.2932073 2.85795175,2.89024804 C2.79092574,3.08334351 2.74798505,3.28579785 2.70724645,3.48673826 C2.50603078,4.47987934 2.56163347,5.49008658 2.50603078,6.49341231" id="Fill-20" fill="#18162D" mask="url(#mask-4)"></path></g><path d="M0.420337051,60.5591443 C0.420474681,58.7294856 0.432723788,56.8998268 0.411253443,55.0704434 C0.406298748,54.6488814 0.529753231,54.5217109 0.951315192,54.5259774 C2.87208527,54.5457962 4.79326823,54.5485488 6.71390067,54.5247388 C7.18253224,54.5188207 7.27818537,54.6842524 7.27680907,55.119715 C7.27226727,56.5853413 7.2896087,56.5853413 5.81159567,56.5852037 C5.01127481,56.5852037 4.21040342,56.6007559 3.41063308,56.5783222 C3.03503968,56.5678623 2.8735992,56.668883 2.89231694,57.0746175 C2.92176984,57.7136355 2.91887961,58.3556814 2.89314272,58.9949746 C2.87800337,59.3726325 3.03806755,59.459202 3.37856519,59.4542473 C4.40749018,59.439108 5.43696568,59.4641567 6.46547777,59.4410348 C6.86708332,59.4319512 7.01792626,59.5302193 7.02315621,59.9684346 C7.04159869,61.4998482 7.0601788,61.4995729 5.55023551,61.4998482 C4.84130124,61.4998482 4.13140356,61.523383 3.4238456,61.4913151 C2.98783244,61.4714963 2.87648944,61.6387173 2.89204168,62.0466538 C2.91998065,62.7774713 2.92355904,63.5110415 2.89121589,64.2414461 C2.87194763,64.6784226 3.04591248,64.7901785 3.44848144,64.7835723 C4.56865539,64.7654051 5.68993038,64.7962343 6.80969144,64.7682953 C7.26800072,64.756872 7.44733315,64.8662881 7.44501601,65.3674005 C7.43811192,66.7686157 7.46164672,66.7686157 6.04639316,66.7686157 C4.44575143,66.7686157 2.84304525,66.7230601 1.2450185,66.7891227 C0.511586016,66.8194014 0.388131534,66.5700151 0.404784814,65.9103525 C0.44978996,64.1276257 0.42019942,62.3429721 0.420337051,60.5591443" id="Fill-23" fill="#18162D" opacity="0.7"></path><path d="M59.5139927,60.6278494 C59.5141303,58.7774085 59.5256913,56.9266923 59.5050467,55.0765266 C59.5006425,54.6720308 59.5777156,54.4940747 60.0252897,54.5293081 C60.6581143,54.5792679 61.4921547,54.3315332 61.8775198,54.65001 C62.2849058,54.986654 61.9994604,55.8502848 62.0019377,56.4820084 C62.0147373,59.7260949 61.9993227,62.9701814 62.0184534,66.2141303 C62.0209307,66.6531714 61.9285807,66.8267233 61.4622889,66.784746 C60.9865005,66.7418053 60.5009404,66.7434569 60.0247392,66.7846084 C59.5847347,66.8225944 59.4988534,66.6595024 59.5039457,66.2477122 C59.5266547,64.3746998 59.5138551,62.501137 59.5139927,60.6278494" id="Fill-25" fill="#18162D"></path></g></g></g></g></svg>