<svg xmlns="http://www.w3.org/2000/svg" xmlns:xlink="http://www.w3.org/1999/xlink" width="212px" height="50px" viewBox="0 0 212 50"><title>FDAE2F40-DC1B-4720-93B2-E3964E62B6C1</title><defs><polygon id="path-1" points="0 0 37.750888 0 37.750888 6.54933509 0 6.54933509"></polygon><polygon id="path-3" points="0 0 98.1691497 0 98.1691497 6.55837575 0 6.55837575"></polygon><polygon id="path-5" points="0 0 30.3901155 0 30.3901155 6.54183051 0 6.54183051"></polygon><polygon id="path-7" points="0 0 24.308265 0 24.308265 6.56323666 0 6.56323666"></polygon></defs><g id="Design" stroke="none" stroke-width="1" fill="none" fill-rule="evenodd"><g id="Technical-LP" transform="translate(-1097.000000, -3971.000000)"><g id="klantenlogos-copy-2" transform="translate(0.000000, 3792.333339)"><g id="Group-11" transform="translate(354.691665, 156.874483)"><g id="logoHepsiburada" transform="translate(742.598981, 22.241385)"><g id="Group-3" transform="translate(24.374555, 42.695711)"><mask id="mask-2" fill="white"><use xlink:href="#path-1"></use></mask><g id="Clip-2"></g><path d="M0,0.0350623634 C0.498391333,0.0233065613 0.996782667,0.00143530143 1.495174,0.00143530143 C13.0628833,-0.000478433809 24.630866,-0.000478433809 36.1988487,0.00143530143 C36.6969667,0.00143530143 37.195358,0.0238533427 37.6937494,0.0358825357 C37.7128867,2.11283205 37.7317507,4.18978156 37.750888,6.26700446 C37.7320241,6.36132427 37.7131601,6.45509729 37.6942961,6.5494171 L0.00300729823,6.5494171 C0.00191373523,4.37787439 0.000820172243,2.20633168 0,0.0350623634" id="Fill-1" fill="#18162D" mask="url(#mask-2)"></path></g><g id="Group-6" transform="translate(62.068823, 42.686671)"><mask id="mask-4" fill="white"><use xlink:href="#path-3"></use></mask><g id="Clip-5"></g><path d="M0,6.55851245 C0.0188639616,6.46419264 0.0377279232,6.37041961 0.0565918848,6.2760998 C21.8256036,6.27856032 43.5948886,6.28129423 65.3639003,6.2791071 C65.6690044,6.2791071 66.0028145,6.3737003 66.3740791,6.03168847 L66.3740791,0.041423799 C67.2338931,0.0274808709 68.093707,0.00232892209 68.9537942,0.00205553134 C78.1624148,-0.000951766887 87.3713088,-0.000404985392 96.5802027,0.00205553134 C97.0780473,0.00232892209 97.5761652,0.0299413876 98.0740098,0.0449778787 C98.1330622,2.13614371 97.9701213,4.23031684 98.1691497,6.31956893 C98.148372,6.40787414 98.1092772,6.48743085 98.0521385,6.55851245 L0,6.55851245 Z" id="Fill-4" fill="#18162D" mask="url(#mask-4)"></path></g><g id="Group-9" transform="translate(180.532178, 42.703216)"><mask id="mask-6" fill="white"><use xlink:href="#path-5"></use></mask><g id="Clip-8"></g><path d="M0.0686210777,0.0374545325 C0.158019852,0.0246051673 0.247692018,0 0.337364183,0 C10.354948,0.00437425197 20.3728051,0.0103888484 30.3901155,0.0164034449 L30.3901155,6.5419672 L0.0732687204,6.5419672 C0.0431957382,6.45830964 0.0188639616,6.3735585 0,6.28689364 C0.163761058,4.20529648 0.0341738435,2.12041864 0.0686210777,0.0374545325" id="Fill-7" fill="#18162D" mask="url(#mask-6)"></path></g><g id="Group-12" transform="translate(0.069297, 42.681810)"><mask id="mask-8" fill="white"><use xlink:href="#path-7"></use></mask><g id="Clip-11"></g><path d="M24.3052577,0.0489639363 C24.3060778,2.22023326 24.3071714,4.39177597 24.308265,6.56331868 L0,6.56331868 L0,0.23678338 C0.213791565,-0.0620327073 0.505499493,0.00686176111 0.766587657,0.00686176111 C8.47784709,0.00385446289 16.1891065,0.00494802588 23.900366,0.00768193336 C24.0351476,0.00768193336 24.1702026,0.0344742266 24.3052577,0.0489639363" id="Fill-10" fill="#18162D" mask="url(#mask-8)"></path></g><path d="M205.391517,21.1662855 C204.995374,23.7727929 202.261466,25.481485 199.701162,24.7501648 C198.797606,24.4920839 198.207628,23.9034736 198.08679,22.9446923 C197.950914,21.8650722 198.060271,20.8540732 199.078378,20.1823522 C199.615044,19.8283112 200.221971,19.6350239 200.843662,19.4953212 C202.336649,19.1595974 203.860802,18.962756 205.362811,18.3984775 C205.515363,19.3821375 205.525478,20.2854205 205.391517,21.1662855 M210.59551,11.4792311 C210.080168,9.80635312 208.985512,8.73274765 207.333412,8.09957468 C206.130766,7.63863788 204.903241,7.33790806 203.64537,7.21269509 C201.263864,6.97539192 198.908055,7.15692338 196.744168,8.28356665 C194.480219,9.46242756 193.169584,11.9513769 193.54987,14.1940012 L198.380685,14.1940012 C199.130596,12.2657763 199.50104,11.8420206 200.872915,11.5672629 C202.002565,11.3408954 203.137684,11.4040486 204.228513,11.8103073 C205.065909,12.1222461 205.45303,12.7004676 205.461232,13.5687566 C205.46916,14.4017782 205.081219,14.9477395 204.16536,15.2563977 C203.26153,15.560955 202.319425,15.7044851 201.368299,15.7952508 C199.78482,15.9458891 198.21337,16.1810052 196.709994,16.7184914 C194.526969,17.4992954 193.13623,19.0048582 192.742274,21.3057148 C192.133979,24.8603413 193.667155,27.9122022 197.571448,28.6634799 C200.008727,29.1326185 202.152383,28.5169425 204.11943,27.106793 C204.580367,26.776537 205.022713,26.4203089 205.494859,26.0597065 C205.889908,26.7683353 205.424871,27.5122315 205.860109,28.0642074 L210.395935,28.0642074 L210.526615,28.0899062 L210.648821,28.0371417 L210.648821,12.2668698 L210.648821,11.9951194 C210.648821,11.8901374 210.658937,11.6842742 210.59551,11.4792311" id="Fill-16" fill="#18162D"></path><path d="M128.442848,42.7281216 L128.442848,48.7183863 C128.071857,49.0603982 127.737773,48.9655316 127.432942,48.9655316 C105.663657,48.9679921 83.8946456,48.9649848 62.1253605,48.9627977 C62.1062232,46.8855748 62.0873592,44.8083518 62.0682218,42.7316757 C62.430738,42.7166392 62.7932541,42.6890268 63.1554969,42.6887534 C84.555431,42.687113 105.955365,42.687113 127.355026,42.6887534 C127.717542,42.6887534 128.080058,42.7144521 128.442848,42.7281216" id="Fill-18" fill="#18162D"></path><path d="M107.138792,18.8088371 C107.119928,16.8551868 106.966556,15.5256876 106.393255,14.2593416 C105.659474,12.6378611 104.378912,11.8390133 102.642607,11.8245236 C100.887712,11.8097605 99.3908979,12.4407464 98.6691464,14.1395965 C97.5572662,16.7556725 97.5247327,19.4149443 98.7899851,22.0025878 C99.6232801,23.7066323 101.117634,24.3198477 102.950719,24.2372837 C104.70206,24.1585472 105.790975,23.1459079 106.460783,21.6458128 C106.942497,20.5667396 107.160936,19.4108435 107.138792,18.8088371 M97.8331175,28.0519048 L92.7283654,28.0519048 L92.7283654,0.105355821 L98.0398009,0.105355821 L98.0398009,9.73253762 C98.5357317,9.78748916 98.6519228,9.48812629 98.8159572,9.30030684 C101.721554,5.97368822 107.808326,6.60221355 110.409092,9.97667555 C111.658488,11.5978827 112.366296,13.4170247 112.618089,15.437109 C113.001656,18.5127549 112.705301,21.4735767 111.266719,24.2733713 C109.265225,28.1678225 105.695015,29.3507843 101.472768,28.3244754 C100.228294,28.0215585 99.2913837,27.2448554 98.4988239,26.2754118 C98.3922015,26.144731 98.3380702,25.9418751 98.0285918,25.9872579 C97.7932024,26.5922716 98.0548374,27.278209 97.8331175,28.0519048" id="Fill-20" fill="#18162D"></path><path d="M175.686163,17.9905239 C175.618089,19.4813236 175.902142,20.8701486 176.564021,22.1982809 C177.944371,24.9677291 182.164977,24.7386277 183.58989,22.6802688 C184.366866,21.5582731 184.716533,20.3239139 184.831084,19.009998 C184.986643,17.229404 184.814954,15.4832573 183.87695,13.910167 C182.993078,12.4278423 181.651549,11.6836727 179.909504,11.7840071 C178.14586,11.8859819 176.95415,12.8409357 176.302113,14.4391781 C175.838442,15.5759368 175.609614,16.7728415 175.686163,17.9905239 M184.98719,28.0991468 L184.98719,25.7777859 C184.530627,25.6944017 184.408422,26.0418814 184.250128,26.255673 C181.763913,29.6129113 176.398073,29.4737554 173.542233,26.8836515 C171.715983,25.2274504 170.607383,23.180027 170.29189,20.7867644 C169.935389,18.081563 170.033263,15.3793688 171.015282,12.7646597 C172.410395,9.04982624 175.445853,6.9767042 179.399356,7.10219055 C181.059385,7.15468158 182.485938,7.77199788 183.677101,8.91613816 C183.961975,9.19007569 184.194357,9.51841798 184.451071,9.82160832 C184.535548,9.78415379 184.620026,9.74697265 184.704231,9.70979151 L184.704231,4.91315083 L184.704231,0.105847925 L190.101237,0.105847925 L190.101237,28.0439218 C188.444489,28.1934666 186.790475,28.0906717 184.98719,28.0991468" id="Fill-22" fill="#18162D"></path><path d="M47.596474,18.1632521 C47.5229319,19.0113102 47.6465045,19.9523212 47.8933763,20.8747416 C48.3986024,22.7594974 49.8986975,24.0477146 51.745452,24.2112023 C53.7991633,24.3930071 55.3911176,23.5069477 56.1844975,21.5532974 C57.1987772,19.0553262 57.193036,16.5368506 56.0089807,14.0648514 C55.2555158,12.4920345 53.9153543,11.8178529 52.2654412,11.821393 C50.5750662,11.824961 49.179133,12.476998 48.3991492,14.1050399 C47.7987831,15.3577163 47.5778834,16.6790138 47.596474,18.1632521 M47.8009703,25.9469601 L47.8009703,35.6099561 L42.4892614,35.6099561 L42.4892614,7.69949466 C44.1484699,7.49991941 45.8027573,7.67625644 47.5530049,7.59505939 L47.5530049,10.2256252 C47.928097,10.2442157 48.0440146,10.018395 48.1593855,9.84561203 C50.1863045,6.80113266 55.1341303,6.1824494 58.5441331,8.59020171 C60.4986035,9.9705516 61.6719966,11.845192 62.0891909,14.1657326 C62.6321449,17.1861536 62.6299578,20.1939986 61.5626403,23.1255676 C60.0805891,27.197176 56.4053973,29.3665316 51.8036842,28.538431 C50.5698718,28.3164377 49.5260659,27.6731493 48.6703528,26.7386997 C48.4363304,26.4830794 48.3258805,26.0959581 47.8009703,25.9469601" id="Fill-24" fill="#18162D"></path><path d="M18.6179842,28.0701947 L13.3027213,28.0701947 C12.9486803,27.6521802 13.1015057,27.1800344 13.0998654,26.7478036 C13.0861959,23.2153218 13.0812748,19.6825665 13.1006856,16.1498113 C13.1050598,15.372288 13.0080061,14.6087077 12.844245,13.8628977 C12.5085212,12.3335499 11.3947273,11.5013484 9.7959382,11.484945 C7.53144264,11.4619801 5.8807093,12.8991953 5.56111552,15.2473484 C5.42742744,16.2296414 5.37438964,17.2288846 5.36509435,18.221293 C5.33830206,21.15915 5.35169821,24.0972803 5.34923769,27.0354107 C5.3489643,27.3424285 5.34923769,27.6494463 5.34923769,28.0267256 C3.58504719,28.2077102 1.91517651,28.0691011 0.258701966,28.1101097 C-0.0155089546,27.1472275 -0.1087352,2.23558919 0.162468422,0.0484632066 L2.69434014,0.0484632066 L5.32572609,0.0484632066 C5.34623039,3.05494126 5.36618792,5.99525875 5.38778579,9.17670689 C6.6935,8.20562295 7.81822953,7.50191516 9.18682362,7.26324504 C11.0114335,6.9452916 12.8158124,6.9040096 14.5433685,7.6189264 C16.8111448,8.55775023 18.2319565,10.1887994 18.4227833,12.7203978 C18.8044367,17.7805871 18.483476,22.8454241 18.6179842,28.0701947" id="Fill-26" fill="#18162D"></path><path d="M34.9449344,15.7409281 C35.0548375,13.4963901 33.290647,11.5826548 30.6059498,11.4574419 C28.0265081,11.3371499 25.9747106,13.0920451 25.8929667,15.7409281 L34.9449344,15.7409281 Z M40.3121415,22.1801004 C39.9966486,24.1835078 38.8814878,25.5463607 37.4841876,26.646485 C34.5575397,28.9508956 31.2008481,29.2759572 27.6694598,28.4749224 C25.9544796,28.0861607 24.4437224,27.2629812 23.1194176,26.1221216 C21.4101786,24.6493656 20.6269141,22.6724771 20.3671929,20.5206185 C20.0845069,18.17848 20.0716575,15.815017 20.8532817,13.5346648 C22.1636435,9.71211533 24.9486751,7.65785725 28.8849551,7.13540753 C30.3648192,6.93911297 31.8676481,7.02577784 33.3584479,7.35412013 C37.6028392,8.28884309 40.0349233,11.7652798 40.4750824,15.4864013 C40.6172456,16.6898674 40.7736251,17.9097369 40.6522396,19.3201598 C35.7197238,19.4185804 30.7902152,19.3127782 25.8795706,19.3729242 C25.5586098,21.3730509 26.4971603,23.1323204 28.2706461,23.9620613 C30.7743585,25.1335406 32.9798017,24.5394625 35.0242177,22.0986299 C36.5207587,22.0986299 38.065143,22.0967162 39.6095273,22.1013638 C39.7864111,22.1019106 39.9630216,22.1396386 40.3121415,22.1801004 L40.3121415,22.1801004 Z" id="Fill-28" fill="#18162D"></path><path d="M162.76845,18.2460349 C161.367049,18.9191229 160.02224,19.1129569 158.690281,19.3527206 C157.971536,19.4820344 157.27275,19.6717676 156.629188,20.014873 C155.628851,20.547985 155.130733,21.5969853 155.298048,22.7526079 C155.472472,23.9558006 156.063542,24.5323817 157.287786,24.849515 C158.036603,25.0436224 158.758082,24.8883365 159.43445,24.7043445 C161.173489,24.2311051 162.388437,23.2176456 162.657454,21.2899674 C162.790048,20.338841 162.749587,19.4035713 162.76845,18.2460349 M155.641427,14.1839951 L150.687313,14.1839951 C150.696609,10.6096845 152.797616,8.5351955 155.082343,7.81317053 C158.459539,6.74503288 161.796273,6.91070767 165.054271,8.29488503 C167.014756,9.12735986 168.013999,10.6963494 168.040244,12.7661907 C168.102577,17.7443628 168.073598,22.7239019 168.077425,27.7028942 C168.077425,27.7851848 168.024661,27.8674754 167.966429,28.0369777 L163.01997,28.0369777 C162.711585,27.4308704 163.060158,26.763797 162.791962,26.1459339 C162.235065,26.1801078 161.9871,26.6790459 161.605446,26.9636456 C158.904892,28.9785354 156.001209,29.4766534 152.917908,27.9970627 C151.053657,27.1028015 150.094055,25.5116674 149.976497,23.4451067 C149.930294,22.6309491 149.895027,21.805309 150.072731,21.008375 C150.506602,19.0645668 151.682182,17.6998001 153.509253,16.9072404 C155.067033,16.2314184 156.731436,15.9900144 158.40322,15.808483 C159.397543,15.7004936 160.388857,15.5799283 161.342171,15.2726371 C162.356177,14.9456618 162.819575,14.3729081 162.791689,13.554923 C162.761889,12.6710507 162.205539,12.0042507 161.24293,11.7251187 C160.89545,11.6247843 160.541136,11.5304645 160.183268,11.4875422 C157.715096,11.1933737 156.725421,11.7795235 155.641427,14.1839951" id="Fill-30" fill="#18162D"></path><path d="M68.843118,21.608413 C68.9620429,21.9802244 69.0667516,22.2787671 69.1525963,22.5825042 C69.4240733,23.5431993 70.0695489,24.1268886 71.0171212,24.3778613 C72.4439475,24.7556873 73.8855369,24.8349706 75.3230255,24.4456622 C76.2891884,24.1840272 76.7851192,23.6558363 76.8392506,22.9154942 C76.9010369,22.0704434 76.5029799,21.5531881 75.4501522,21.1707144 C73.6154269,20.5041878 71.6929431,20.1496 69.8155689,19.633985 C68.9833674,19.4057037 68.1713969,19.1293057 67.3755564,18.7987763 C64.1257606,17.4487728 63.5472658,14.6085163 64.397511,11.9902531 C65.3185645,9.15437086 67.4895604,7.65400244 70.306852,7.19853345 C72.5964995,6.82808899 74.9320767,6.8838607 77.182356,7.66083721 C80.0231592,8.6420366 81.7515355,11.0112408 81.6096457,13.8091217 L76.4882168,13.8091217 C75.5996969,11.3163449 73.1372664,10.332685 70.66226,11.4596016 C70.0020214,11.7603315 69.4801184,12.2078721 69.4828523,12.9733662 C69.4858596,13.7459685 70.0022947,14.1937825 70.7002613,14.4365535 C72.417702,15.0330921 74.2045839,15.367449 75.9679543,15.7873772 C77.0771005,16.051746 78.1490656,16.4046935 79.1567839,16.9309707 C82.5779958,18.718126 83.433162,22.9816547 80.9740122,25.9586066 C80.0226124,27.1106752 78.8246142,27.9026882 77.3808376,28.2917232 C74.4681326,29.0760813 71.5341031,29.1118955 68.6350676,28.2881691 C65.933967,27.5202145 64.1725104,25.7746146 63.5696838,22.9819281 C63.4764576,22.5502441 63.3485107,22.1068043 63.6079585,21.608413 L68.843118,21.608413 Z" id="Fill-32" fill="#18162D"></path><path d="M114.876761,7.65854072 L120.256545,7.65854072 C120.564929,8.05933156 120.436982,8.48226705 120.438076,8.87567633 C120.448738,12.5002909 120.443817,16.1251788 120.445184,19.7500667 C120.445184,20.1574189 120.459674,20.5650445 120.461041,20.9723968 C120.465689,22.3707904 121.208218,23.7284489 122.623562,24.0390208 C124.436416,24.4365309 126.218377,23.9012318 127.094321,22.5430266 C127.649577,21.6821191 127.909298,20.7364605 127.911486,19.7156195 C127.918594,16.1814973 127.928436,12.6476485 127.936911,9.11352628 C127.938004,8.66735258 127.937184,8.22145227 127.937184,7.68642658 C129.775464,7.5530119 131.521337,7.60769005 133.339385,7.64705831 L133.339385,28.0655197 C131.66268,28.2940744 129.975312,28.2317413 128.205381,28.0865708 L128.205381,25.5352883 C127.492651,26.1288196 127.02652,26.7185235 126.467162,27.2021517 C124.36014,29.0251212 119.983154,28.9666156 117.811611,27.6300082 C116.181382,26.6266642 115.42491,25.0636893 115.112151,23.2664185 C114.942102,22.2898668 114.820716,21.2990987 114.823405,20.297395 C114.833839,16.3102643 114.827278,12.3231337 114.829465,8.336003 C114.829465,8.15993936 114.85325,7.98387571 114.876761,7.65854072" id="Fill-34" fill="#18162D"></path><path d="M142.294327,28.0637973 C140.447025,28.3254323 138.737513,28.1151948 136.940242,28.209788 L136.940242,7.70548192 L141.912673,7.70548192 C142.148883,8.65196068 141.868111,9.61347594 142.093111,10.6605625 C143.087433,9.71326357 143.642143,8.45320561 144.845609,7.8476451 C146.050169,7.24153782 147.30804,6.95010328 148.750449,7.17373691 L148.750449,12.4627543 C148.176329,12.6765459 147.585531,12.5294617 147.014418,12.5428578 C144.046488,12.6125724 142.434576,14.0823211 142.345177,17.0412292 C142.250584,20.1628047 142.304716,23.2890279 142.2946,26.4133374 C142.29296,26.9081747 142.294327,27.4032853 142.294327,28.0637973" id="Fill-36" fill="#18162D"></path><path d="M180.532178,49.2324308 C173.767398,49.2381089 167.00289,49.2435031 160.23811,49.2491813 C160.038808,47.0795693 160.202022,44.904847 160.14297,42.7329638 C165.46288,42.7187685 170.782791,42.699179 176.102701,42.6923652 C177.601976,42.6903779 179.101525,42.7247305 180.600799,42.7426166 C180.566352,44.9056987 180.695939,47.0707682 180.532178,49.2324308" id="Fill-38" fill="#18162D"></path><polygon id="Fill-40" fill="#18162D" points="84.5258502 28.0419534 89.8463075 28.0419534 89.8463075 7.65629892 84.5258502 7.65629892"></polygon><path d="M87.0245596,5.84929543 C85.3653511,5.82195636 84.1432945,4.55697737 84.1621584,2.88519295 C84.1804756,1.26207208 85.48701,-0.0130223726 87.1183326,0.000100383326 C88.7939445,0.01349653 90.0348651,1.24894932 90.0373329,2.90624403 C90.0397861,4.65731177 88.7903904,5.87772807 87.0245596,5.84929543 Z" id="Fill-42" fill="#18162D"></path></g></g></g></g></g></svg>