<svg xmlns="http://www.w3.org/2000/svg" xmlns:xlink="http://www.w3.org/1999/xlink" width="185px" height="67px" viewBox="0 0 185 67"><title>D000795F-05BD-4D64-B8E6-5F66E9F999BE</title><g id="Design" stroke="none" stroke-width="1" fill="none" fill-rule="evenodd"><g id="Technical-LP" transform="translate(-670.000000, -3957.000000)" fill="#18162D"><g id="klantenlogos-copy-2" transform="translate(0.000000, 3792.333339)"><g id="Group-11" transform="translate(354.691665, 156.874483)"><g id="logoHorecava" transform="translate(315.571849, 8.490566)"><path d="M184.472973,0 L181.351351,0 L169.293865,0 L18.3004324,0 L15.1791081,0 C11.1379459,0 7.32986486,1.58251351 4.45618919,4.45618919 C1.58251351,7.32971622 0,11.1379459 0,15.1791081 L0,19.8723919 L0,50.8208919 L0,62.8783784 L0,66 L3.12162162,66 L15.1791081,66 L160.931486,66 L169.293865,66 C173.335027,66 177.143108,64.4174865 180.016784,61.5438108 C182.890459,58.6701351 184.472973,54.8620541 184.472973,50.8208919 L184.472973,47.2690811 L184.472973,15.1791081 L184.472973,3.12162162 L184.472973,0 Z M181.351351,3.12162162 L181.351351,15.1791081 L181.351351,47.2690811 L181.351351,50.8208919 C181.351351,57.4525541 175.925527,62.8783784 169.293865,62.8783784 L160.931486,62.8783784 L15.1791081,62.8783784 L3.12162162,62.8783784 L3.12162162,50.8208919 L3.12162162,19.8723919 L3.12162162,15.1791081 C3.12162162,8.54744595 8.54744595,3.12162162 15.1791081,3.12162162 L18.3004324,3.12162162 L169.293865,3.12162162 L181.351351,3.12162162 L181.351351,3.12162162 Z" id="Fill-1"></path><path d="M16.8587189,43.602677 C17.4542054,43.602677 17.9811649,43.4069068 18.4275568,43.0245824 C18.8867324,42.6330419 19.1190703,42.0675824 19.1190703,41.3505014 L19.1190703,34.2792851 L25.8354622,34.2792851 L25.8354622,41.3505014 C25.8354622,42.0695149 26.0805838,42.6403257 26.5525432,43.0354338 C26.9550838,43.410623 27.4756514,43.602677 28.0967054,43.602677 C28.6913,43.602677 29.2182595,43.4088392 29.6655432,43.0263662 C30.1248676,42.6330419 30.3570568,42.0712986 30.3570568,41.3542176 L30.3570568,24.6685554 C30.3570568,23.9733257 30.1257595,23.4190149 29.6692595,23.0146905 C29.221827,22.6195824 28.6932324,22.4200959 28.0967054,22.4200959 C27.4756514,22.4200959 26.9550838,22.6103662 26.5562595,22.9816905 C26.0786514,23.4062311 25.8354622,23.9715419 25.8354622,24.6649878 L25.8354622,29.7914338 L19.1190703,29.7914338 L19.1190703,24.6649878 C19.1190703,23.9715419 18.8876243,23.4172311 18.4302324,23.0146905 C17.9829486,22.6195824 17.4542054,22.4200959 16.8587189,22.4200959 C16.2393,22.4200959 15.7014892,22.6213662 15.2660973,23.0201905 C14.823273,23.4209473 14.5983676,23.9752581 14.5983676,24.6685554 L14.5983676,41.3542176 C14.5983676,42.0712986 14.8241649,42.6330419 15.2698135,43.0245824 C15.7052054,43.4069068 16.2412324,43.602677 16.8587189,43.602677" id="Fill-3"></path><path d="M43.4622635,26.693923 C47.4249392,26.693923 49.3496419,28.7668284 49.3496419,33.0278419 C49.3496419,37.2668554 47.4249392,39.3289095 43.4622635,39.3289095 C41.5320608,39.3289095 40.0473581,38.7708824 39.0521554,37.6731122 C38.0495203,36.5698419 37.5417365,35.0073959 37.5417365,33.0278419 C37.5417365,28.7668284 39.4774392,26.693923 43.4622635,26.693923 M51.0895743,25.1680446 C49.2399392,23.2032068 46.6748581,22.2060716 43.4622635,22.2060716 C40.2074527,22.2060716 37.6249797,23.1977068 35.7836689,25.1515446 C33.9503851,27.1019635 33.0191014,29.7511797 33.0191014,33.0278419 C33.0191014,36.2388014 33.9558851,38.8495176 35.8018041,40.7870041 C37.6954392,42.7976257 40.2715203,43.8167608 43.4622635,43.8167608 C46.6932905,43.8167608 49.2820068,42.8196257 51.1573581,40.8528554 C52.9571959,38.9153689 53.8719797,36.2826527 53.8719797,33.0278419 C53.8719797,29.7730311 52.9369797,27.1294635 51.0895743,25.1680446" id="Fill-5"></path><path d="M66.4432851,32.3363135 L60.9924878,32.3363135 L60.9924878,26.9079622 L66.8713932,26.9079622 C67.6251905,26.9079622 68.2709203,27.1458 68.8509473,27.6397595 C69.4199743,28.1210838 69.6943797,28.7028946 69.6943797,29.4236919 C69.6943797,30.5725973 69.4308257,31.3702459 68.9132311,31.7946378 C68.435623,32.1551108 67.6069068,32.3363135 66.4432851,32.3363135 M58.7330284,43.6026919 C59.327623,43.6026919 59.8563662,43.4069216 60.3009743,43.0244486 C60.7620824,42.6329081 60.9924878,42.0675973 60.9924878,41.3505162 L60.9924878,33.7450568 L69.6998797,42.8927459 C70.1443392,43.3629216 70.6785824,43.6026919 71.2768932,43.6026919 C71.8989878,43.6026919 72.4442311,43.3684216 72.901623,42.9110297 C73.3552986,42.4518541 73.5895689,41.915827 73.5895689,41.3175162 C73.5895689,40.7412054 73.3662986,40.2216784 72.9307581,39.7788541 L69.568177,36.2441378 C70.9659203,35.7977459 72.0911905,34.9725973 72.9199068,33.7889081 C73.7814743,32.5613676 74.2170149,31.0885568 74.2170149,29.4144757 C74.2170149,27.4824892 73.5693527,25.8194081 72.2923122,24.4655162 C71.0134878,23.1080568 69.3594743,22.4201108 67.3763527,22.4201108 L56.4735689,22.4201108 L56.4735689,41.3540838 C56.4735689,42.0713135 56.698623,42.6329081 57.1430824,43.0244486 C57.5804068,43.4069216 58.1164338,43.6026919 58.7330284,43.6026919" id="Fill-7"></path><path d="M93.2718243,42.934873 C93.6541486,42.5031973 93.8499189,41.9725216 93.8499189,41.3578595 C93.8499189,40.7668324 93.6559324,40.2435892 93.2755405,39.7991297 C92.8857838,39.3453054 92.3241892,39.1147514 91.6124595,39.1147514 L81.5974054,39.1147514 L81.5974054,33.9829541 L88.3100811,33.9829541 C89.0218108,33.9829541 89.5798378,33.7577514 89.9694459,33.3150757 C90.3499865,32.8832514 90.543973,32.3527243 90.543973,31.7380622 C90.543973,31.1489676 90.3519189,30.6237919 89.9713784,30.1811162 C89.5816216,29.7237243 89.0218108,29.4931703 88.3100811,29.4931703 L81.5974054,29.4931703 L81.5974054,26.9080216 L91.6124595,26.9080216 C92.3222568,26.9080216 92.8820676,26.6849 93.2736081,26.2420757 C93.6559324,25.8084676 93.8499189,25.2777919 93.8499189,24.6649135 C93.8499189,24.0758189 93.6559324,23.5490081 93.2736081,23.1061838 C92.8820676,22.6505757 92.320473,22.4200216 91.605027,22.4200216 L77.0765541,22.4200216 L77.0765541,43.6026027 L91.605027,43.6026027 C92.320473,43.6026027 92.8802838,43.3776973 93.2718243,42.934873" id="Fill-9"></path><path d="M105.560905,43.8167162 C108.63273,43.8167162 111.141027,42.9477162 113.012662,41.2315676 C113.50677,40.7649595 113.755459,40.2106486 113.755459,39.5904865 C113.755459,38.9921757 113.523122,38.4561486 113.069446,38.0005405 C112.612054,37.5432973 112.077811,37.3108108 111.481284,37.3108108 C110.932473,37.3108108 110.427514,37.5248649 109.986622,37.9439054 C108.985919,38.860473 107.502108,39.3288649 105.579189,39.3288649 C103.789905,39.3288649 102.293311,38.7305541 101.129838,37.5486486 C99.968,36.368527 99.3771216,34.8482973 99.3771216,33.0277973 C99.3771216,28.7667838 101.406027,26.6938784 105.579189,26.6938784 C107.652095,26.6938784 109.229108,27.2428378 110.268311,28.3186081 C110.716635,28.7997838 111.245378,29.0413378 111.845473,29.0413378 C112.441851,29.0413378 112.979811,28.8088514 113.444486,28.3516081 C113.91273,27.8922838 114.150716,27.354473 114.150716,26.7524459 C114.150716,26.1761351 113.927446,25.6473919 113.481054,25.1754324 C111.567351,23.2031622 108.901635,22.206027 105.560905,22.206027 C102.264027,22.206027 99.6258108,23.1903784 97.7213243,25.1315811 C95.818473,27.0689189 94.8543378,29.7254189 94.8543378,33.0277973 C94.8543378,36.0630541 95.8807568,38.6501351 97.9043108,40.7101081 C99.9277162,42.7702297 102.505581,43.8167162 105.560905,43.8167162" id="Fill-11"></path><path d="M127.323499,34.4347865 L122.398323,34.4347865 L124.846269,27.506273 L127.323499,34.4347865 Z M128.712174,24.7198541 C128.124715,23.117273 126.838607,22.3029757 124.899336,22.3029757 C122.981918,22.3029757 121.708593,23.1080568 121.117715,24.6923541 L115.394742,40.6973541 C115.297823,40.986327 115.250255,41.2699486 115.250255,41.5390027 C115.250255,42.1683811 115.491809,42.6951919 115.967485,43.1087324 C116.432161,43.5130568 116.96462,43.7161108 117.557282,43.7161108 C118.563634,43.7161108 119.275364,43.2001514 119.619188,42.2230838 L120.852228,38.8585703 L128.891445,38.8585703 L130.113485,42.2287324 C130.464891,43.2147189 131.152688,43.7161108 132.157107,43.7161108 C132.773701,43.7161108 133.322512,43.5130568 133.790904,43.1087324 C134.270296,42.6969757 134.515418,42.1554486 134.515418,41.5060027 C134.515418,41.2589486 134.466066,40.986327 134.367215,40.6918541 L128.712174,24.7198541 Z" id="Fill-13"></path><path d="M152.593249,24.4655311 C152.593249,23.8416527 152.349911,23.3111257 151.874235,22.8975851 C151.411343,22.4932608 150.864316,22.288423 150.251438,22.288423 C149.267086,22.288423 148.568141,22.8061662 148.2261,23.7850176 L142.949668,38.463477 L137.697019,23.7868014 C137.35483,22.8061662 136.641316,22.288423 135.635114,22.288423 C135.046019,22.288423 134.511776,22.4932608 134.0471,22.8975851 C133.571424,23.3091932 133.32987,23.8397203 133.32987,24.4655311 C133.32987,24.7381527 133.379222,25.0198419 133.474505,25.3126797 L139.129546,41.3120311 C139.694857,42.9183284 140.966397,43.7326257 142.909384,43.7326257 C144.85237,43.7326257 146.127627,42.9183284 146.691154,41.3138149 L152.446978,25.3089635 C152.543897,25.0180581 152.593249,24.7326527 152.593249,24.4655311" id="Fill-15"></path><path d="M163.372951,34.4347865 L158.447776,34.4347865 L160.893938,27.506273 L163.372951,34.4347865 Z M164.761627,24.7198541 C164.172384,23.117273 162.888059,22.3029757 160.948789,22.3029757 C159.029586,22.3029757 157.756262,23.1080568 157.165384,24.6923541 L151.444343,40.6973541 C151.347276,40.986327 151.299857,41.2699486 151.299857,41.5390027 C151.299857,42.1683811 151.539478,42.6951919 152.01337,43.1087324 C152.47983,43.5130568 153.012289,43.7161108 153.606735,43.7161108 C154.613086,43.7161108 155.324668,43.2001514 155.666857,42.2230838 L156.90183,38.8585703 L164.939114,38.8585703 L166.162938,42.2287324 C166.514343,43.2147189 167.200505,43.7161108 168.206708,43.7161108 C168.823303,43.7161108 169.372114,43.5130568 169.840357,43.1087324 C170.319749,42.6969757 170.563086,42.1554486 170.563086,41.5060027 C170.563086,41.2589486 170.513735,40.986327 170.416816,40.6918541 L164.761627,24.7198541 Z" id="Fill-17"></path></g></g></g></g></g></svg>