<svg xmlns="http://www.w3.org/2000/svg" xmlns:xlink="http://www.w3.org/1999/xlink" width="84px" height="75px" viewBox="0 0 84 75"><title>D096154A-931F-4087-B423-6CD9A73A697B</title><defs><polygon id="path-1" points="0 0 23.432134 0 23.432134 42.3680044 0 42.3680044"></polygon></defs><g id="Design" stroke="none" stroke-width="1" fill="none" fill-rule="evenodd"><g id="Technical-LP" transform="translate(-918.000000, -3949.000000)"><g id="klantenlogos-copy-2" transform="translate(0.000000, 3792.333339)"><g id="Group-11" transform="translate(354.691665, 156.874483)"><g id="logoKvizLift" transform="translate(563.813383, 0.000000)"><path d="M49.5433713,63.0263545 C49.5433713,66.2049015 49.5145161,69.3834485 49.5622764,72.561498 C49.5752115,73.4475509 49.3821803,73.7963005 48.4095618,73.7764004 C45.3529031,73.713715 42.2937568,73.7142125 39.2366006,73.7709279 C38.3187075,73.787843 38.1624915,73.4520284 38.165974,72.6326409 C38.1953267,66.2750494 38.156024,59.9179555 38.2082618,53.561359 C38.2172168,52.5116276 37.9286651,52.2380009 36.8993313,52.2593935 C33.7879472,52.3245664 33.7869522,52.2817812 33.7864547,49.2047248 C33.7864547,47.1818774 33.8158074,45.1585325 33.7715296,43.1366801 C33.755112,42.3794805 33.994411,42.0988887 34.7585756,42.149634 C35.5814457,42.2038619 36.4142658,42.1133163 37.2361408,42.1745092 C38.0112506,42.2322196 38.2072668,41.9531203 38.1973167,41.1949257 C38.1624915,38.5994523 38.1082637,36.0084564 38.8788959,33.4642258 C40.0743957,29.5190266 43.4733366,26.727537 47.5856968,26.2519241 C50.3463412,25.9325271 53.0099725,26.2394865 55.6785789,26.886738 C56.3278203,27.0444465 56.5322941,27.296183 56.522344,27.9618421 C56.4820463,30.561793 56.4780663,33.1632365 56.522344,35.7626899 C56.5367716,36.6233702 56.2382698,36.7830687 55.5104228,36.4805868 C54.1139318,35.9000007 52.689083,36.0532317 51.3095071,36.4666567 C50.3339036,36.7591885 49.7970978,37.6333014 49.6403844,38.5686071 C49.4717308,39.5750558 49.5483463,40.6242897 49.5398887,41.6546185 C49.5339187,42.3282376 50.0632619,42.1580916 50.4393743,42.1605791 C52.1338696,42.1715242 53.82936,42.1988869 55.5218654,42.1481415 C56.26812,42.1257539 56.5342841,42.3327152 56.5228415,43.1103124 C56.4830413,45.8754344 56.4875188,48.6420488 56.523339,51.4071708 C56.5332891,52.1434753 56.2397623,52.3205864 55.5696257,52.3051638 C53.9592083,52.2678511 52.3428209,52.3554116 50.7373786,52.254916 C49.7179948,52.1907381 49.497601,52.5245626 49.5160086,53.4912111 C49.5781965,56.6682655 49.5393912,59.84731 49.5393912,63.0263545 L49.5433713,63.0263545 Z" id="Fill-1" fill="#18162D"></path><g id="Group-5" transform="translate(59.557770, 32.122562)"><mask id="mask-2" fill="white"><use xlink:href="#path-1"></use></mask><g id="Clip-4"></g><path d="M22.8878656,10.034933 C23.2803955,11.1597874 23.0415941,12.321457 23.0674642,13.464719 C23.1112445,15.3612006 23.0505491,17.2606673 23.0898519,19.1581439 C23.1052745,19.8899709 22.9042832,20.1894677 22.1222084,20.1660851 C20.5540788,20.1193198 18.9829642,20.1869802 17.4143371,20.1536475 C16.6785301,20.1382249 16.3830133,20.3785189 16.3919683,21.1421861 C16.4228135,23.6998492 16.3720682,26.2580099 16.4113709,28.8156731 C16.4422161,30.8434955 17.5591105,31.9932251 19.5789729,32.2374991 C20.418758,32.3389897 21.2873983,32.2802843 22.0227078,31.983275 C23.4580041,31.404679 23.4495466,32.1240684 23.4271589,33.1882274 C23.3769111,35.5802221 23.3898462,37.9742067 23.4236764,40.3671964 C23.4326315,40.9965378 23.2684555,41.3816051 22.6381191,41.5537412 C18.9416714,42.5626774 15.1656233,42.7169033 11.5597212,41.5447861 C8.66723847,40.6035103 6.86080489,38.2324108 5.88918144,35.3085854 C5.24342248,33.3653385 5.0508888,31.3608987 5.04143624,29.3340713 C5.02949617,26.6520323 5.02203362,23.9699934 5.07576395,21.288452 C5.09317656,20.4218016 4.81706237,20.077032 3.94543702,20.15315 C3.33052325,20.2063828 2.70764944,20.1700651 2.08776064,20.1715576 C-0.329109178,20.1780251 0.0290930178,20.3596138 0.0101879019,18.1661228 C-0.00772220788,16.1855632 0.00322285921,14.2050035 0.0042178653,12.2239464 C0.0052128714,10.0662757 0.00670538055,10.0662757 2.13601843,10.0463755 C4.185731,10.0269729 5.49864154,9.20161537 6.09365519,7.51707004 C6.32847663,6.85240597 6.37673443,6.14843915 6.37524192,5.44347733 C6.37076439,3.91664047 6.39713205,2.38930611 6.36728187,0.862966754 C6.35484429,0.218700305 6.59414326,-0.000698539848 7.23492719,0.0047739937 C10.0020391,0.0296491462 12.7701461,0.0435792316 15.5367606,0 C16.4009234,-0.0131361161 16.4427136,0.431134107 16.4367436,1.08037559 C16.4123659,3.72112177 16.4377386,6.36186796 16.3939583,9.00211664 C16.3805257,9.78568395 16.5919645,10.0941358 17.4312522,10.0672707 C19.2466408,10.0095603 21.065512,10.0518481 22.8823931,10.0528431 L22.8878656,10.034933 Z" id="Fill-3" fill="#18162D" mask="url(#mask-2)"></path></g><path d="M0.0184849429,50.6198722 C0.0169924338,43.3583177 0.0314200222,36.0967632 0,28.8352087 C-0.00440019736,27.7984123 0.182660949,27.3839923 1.32045042,27.7601046 C2.21844343,28.0561189 3.16519173,27.7242844 4.09154241,27.668564 C6.27309328,27.5382182 8.46708173,27.6352313 10.6560951,27.6138387 C11.5560782,27.6048836 11.3521019,28.2456676 11.3540919,28.7367031 C11.368022,32.8212031 11.371007,36.9057032 11.3705095,40.9907007 C11.369017,51.4701049 11.3461319,61.9495092 11.3884697,72.4294109 C11.3928972,73.5363552 11.0983754,73.8114744 10.0143162,73.7831167 C7.0427305,73.7045112 4.06716476,73.7244113 1.09408654,73.7771467 C0.204551083,73.7930668 -0.00141517906,73.4980475 0.00256484534,72.6517948 C0.0334100344,65.3076547 0.0199774521,57.9640122 0.0184849429,50.6198722" id="Fill-6" fill="#18162D"></path><path d="M18.8429556,61.5430989 C18.8429556,57.8312287 18.8723083,54.1193584 18.8215629,50.4079857 C18.8096229,49.5338728 19.0439468,49.2632312 19.9240297,49.2761662 C22.9786984,49.320444 26.0353572,49.3139765 29.0900259,49.2696987 C29.924836,49.2577586 30.2367704,49.4552673 30.2323403,50.3597279 C30.1944827,57.7839659 30.1964727,65.2082039 30.2188603,72.6324419 C30.2213478,73.4667545 30.0133916,73.790629 29.111916,73.7747089 C26.0985401,73.7214761 23.0826766,73.7020735 20.0707931,73.7806789 C18.9723064,73.8085391 18.7956928,73.4025766 18.8096229,72.4319482 C18.8613632,68.8026634 18.830518,65.1728812 18.830518,61.5430989 L18.8429556,61.5430989 Z" id="Fill-8" fill="#18162D"></path><path d="M49.7869985,16.9427465 C48.2228489,17.6536784 46.9691412,17.9720804 45.6204105,17.6437283 C45.1617127,17.5322877 45.054252,18.0069056 44.896046,18.3432176 C44.322425,19.5640901 43.7368639,20.7794901 43.1478203,21.9924025 C42.6358897,23.0476065 41.9493355,23.9729621 40.9991046,24.6709589 C39.7732571,25.5724344 38.5981549,25.1336367 38.1474172,23.6769478 C37.5663336,21.8013613 37.9538885,19.9173173 37.7812549,17.7760641 C37.2145989,18.4372457 36.7255534,19.1899678 36.0683519,19.7431912 C33.7484952,21.6973832 31.2684425,21.5471373 29.1092793,19.4307593 C28.3112844,18.6486845 27.5416471,17.8422321 26.9366834,16.9034438 C26.4560955,16.1576867 25.9794876,16.0860463 25.2023878,16.5482266 C23.0402396,17.8337745 22.0835412,20.0421905 21.0502274,22.0958831 C18.9577295,26.2535161 16.9383647,30.4579144 15.3478474,34.8453938 C14.8418868,36.2408898 14.3971191,37.659271 13.8762334,39.048797 C13.6792222,39.5746578 13.7190224,40.5015059 12.8483921,40.3263849 C11.9056238,40.1373337 12.2996462,39.2463058 12.3593466,38.6662172 C12.6245157,36.0667638 13.4085805,33.5802435 14.1637901,31.0947183 C15.2244666,27.6027444 16.4950894,24.1829084 17.7179519,20.7451623 C19.8417925,14.7741307 22.1581667,8.88070962 24.4043929,2.95893083 C24.7113523,2.15048837 25.0551269,1.3554785 25.397409,0.560966127 C25.5302423,0.252016733 25.7182985,-0.0594201757 26.1217734,0.00973274822 C26.6192765,0.0948057697 26.5973864,0.513205834 26.5859438,0.884840612 C26.5784812,1.13010962 26.5784812,1.40025377 26.4784831,1.61418008 C25.0655745,4.63800362 24.084996,7.82849067 22.8516859,10.9209696 C21.3517142,14.6825902 19.6218961,18.3556552 18.5602246,22.2819493 C18.4477889,22.6983593 18.2149575,23.1172569 18.5214194,23.6192375 C18.9945448,23.3898886 19.0711602,22.9162657 19.2830965,22.5441334 C19.9960184,21.2924157 20.7258554,20.0506481 21.4198721,18.7889804 C21.7671293,18.1581465 22.2467222,17.5273126 21.2517161,16.9327965 C20.7562031,16.6377772 20.8407786,16.0810713 21.240771,15.6437661 C21.5785756,15.2736238 21.9427478,14.8825864 22.4472159,14.819901 C24.173054,14.6054772 25.0984097,13.3627146 26.1048583,12.1602497 C27.4302065,10.5757025 28.8645078,9.08667589 30.5913408,7.92152374 C30.9769057,7.66132965 31.4356035,7.21059189 31.8982814,7.71655249 C32.2729012,8.12549999 32.167928,8.70210603 31.8778837,9.10856602 C30.7067616,10.7528136 29.6625026,12.5144719 28.1396458,13.8646952 C27.3058307,14.6039847 27.2167777,15.1795957 27.9595497,16.0109233 C29.0426138,17.2228408 29.7545407,18.7765428 31.4266485,19.4223017 C32.6121982,19.880502 33.6559596,19.8551294 34.6639008,19.0277818 C36.8907245,17.2014481 38.5533796,15.0193998 39.1523733,12.1353746 C39.2444114,11.6930944 39.4095824,11.2657392 39.5528633,10.8353991 C39.6618164,10.5090371 39.8160424,10.1831726 40.239915,10.2886433 C40.6219973,10.3831688 40.7478656,10.7189834 40.6906527,11.0672355 C40.5035916,12.2055225 40.3284705,13.347292 40.0702664,14.4696589 C39.5309731,16.8079232 39.2434164,19.1750427 39.1871985,21.5685299 C39.1707809,22.2774717 38.9449145,23.2684978 39.8160424,23.5207319 C40.6687626,23.7674934 40.9886571,22.7943774 41.4294448,22.233194 C42.7513104,20.5481511 43.2911012,18.4884885 44.0930761,16.5591717 C44.6194343,15.2925289 44.1831242,13.83982 44.7671927,12.5587497 C45.1243999,11.7746849 45.1831053,10.4199841 46.36766,10.813509 C47.4517192,11.1732037 46.7303398,12.3099981 46.5701438,13.1005305 C46.4313404,13.7850947 46.1796039,14.4467737 45.9751301,15.1179054 C45.7283686,15.9278403 46.0830883,16.28455 46.8746157,16.3218627 C47.5681349,16.3537029 48.1750886,16.1432591 48.7044319,15.6969989 C49.8387388,14.739803 50.9461806,13.7771346 51.5068665,12.3254207 C51.8018859,11.5597635 52.2536186,10.8548017 52.6287359,10.1189947 C52.8720149,9.64188929 53.2028544,9.20458411 53.7754805,9.51005098 C54.2809436,9.77969763 54.1247276,10.3025733 53.9132888,10.7164959 C52.2625737,13.9537482 50.9431956,17.3193563 49.9083892,20.8018777 C49.7860035,21.2128152 49.5387445,21.5720124 49.942717,21.9083245 C50.3168393,22.2197614 50.6516588,21.9073295 50.9571257,21.7337009 C52.6162983,20.7879476 53.7237401,19.2780259 54.8580471,17.8158644 C55.6913647,16.7417553 56.4112516,15.5810807 57.2032765,14.4741364 C57.4893407,14.074144 57.8460504,13.5741534 58.4062388,13.9303656 C59.0365752,14.3308555 58.7062332,14.8796014 58.3997713,15.3298417 C56.4510519,18.1924742 54.4510896,21.010829 51.5486568,23.0291988 C50.8954353,23.4834191 50.2233087,23.6665003 49.457154,23.3232232 C48.6905018,22.9804436 48.5447334,22.322247 48.5248333,21.587435 C48.483043,20.0670657 49.1004443,18.7073899 49.7869985,16.9427465" id="Fill-10" fill="#18162D"></path><path d="M24.5270772,34.7882307 C23.2470018,34.7882307 21.9669265,34.7767881 20.6873486,34.7927082 C19.8749262,34.8026583 19.2226997,34.5593793 18.8789251,33.7718319 C18.5441055,33.0041847 18.9406154,32.4549414 19.4236909,31.902713 C20.662971,30.4868193 21.8634458,29.0380904 23.1042184,27.6241868 C24.1400198,26.4431145 24.909657,26.4500796 25.9544134,27.6595095 C27.2658315,29.1778888 28.5419268,30.7256208 29.8379222,32.2574327 C30.2453772,32.7395131 30.4105482,33.2603988 30.1045839,33.8484474 C29.7946395,34.4444561 29.3031064,34.7708181 28.6150597,34.7703206 C27.2523989,34.7698231 25.889738,34.7703206 24.5270772,34.7703206 L24.5270772,34.7882307 Z" id="Fill-12" fill="#18162D"></path><path d="M24.6167272,38.0350848 C25.9351103,38.0350848 27.2539909,38.062945 28.571379,38.0246373 C29.3420112,38.0017521 29.8285692,38.3594568 30.1424936,38.9947682 C30.446468,39.6091845 30.1161259,40.1196226 29.7459837,40.5673754 C28.4166555,42.1733152 27.0783723,43.773285 25.7186965,45.3543497 C24.9276666,46.2737353 23.9048004,46.2508502 23.109293,45.3244995 C21.7844424,43.7822401 20.4610842,42.2369956 19.1616063,40.6733435 C18.7720614,40.2041981 18.4063967,39.6778399 18.704401,39.0052158 C19.0073803,38.3226416 19.5874689,38.0539899 20.2914357,38.0465274 C21.7331995,38.0316023 23.1749634,38.0425474 24.6167272,38.0425474 L24.6167272,38.0350848 Z" id="Fill-14" fill="#18162D"></path><path d="M64.7286071,8.26315909 C62.5614838,8.59797864 60.800323,9.62532244 58.9267265,10.3332693 C58.4237509,10.5233154 57.8332148,10.8695776 57.5451606,10.1676008 C57.2471562,9.44074881 57.9849533,9.2765728 58.437681,9.08702414 C60.3774454,8.27509916 62.2634795,7.3193958 64.3191621,6.80647016 C65.0062138,6.63532911 65.7445083,6.40299519 66.2823091,7.05074416 C66.8539401,7.74078089 66.3584271,8.38604234 66.0012199,8.97409095 C64.0967782,12.1083602 62.1644764,15.2257143 60.2610297,18.3609785 C59.6650211,19.3430495 59.0928925,20.3435281 58.5799669,21.3708719 C58.2307198,22.0683712 58.5739969,22.3778181 59.2998538,22.2385173 C60.3237151,22.0420035 61.2192206,21.5116653 62.1286562,21.0420224 C63.1296323,20.5246192 64.1763787,20.1589545 65.2733729,19.9505007 C65.7062006,19.8684127 66.2514639,19.8430401 66.3927548,20.4315862 C66.5420057,21.0519725 66.0415176,21.1813233 65.5863023,21.2917689 C64.0942907,21.6559412 62.7037697,22.2852825 61.3057861,22.8982063 C60.549084,23.2300408 59.7670092,23.5250601 58.9317016,23.5524228 C57.5252604,23.5991881 56.9168142,22.8728336 57.286459,21.5246004 C57.8595825,19.4326001 58.9914019,17.6002963 60.1301864,15.7829177 C61.3495664,13.8381783 62.6216817,11.9257765 63.8470317,9.98451964 C64.1684187,9.47507652 64.4012501,8.90991305 64.7286071,8.26315909" id="Fill-16" fill="#18162D"></path><path d="M82.4456359,42.1574946 L82.4401634,42.1754047 C82.4406609,42.1754047 82.4456359,42.1574946 82.4456359,42.1574946" id="Fill-18" fill="#18162D"></path></g></g></g></g></g></svg>