<svg xmlns="http://www.w3.org/2000/svg" xmlns:xlink="http://www.w3.org/1999/xlink" width="181px" height="55px" viewBox="0 0 181 55"><title>933D0145-1CAF-4CA1-92C3-40FFB468863D</title><defs><polygon id="path-1" points="0 0 32.3588609 0 32.3588609 32.9256983 0 32.9256983"></polygon></defs><g id="Design" stroke="none" stroke-width="1" fill="none" fill-rule="evenodd"><g id="Technical-LP" transform="translate(-1383.000000, -3965.000000)"><g id="klantenlogos-copy-2" transform="translate(0.000000, 3792.333339)"><g id="logoNN" transform="translate(1383.469156, 173.500000)"><path d="M31.1847707,0.615914052 C39.3356425,2.39395693 45.4753862,6.87882762 49.5968896,14.0967118 C49.6983997,14.2748394 49.8435526,14.5606194 49.9088553,14.7594369 C50.0097188,15.0070698 50.0187707,15.0267899 50.1451734,15.3785191 C50.1451734,15.3785191 50.1222204,15.3452212 50.1222204,15.3455445 C50.1416173,15.9306823 50.0782543,16.5326306 50.1946353,17.0977249 C50.8444291,20.2490635 50.0924786,23.2643009 48.9959111,26.1243637 C47.5796191,29.8191368 44.7366902,32.3200349 41.1589447,33.9923651 C41.9448396,30.0234501 42.6783631,26.0432203 43.5431385,22.0911159 C43.8741778,20.578163 43.6876449,19.3079939 42.8057356,18.0345919 C41.7130475,16.4573062 40.6746704,14.834438 39.7365104,13.1624311 C39.0262631,11.8961413 38.120431,11.4063713 36.6343105,11.4257682 C30.5249552,11.5049719 24.4139834,11.4639153 18.3039816,11.4561565 C17.7198136,11.4551867 17.1356457,11.3766295 16.5514778,11.3342798 C16.552771,11.1820147 16.5540641,11.0297495 16.5556805,10.8778077 C16.5511546,10.2910535 16.5970604,9.69880362 16.5336974,9.11851508 C16.2724867,6.72074344 17.2119399,4.86058731 19.070803,3.41196729 C21.0020808,1.90677318 23.2042677,1.00966973 25.6194965,0.62722887 C26.1183183,0.548348423 26.752918,0.796304583 26.8663895,6.4656102e-05 C27.5116574,6.4656102e-05 30.3846514,0.44134257 31.1847707,0.615914052" id="Fill-1" fill="#18162D" opacity="0.696164"></path><path d="M26.8665188,0 C26.752724,0.796239927 26.1184477,0.548283766 25.6193025,0.627487494 C23.204397,1.00960507 21.0022101,1.90670852 19.0709323,3.41190264 C17.2120693,4.86052266 16.2726161,6.72100207 16.5338267,9.11845042 C16.5971897,9.69873896 16.5512839,10.2909889 16.5554865,10.877743 C14.7845558,10.8816224 13.0129786,10.9175065 11.2436643,10.8722473 C10.5725339,10.8547901 9.75366432,11.2343214 9.35796896,10.1713751 C8.96292016,9.11069169 9.21410913,8.39721158 9.97705116,7.60388117 C11.7683485,5.74049224 13.7736576,4.16740922 15.9845731,2.84422204 C16.4549463,2.5626447 16.960557,2.35833141 16.8661591,1.67685607 C18.6212491,0.936866955 20.4807586,0.616495957 22.345764,0.310672582 C22.6819757,0.255714893 25.6836354,0 26.8665188,0" id="Fill-3" fill="#18162D" opacity="0.907217117"></path><path d="M41.1588477,33.9923974 C44.7365932,32.3200672 47.5798454,29.8191691 48.9961374,26.124396 C50.0923816,23.2643332 50.8443321,20.2490958 50.1948616,17.0977573 C50.0781573,16.5323396 50.1418436,15.9303913 50.1221235,15.3455768 C51.3331323,17.2526086 51.8219324,19.3959585 52.2826072,21.5713131 C53.0251825,25.0776137 53.3374715,28.5667804 52.3854104,32.0792232 C51.7055515,32.0772836 51.687771,32.6569255 51.5410017,33.0794532 C50.8569401,35.0492014 49.9863456,36.9232586 48.8703813,38.6932195 C45.3382183,44.2950244 40.2888998,47.3183438 33.6270581,47.4715788 C29.3377721,47.5701793 25.0446067,47.482247 20.7533811,47.4993809 C20.1931359,47.5016439 19.5543336,47.2801967 19.1082065,47.8566059 C17.3809187,46.4131583 16.587265,44.540071 16.5361867,42.3249529 C17.8567876,42.3104052 18.470374,41.6955257 18.6979635,40.3432432 C19.2006647,37.3606571 19.888929,34.409106 20.5015456,31.4452701 C21.9857264,33.7062941 23.5901677,35.900399 24.9143247,38.2503251 C25.8909552,39.983432 27.0185576,40.7337661 28.9391672,39.9449616 C28.9391672,39.9449616 28.9398138,39.9439918 28.9391672,39.9449616 C29.083027,40.1563871 29.1835673,40.3539115 29.1835673,40.3542348 C29.2792583,40.48581 29.3119096,40.5491729 29.4551229,40.7373222 C30.1469432,41.9564131 31.2150621,42.2674089 32.5673445,42.1969338 C34.3331027,42.1047988 36.1092059,42.1274285 37.8772271,42.1907914 C39.0820936,42.234111 39.5944932,41.7320564 39.7971901,40.5701862 C40.1822172,38.3657363 40.6975264,36.1835928 41.1588477,33.9923974" id="Fill-5" fill="#18162D" opacity="0.840077718"></path><g id="Group-9" transform="translate(0.000000, 21.074302)"><mask id="mask-2" fill="white"><use xlink:href="#path-1"></use></mask><g id="Clip-8"></g><path d="M16.536219,21.2505219 C16.5872973,23.46564 17.380951,25.3387274 19.1082388,26.7818516 C19.1457394,27.3191438 19.5297966,27.606217 19.9025391,27.9230319 C22.9801697,30.535785 26.58992,31.5644637 30.5743524,31.5699594 C31.1824431,31.5709293 32.0252354,31.1425826 32.3588609,32.1302046 C21.1914585,34.8224848 9.64937402,30.5752253 3.42881021,20.9918975 C0.286523527,16.1510949 -0.913170492,10.83507 0.746874992,5.15503121 C1.33944819,3.12838562 2.35745856,1.27049245 4.17979086,0 C3.96480931,1.1020633 4.22763638,2.19539803 4.23474855,3.28291371 C4.25867131,6.92596192 6.18025074,9.59884528 8.41961492,12.1647228 C8.96563572,12.7909172 9.28083423,12.71236 9.43794856,11.8986629 C9.75961268,10.2331217 9.94129634,8.52070474 10.4611314,6.9178799 C10.9890485,5.29016247 10.6625352,3.38151427 12.0280721,2.02632232 L15.0216498,2.04086994 C13.8943706,7.81886272 12.8281914,13.6097867 11.6000487,19.366443 C11.2602809,20.957953 11.7959567,21.2492288 13.1718386,21.1861891 C14.2897426,21.1347874 15.4144356,21.2236896 16.536219,21.2505219" id="Fill-7" fill="#18162D" mask="url(#mask-2)"></path></g><path d="M32.3589579,53.2045709 C32.0253324,52.2169489 31.1825401,52.6452956 30.5741261,52.6443258 C26.590017,52.63883 22.9802666,51.6101514 19.9026361,48.9970749 C19.5298936,48.6805833 19.1458364,48.3935102 19.1083358,47.8562179 C19.5541397,47.280132 20.192942,47.5015792 20.7531871,47.4993162 C25.0447361,47.4821824 29.3379014,47.5701147 33.6271874,47.4715141 C40.2887058,47.3186024 45.3383476,44.295283 48.8705106,38.6931548 C49.9864749,36.9231939 50.8570694,35.04946 51.5408077,33.0793885 C51.6875771,32.6568609 51.7053575,32.0772189 52.3852164,32.0794753 C51.0681716,39.1632047 47.5285731,44.7637165 41.5239607,48.9185177 C38.6748895,50.8898824 35.7385325,52.4607024 32.3589579,53.2045709" id="Fill-10" fill="#18162D" opacity="0.88533674"></path><path d="M26.0121854,18.2298533 C29.3057673,17.7530146 32.6223022,17.9075426 35.9323715,17.8403003 C37.0402538,17.8179939 37.2752788,18.0979549 37.0438099,19.203251 C35.9291387,24.5250949 34.9053092,29.8656892 33.7563703,35.6685746 C31.3443743,31.9204602 29.1234371,28.468794 26.9024999,25.0174512 C26.8585338,24.9376009 26.8391369,24.880057 26.7579935,24.7420162 C26.7579935,24.7420162 26.7967872,24.7753141 26.7971105,24.7749908 C27.0518555,23.1463035 26.4680109,21.6795798 25.9009769,20.2125328 C25.6368567,19.5287945 25.2340491,18.8502287 26.0121854,18.2298533" id="Fill-12" fill="#18162D" opacity="0.702763875"></path><path d="M154.71569,36.9284957 C154.704375,36.7442258 154.719892,36.3132929 154.645538,35.898524 C154.431526,34.7078818 153.863522,33.7823297 152.540981,33.6436424 C151.201954,33.5033386 150.463581,34.2921431 150.087606,35.4604789 C149.927582,35.9567145 149.828658,36.492067 149.81605,37.0122254 C149.763678,39.1310059 150.832444,40.6788731 152.300137,40.6821108 C153.790461,40.6850154 154.672693,39.3996521 154.71569,36.9284957 M154.718276,32.347934 C154.718276,31.029596 154.77291,29.7587803 154.703082,28.4944302 C154.630667,27.1903166 155.593073,27.4062679 156.329506,27.3012018 C157.358831,27.1544324 157.100853,27.9471163 157.102793,28.4682445 C157.11831,32.6805897 157.118634,36.8929349 157.1015,41.1056034 C157.09956,41.5827654 157.357215,42.301418 156.541901,42.3621948 C156.019803,42.4013117 155.244576,42.724269 155.016664,41.9357878 C154.75416,41.0286626 154.457065,41.6671416 154.168052,41.8413898 C151.395275,43.5140433 148.679719,42.5199557 147.704058,39.4513769 C147.240797,37.9946749 147.210409,36.5001491 147.59382,35.0301925 C148.456655,31.7198 151.006692,30.74026 154.718276,32.347934" id="Fill-14" fill="#18162D"></path><path d="M12.0281691,23.1004947 C10.6626322,24.4556866 10.9891455,26.3643348 10.4609051,27.9923755 C9.94107004,29.5952004 9.75970967,31.307294 9.43804555,32.9731585 C9.28093121,33.7865323 8.9657327,33.8650895 8.41938862,33.2392184 C6.18034772,30.6733409 4.25876829,28.0001343 4.23484553,24.3570861 C4.22773336,23.2698937 3.9649063,22.1762357 4.17988785,21.0741724 C4.17988785,21.0741724 4.19605187,21.0861337 4.19669843,21.0861337 C4.51868583,21.1585486 4.78442242,21.1142591 4.89854045,20.7534781 C5.67926291,19.3801824 7.17605173,19.184921 8.45818228,18.6890087 C9.48104186,18.29299 10.5734067,18.0379217 11.6968066,18.0375984 C11.5862446,18.2027947 11.5112435,18.4614192 11.359625,18.5183165 C9.77134777,19.1141225 9.69925621,19.2958062 10.8727645,20.4793362 C11.6108139,21.2232047 12.1445501,22.0068367 12.0281691,23.1004947" id="Fill-16" fill="#18162D" opacity="0.944655645"></path><path d="M94.8589106,36.9681623 C94.8411302,36.8091082 94.8252895,36.3794684 94.7412365,35.9630831 C94.4745301,34.6389261 93.8227966,33.633847 92.3195421,33.6383577 C90.8609004,33.6428988 90.3168193,34.6858018 90.0446171,35.9171773 C89.9531287,36.3322695 89.8871795,36.7641723 89.8933218,37.1870232 C89.9227403,39.2068799 90.9000174,40.6251115 92.2691104,40.683302 C93.7461791,40.7463417 94.759017,39.3927662 94.8589106,36.9681623 M94.8566477,32.4234847 C94.8566477,31.0999742 94.9432869,29.9238797 94.8327249,28.7662121 C94.7176371,27.5587594 95.3402753,27.3473339 96.3285439,27.2820312 C97.6019459,27.197655 97.1988151,28.1118923 97.2030177,28.6950904 C97.2311431,32.8013996 97.2272638,36.9080321 97.2052807,41.0143413 C97.2026944,41.4892404 97.5039919,42.2205009 96.742343,42.3410846 C96.207637,42.4261073 95.4485743,42.7636122 95.1608547,41.7995897 C94.9623604,41.1339551 94.6099846,41.6234018 94.3232348,41.7824558 C90.977928,43.6351765 88.0098895,42.1438834 87.4767999,38.3404881 C87.4325105,38.0236732 87.3946867,37.7049186 87.3759364,37.3858407 C87.0959755,32.668208 90.4399892,30.3467306 94.8566477,32.4234847" id="Fill-18" fill="#18162D"></path><path d="M83.0287185,17.370703 C83.0287185,17.1573379 83.0380937,16.9433262 83.0271021,16.7302843 C82.9369069,14.9687287 82.1219167,13.885739 80.862739,13.8472686 C79.5625048,13.8075051 78.5655076,15.003643 78.4639976,16.729961 C78.4513896,16.9426796 78.4568854,17.1570146 78.4591484,17.370703 C78.4804849,19.5379756 79.4422444,20.9377803 80.8905412,20.9115946 C82.2761215,20.886702 83.0364773,19.6372228 83.0287185,17.370703 M85.4904997,17.4463507 C85.4901764,18.884949 85.4992283,20.3238706 85.4840341,21.7624689 C85.4798315,22.1594574 85.6278939,22.7371597 85.003316,22.7607592 C84.4634375,22.7808026 83.6707537,23.1231566 83.4202113,22.4559056 C83.1619101,21.7669948 83.0865858,21.8048187 82.5308665,22.1943717 C80.3519558,23.720579 77.9406064,23.2182011 76.6888642,20.9306681 C75.5202051,18.7954003 75.4494067,16.5301737 76.5033012,14.3296031 C77.6810121,11.8710548 80.2239367,11.1918424 82.5454142,12.6301174 C82.940463,12.8748408 83.2275361,13.3274335 83.5288335,12.487874 C83.7635352,11.8335542 84.4724894,12.1325887 84.9570869,12.1662099 C85.6767093,12.2163184 85.4765987,12.850918 85.4830643,13.289933 C85.5037542,14.67519 85.490823,16.0607703 85.4904997,17.4463507" id="Fill-20" fill="#18162D"></path><path d="M126.246314,36.9671601 C126.228856,37.6641529 126.295129,38.3462748 126.57412,38.9963919 C127.003437,39.9972684 127.655493,40.7592406 128.843549,40.6625797 C129.965009,40.5717379 130.478702,39.7518985 130.709201,38.7536083 C130.975261,37.5994968 131.017934,36.428898 130.690774,35.2809289 C130.422775,34.339536 129.846042,33.6975009 128.785036,33.6244395 C127.739223,33.5523479 127.067769,34.0818814 126.61744,34.9531224 C126.291896,35.5828729 126.210753,36.2672578 126.246314,36.9671601 M133.309993,37.1627448 C133.310316,38.4946606 133.32939,39.8272229 133.299001,41.1588154 C133.289303,41.5887784 133.556009,42.2453612 132.872271,42.3481644 C132.339828,42.428338 131.527747,42.7170275 131.267183,42.0843675 C130.871165,41.1222847 130.587324,41.7132414 130.170939,41.9805944 C128.133949,43.2876176 125.683159,42.7167042 124.539069,40.5820829 C123.360065,38.3828055 123.284094,36.076199 124.402968,33.8303692 C125.589731,31.4474685 128.071879,30.7963815 130.349067,32.1696771 C130.733447,32.4017926 131.093582,33.0874705 131.460828,32.0555591 C131.670314,31.4678351 132.413536,31.7057696 132.905569,31.7904691 C133.514953,31.895212 133.294152,32.4628926 133.300618,32.8466266 C133.323894,34.2852249 133.309993,35.7238232 133.309993,37.1627448" id="Fill-22" fill="#18162D"></path><path d="M130.773793,17.3630736 C130.773793,17.1493852 130.787047,16.9347269 130.771853,16.7220083 C130.646097,14.9646554 129.805244,13.8768164 128.556412,13.8477212 C127.254561,13.8173328 126.289245,14.9866385 126.163166,16.7523967 C126.147972,16.9654385 126.146679,17.1800968 126.151204,17.3937852 C126.19808,19.5791616 127.159516,20.9424355 128.630443,20.913017 C130.027015,20.8852149 130.79125,19.6325029 130.773793,17.3630736 M133.309928,17.4771916 C133.309928,18.8630952 133.328679,20.2493221 133.298937,21.6345791 C133.289885,22.0580766 133.553359,22.7253276 132.804641,22.7631514 C132.270258,22.7899837 131.488889,23.1213463 131.228002,22.4243535 C130.903751,21.5579617 130.659351,22.0377099 130.262363,22.3011836 C128.09606,23.7397819 125.645917,23.1278119 124.462387,20.7953429 C123.447609,18.7961761 123.340604,16.7048744 124.215401,14.6164823 C125.330718,11.9536206 127.938622,11.1101817 130.38424,12.640915 C130.865281,12.9418892 131.060866,13.1934014 131.364426,12.4495329 C131.607533,11.8543735 132.329419,12.1155841 132.819189,12.1669858 C133.542044,12.2429567 133.291501,12.889841 133.299907,13.3198041 C133.327062,14.7050611 133.309928,16.091288 133.309928,17.4771916" id="Fill-24" fill="#18162D"></path><path d="M104.441495,36.2104897 C104.654213,36.2104897 104.874044,36.245404 105.078034,36.2037008 C105.613064,36.0947553 106.461352,36.5518739 106.630751,35.8855928 C106.825689,35.1174783 106.367924,34.3383722 105.65315,33.8628265 C105.158531,33.533727 104.59473,33.4008587 103.9847,33.5324339 C102.818303,33.7836228 102.14297,34.6590665 102.199221,35.6725509 C102.259028,36.7464888 103.363678,35.9955082 103.965626,36.2030543 C104.107869,36.2521929 104.282118,36.2104897 104.441495,36.2104897 M105.749165,37.8537246 C104.996891,37.8537246 104.243324,37.8285087 103.492343,37.8637463 C103.088889,37.8828198 102.53511,37.6238721 102.310106,38.0522188 C102.038228,38.5701142 102.387047,39.0986779 102.700306,39.5234685 C103.82112,41.0432102 105.335042,40.630381 106.812758,40.2805915 C107.263411,40.1739089 107.761909,39.7584934 108.116871,40.2902899 C108.552007,40.9423467 108.800933,41.5837353 107.747362,42.0786778 C105.112302,43.3174887 101.839733,42.6925875 100.472257,40.5941736 C98.9424932,38.2461872 99.4118965,34.2019478 101.418175,32.4455647 C102.849015,31.1928527 105.359288,30.9807807 106.995411,31.974545 C108.478945,32.8755278 109.738123,35.8047726 109.320121,37.3122297 C109.191132,37.7764606 108.906969,37.8643929 108.49026,37.8582505 C107.576993,37.8440262 106.663079,37.8537246 105.749165,37.8537246" id="Fill-26" fill="#18162D"></path><path d="M78.4733404,36.2103927 C79.7823032,36.2103927 80.9593676,36.1583446 82.1296431,36.2262335 C83.1440974,36.2850705 83.1987318,35.7839857 82.9494825,35.0578977 C82.5990464,34.0369778 81.8487123,33.4431114 80.7721882,33.4970993 C79.2556792,33.5730702 78.7484521,34.6586462 78.4733404,36.2103927 M81.8836266,37.8536276 C81.1869571,37.8536276 80.4893177,37.8335842 79.793618,37.8610631 C79.3836983,37.8775504 78.808259,37.6422022 78.5990965,38.0110652 C78.3149329,38.5124733 78.7128912,39.0481491 79.0035204,39.4735863 C80.0221774,40.963263 81.4924572,40.6952634 82.9207105,40.3325427 C83.7085452,40.132432 84.4595258,39.653007 84.7669656,40.9215598 C85.0598577,42.1306289 84.0088728,42.0747014 83.4224419,42.2790147 C80.7447093,43.211679 78.1865905,42.5638248 76.8737483,40.7230655 C75.4412923,38.7142004 75.5773934,35.0100521 77.1559722,33.0474161 C78.4865949,31.3928664 81.0495629,30.8377937 82.9902158,31.7840358 C84.7136243,32.6242419 86.0222639,35.3365655 85.6760304,37.2209676 C85.5680547,37.8090149 85.2428345,37.8613863 84.7779571,37.8565371 C83.813288,37.8465154 82.8482957,37.8536276 81.8836266,37.8536276" id="Fill-28" fill="#18162D"></path><path d="M161.795339,36.2107807 C163.138893,36.2107807 164.36057,36.1710172 165.578044,36.2233886 C166.52267,36.2641219 166.48323,35.8095895 166.283119,35.1429851 C165.947877,34.0266974 165.183642,33.4215163 164.051837,33.5020132 C162.576061,33.606756 162.044912,34.6735818 161.795339,36.2107807 M165.426426,37.853369 C164.567146,37.8540156 163.703987,37.9073568 162.84988,37.8407611 C161.731006,37.7534753 161.883271,38.3686781 162.143512,39.0181487 C162.744814,40.5194635 164.217357,40.9471636 166.601874,40.2492009 C167.291754,40.0471506 167.821611,39.857385 168.126141,40.7363847 C168.334334,41.3370399 168.238966,41.6962046 167.626027,42.0223946 C165.088921,43.3740305 161.595552,42.7216504 160.210295,40.5860592 C158.62622,38.1439982 159.252738,33.8278799 161.42389,32.2234387 C162.897079,31.1346299 165.381813,31.0615685 166.893796,32.062445 C168.335304,33.0167691 169.473898,35.769826 169.129281,37.2908609 C168.988331,37.9125293 168.583583,37.8465801 168.164935,37.8504595 C167.252314,37.8585415 166.33937,37.8527224 165.426426,37.853369" id="Fill-30" fill="#18162D"></path><path d="M145.295133,16.5214451 C145.72251,16.5214451 146.154736,16.4800652 146.576294,16.5292038 C147.82448,16.6750033 147.744307,16.0138947 147.431048,15.191469 C147.234817,14.6758366 146.918325,14.2348819 146.414654,14.0082623 C145.585116,13.6351966 144.735858,13.6157997 144.006537,14.2300327 C143.41558,14.7278847 142.850163,15.5076374 143.11493,16.1580778 C143.443706,16.9653092 144.448138,16.3581884 145.13511,16.5198287 C145.185865,16.5314668 145.241792,16.5211218 145.295133,16.5214451 M146.470258,18.2461467 C145.719277,18.2461467 144.966357,18.2128488 144.218609,18.2597244 C143.834229,18.2836472 143.300169,18.0027164 143.09036,18.5377457 C142.922901,18.9654458 143.211267,19.3682534 143.426895,19.729681 C144.137789,20.9209697 145.510438,21.2381079 147.466932,20.6788326 C148.144205,20.4855108 148.795292,19.9563006 149.220729,21.1443566 C149.650045,22.3430807 148.740657,22.4129093 148.132567,22.6492274 C145.423476,23.7027986 142.66557,23.0016032 141.350141,20.9940311 C139.940961,18.8429225 140.213487,15.0126949 141.906184,13.1819573 C143.276893,11.6993928 145.858935,11.302081 147.700664,12.2906729 C149.31351,13.1560948 150.555877,15.9569973 150.161152,17.6868714 C150.020525,18.3036906 149.628062,18.2438837 149.205535,18.2451768 C148.293884,18.2484096 147.381909,18.2461467 146.470258,18.2461467" id="Fill-32" fill="#18162D"></path><path d="M136.083934,36.9820633 C136.084257,35.5916338 136.069063,34.200881 136.094279,32.8107747 C136.101068,32.4267175 135.893198,31.8208898 136.51713,31.7769236 C137.048603,31.7397464 137.900124,31.3954526 138.086333,32.0882428 C138.379226,33.1783447 138.716084,32.5062445 139.105637,32.2608746 C142.028739,30.4181756 144.774038,31.6973966 145.06693,35.1510024 C145.24732,37.2759253 145.104754,39.4260641 145.173612,41.5629483 C145.207233,42.6100539 144.533194,42.4471206 143.894715,42.4762158 C143.172183,42.5091904 142.666895,42.4458274 142.705366,41.479542 C142.775194,39.7173398 142.723792,37.9506118 142.723792,36.1858234 C142.723792,34.9515384 142.41021,33.9141312 140.956095,33.7680084 C139.790992,33.6506575 138.643022,34.6887113 138.537633,36.0875461 C138.417696,37.6839053 138.460369,39.2938423 138.471361,40.897637 C138.477503,41.7782532 138.615867,42.5124232 137.234489,42.5212185 C135.732528,42.5302037 136.102038,41.6156431 136.08943,40.8326576 C136.068416,39.5495572 136.083611,38.265487 136.083934,36.9820633" id="Fill-34" fill="#18162D"></path><path d="M107.885596,17.2619838 C107.847772,16.9671519 107.843893,16.5316931 107.730098,16.1269459 C107.386128,14.9013894 106.665859,13.9839193 105.301292,13.9499748 C103.912155,13.9150605 103.18833,14.8247719 102.851795,16.0622898 C102.566662,17.1123049 102.600283,18.166846 102.954275,19.2045764 C103.313763,20.2587942 104.024657,20.9787399 105.149673,21.0197966 C106.345165,21.0634394 107.116835,20.3531921 107.569105,19.2672929 C107.822233,18.6598488 107.848419,18.0288052 107.885596,17.2619838 M110.443069,17.595286 C110.409124,20.8733505 108.305214,23.1046327 105.266701,23.0845893 C102.289934,23.0651924 100.132683,20.709124 100.146197,17.4924828 C100.160808,14.1151712 102.284115,11.8202027 105.371767,11.8450953 C108.464915,11.8696647 110.478629,14.152995 110.443069,17.595286" id="Fill-36" fill="#18162D"></path><path d="M64.6276235,37.0714181 C64.6279468,35.6819584 64.6082267,34.2921754 64.6395849,32.9033623 C64.6492833,32.4818045 64.3764346,31.7948334 65.1264454,31.77479 C65.691863,31.7599191 66.5556686,31.3512925 66.7839046,32.2189774 C67.0224856,33.1273957 67.291455,32.5406415 67.5943689,32.3511992 C70.7738328,30.3630239 73.5498427,31.7557164 73.70922,35.4676234 C73.7935962,37.4415743 73.6788316,39.4236071 73.7654708,41.397558 C73.8110533,42.4369049 73.2928346,42.4611509 72.5020905,42.4944488 C71.5904394,42.5325959 71.2894652,42.2458461 71.3276124,41.3241733 C71.3980875,39.6172522 71.3557378,37.9048353 71.3431298,36.1950046 C71.334078,34.9704179 70.9994826,33.9281615 69.5634705,33.7671678 C68.3805871,33.6342995 67.2840196,34.6442279 67.1850957,36.0957574 C67.0651587,37.8518172 67.0590163,39.6221014 67.1230259,41.3817173 C67.1602031,42.4049001 66.6665538,42.4902462 65.8573826,42.4879832 C65.0637289,42.4857203 64.5377515,42.4401377 64.6043473,41.3985279 C64.6964823,39.9615459 64.6273002,38.514219 64.6276235,37.0714181" id="Fill-38" fill="#18162D"></path><path d="M64.6276882,17.3795932 C64.6276882,15.9917499 64.6160501,14.6035834 64.6351236,13.2160634 C64.6406194,12.8265103 64.4498839,12.2303811 65.0618539,12.1860916 C65.6440821,12.1437419 66.5101507,11.7645338 66.7661888,12.5559245 C67.0600508,13.4646661 67.3206149,12.965521 67.7121076,12.7256468 C70.9051494,10.7688298 73.6585296,12.1776863 73.835364,15.9070504 C73.9287921,17.8777685 73.8133809,19.8578617 73.8841794,21.8305195 C73.9213566,22.8611378 73.3769522,22.9112462 72.5891176,22.9367854 C71.703329,22.9655574 71.348367,22.6994975 71.3826347,21.7600443 C71.4485839,19.9474104 71.4042945,18.1308972 71.3955659,16.3160003 C71.3900701,15.2103809 71.0865097,14.260906 69.8111681,14.0882742 C68.5426153,13.9166123 67.750578,14.6029368 67.4192155,15.754462 C66.8938846,17.5826134 67.2103763,19.4679854 67.1980916,21.3255553 C67.1913027,22.3374233 67.0894694,22.84756 65.8461325,22.8433573 C64.6312443,22.839478 64.5846919,22.2827889 64.6157268,21.3827759 C64.6619559,20.0498903 64.6276882,18.7140952 64.6276882,17.3795932" id="Fill-40" fill="#18162D"></path><path d="M112.487139,17.4454131 C112.486492,16.0569233 112.477764,14.6681102 112.491988,13.2796203 C112.496191,12.8748731 112.347482,12.2868258 112.881864,12.1914581 C113.411075,12.0970602 114.252897,11.8154828 114.47984,12.4462031 C114.817991,13.3866262 115.095366,12.9178694 115.558627,12.6404947 C118.628176,10.8032915 121.304292,12.1904882 121.479833,15.7565957 C121.582313,17.8349662 121.487592,19.9217419 121.541257,22.0033452 C121.563563,22.8687672 121.103211,22.949264 120.433697,22.9246947 C119.780024,22.900772 119.120532,23.0116572 119.142838,21.9972029 C119.183248,20.1819828 119.156416,18.3654695 119.150274,16.5496028 C119.145748,15.2765241 118.900378,14.1508613 117.307252,14.0632523 C116.083958,13.9963332 115.073383,14.936433 114.966701,16.4199673 C114.8445,18.1210694 114.849673,19.8363959 114.900428,21.5423472 C114.928877,22.5105724 114.637601,22.8319132 113.633492,22.8306201 C112.667853,22.829327 112.443496,22.4724253 112.474531,21.6108827 C112.523993,20.2240092 112.487785,18.833903 112.487139,17.4454131" id="Fill-42" fill="#18162D"></path><path d="M171.08293,37.1303198 C171.083253,35.6881654 171.074201,34.246011 171.089395,32.8041798 C171.093598,32.4068681 170.93713,31.8246398 171.541342,31.7793806 C172.078311,31.7396171 172.898796,31.3975863 173.125416,32.0868203 C173.459688,33.1022445 173.775533,32.4860718 174.179957,32.2355294 C177.16125,30.3873346 179.994157,31.8440367 180.128965,35.335143 C180.207199,37.3621119 180.117974,39.3948998 180.182953,41.4225153 C180.210755,42.2979589 179.875837,42.5242553 179.064403,42.4867548 C178.328939,42.4528103 177.700482,42.5394495 177.749297,41.4461148 C177.828178,39.6871454 177.789384,37.9217105 177.758996,36.1598316 C177.737983,34.9546419 177.433129,33.8124918 175.959616,33.7853362 C174.581148,33.7601203 173.744175,34.651728 173.638139,35.9710358 C173.492986,37.775911 173.4668,39.5972734 173.513999,41.4086142 C173.541478,42.4515172 173.017117,42.4922505 172.227989,42.4874013 C171.478948,42.4828754 171.015364,42.3939732 171.06321,41.4554899 C171.136594,40.0172148 171.082607,38.5724742 171.08293,37.1303198" id="Fill-44" fill="#18162D"></path><path d="M12.0281691,23.1004947 C12.1445501,22.0068367 11.6108139,21.2232047 10.8727645,20.4793362 C9.69925621,19.2958062 9.77134777,19.1141225 11.359625,18.5183165 C11.5112435,18.4614192 11.5862446,18.2027947 11.6968066,18.0375984 C12.1293559,18.0127058 12.5619052,17.9878132 12.9947779,17.9629206 C15.0020266,18.6537711 17.0713452,18.1643244 19.1093057,18.2496704 C19.9640594,18.2855546 20.913211,18.6056023 21.7075112,17.9422306 C23.147726,17.9596878 24.6202687,17.4948104 26.0119914,18.2299503 C25.2341784,18.8500024 25.6366627,19.5288915 25.9011062,20.2123065 C26.4681402,21.6796768 27.0519848,23.1464005 26.7972398,24.7747645 C25.618559,23.8049229 25.3990515,22.0469234 23.9281251,21.316956 C23.876077,21.2261142 23.8346971,21.0647972 23.7703642,21.0550988 C21.2465132,20.6778304 18.7161965,20.7832199 16.1874963,20.9952919 C16.0921285,21.0030506 16.0158343,21.2377523 15.9308116,21.3667412 C15.2254135,21.7427165 15.3434109,22.5421892 15.0217467,23.1153656 C14.0237798,23.1105164 13.0261361,23.1053439 12.0281691,23.1004947" id="Fill-46" fill="#18162D" opacity="0.858362107"></path><path d="M88.1933835,15.1253581 C88.1930602,13.4704851 88.2509274,11.8130259 88.1726936,10.161709 C88.1203221,9.05091712 88.7255033,9.01858907 89.5657093,8.95942873 C90.5756377,8.8886303 90.7890028,9.36514579 90.6668028,10.1885413 C90.4615197,11.5763846 90.7366314,12.4689621 92.4548674,12.1492377 C93.1428083,12.0212186 93.205848,12.5623902 93.2055247,13.0815787 C93.2048782,13.6033534 93.1185623,14.165215 92.4535742,14.0236181 C90.4443858,13.5965646 90.6241298,14.8816046 90.6632467,16.1411055 C90.6994541,17.3142906 90.6891091,18.4900618 90.6664795,19.6638934 C90.6470827,20.6783477 91.0734897,21.2340669 92.1186556,20.9844943 C92.8470066,20.8102461 93.1964729,20.8939758 93.3228756,21.7125221 C93.4554206,22.569862 93.0383887,22.855642 92.3278181,23.0188987 C89.8249803,23.5936914 88.2512507,22.3736307 88.1992026,19.7696061 C88.1684909,18.2220623 88.1937068,16.6735486 88.1933835,15.1253581" id="Fill-48" fill="#18162D"></path><path d="M121.528228,34.9765926 C121.528552,37.0546398 121.498163,39.1330103 121.543099,41.2100876 C121.561526,42.0590223 121.383075,42.4737912 120.403535,42.4256224 C119.590808,42.3855356 119.123345,42.3102113 119.134013,41.3106279 C119.179272,37.0484975 119.19091,32.7853972 119.131103,28.5235901 C119.113323,27.2453389 119.960964,27.4069792 120.719704,27.2928611 C121.741917,27.1393029 121.516913,27.8912534 121.521116,28.4230498 C121.537603,30.6074563 121.527905,32.7921861 121.528228,34.9765926" id="Fill-50" fill="#18162D"></path><path d="M111.408319,37.1009659 C111.408643,35.7118295 111.396358,34.3226931 111.415755,32.93388 C111.421897,32.4906624 111.234395,31.8418384 111.961129,31.8214717 C112.488723,31.8066008 113.285286,31.4464663 113.501884,32.2213697 C113.733676,33.0512308 113.993594,32.7993953 114.431962,32.4508989 C114.722268,32.2197533 115.052984,32.023522 115.392752,31.8719034 C116.971654,31.1671519 117.376078,31.4781478 117.26196,33.1860388 C117.22252,33.7721464 117.089975,33.9567395 116.444707,34.0175163 C114.633689,34.1882084 113.938959,34.9753965 113.871071,36.8342595 C113.814496,38.3818033 113.792837,39.9354895 113.869131,41.4810937 C113.925058,42.620011 113.207699,42.4367109 112.515879,42.4813236 C111.722871,42.532402 111.343663,42.3248559 111.388599,41.4274291 C111.460691,39.9885075 111.407996,38.5434436 111.408319,37.1009659" id="Fill-52" fill="#18162D"></path><path d="M138.218749,15.3065569 C138.218749,17.3865438 138.202585,19.4668539 138.227154,21.5465175 C138.236206,22.2987913 138.266595,22.8787566 137.179726,22.8280015 C136.290704,22.7862983 135.829383,22.7025687 135.845224,21.6237816 C135.906324,17.4111131 135.913436,13.1965049 135.842637,8.98415969 C135.822594,7.77282757 136.487259,7.78187943 137.338133,7.68133919 C138.490628,7.54523809 138.205171,8.33533568 138.210667,8.90657237 C138.231034,11.0395773 138.218749,13.1732287 138.218749,15.3065569" id="Fill-54" fill="#18162D"></path><path d="M16.8662561,1.6768884 C16.9603307,2.35836374 16.4550433,2.56267703 15.9843468,2.84425437 C13.7734313,4.16744155 11.7684455,5.74052457 9.97682487,7.6039135 C9.21420611,8.3972439 8.96269387,9.11040074 9.35806595,10.1714074 C9.75376131,11.2343538 10.5726309,10.8548224 11.2437612,10.8719563 C13.0130755,10.9175389 14.7846528,10.8816547 16.5555835,10.8777754 C16.5542904,11.0297172 16.552674,11.1819823 16.5513809,11.3342475 C12.7725548,11.4949179 8.99340552,11.4958877 5.21490277,11.3442691 C5.14604402,11.2175432 5.0765387,11.0904939 5.00703339,10.9634447 C4.62717878,10.2603096 5.16317788,9.85976499 5.5546706,9.4563109 C8.80137689,6.11197389 12.2831081,3.09964598 16.8662561,1.6768884" id="Fill-56" fill="#18162D"></path><path d="M28.9391672,39.9449293 C27.0185576,40.7337338 25.8909552,39.9833997 24.9143247,38.2502928 C23.5901677,35.9003667 21.9857264,33.7062618 20.5015456,31.4452378 C20.6861387,30.403628 20.8710552,29.3620181 21.1435807,27.824496 C23.8911418,32.0963248 26.4153162,36.0206271 28.9391672,39.9449293" id="Fill-58" fill="#18162D"></path><path d="M97.9385779,17.6276464 C97.9382546,18.9602087 97.8939652,20.2947107 97.9544186,21.6243635 C97.9935356,22.4878457 97.7762911,22.8298765 96.8203506,22.8302009 C95.8285259,22.8308464 95.5353105,22.5324585 95.5582634,21.5529185 C95.62001,18.8894103 95.6607433,16.220083 95.5446856,13.5601308 C95.4864951,12.2285384 96.2546096,12.2498749 97.1352258,12.1703479 C98.310997,12.0643119 97.9046334,12.9433116 97.9227371,13.4709054 C97.9702594,14.8551926 97.9389012,16.2417428 97.9385779,17.6276464" id="Fill-60" fill="#18162D"></path><path d="M98.2220302,9.2010486 C98.1854995,10.0622679 97.7697608,10.618957 96.8852653,10.6580739 C95.9965671,10.6975141 95.4932194,10.1847912 95.4566887,9.31645974 C95.4198347,8.44327905 95.9199496,7.87495189 96.7714705,7.84068416 C97.6194354,7.80641642 98.1240762,8.33433351 98.2220302,9.2010486" id="Fill-62" fill="#18162D"></path><path d="M21.7075759,17.9421013 C20.9132756,18.605473 19.964124,18.2854253 19.1093703,18.2498644 C17.0714099,18.1641951 15.001768,18.653965 12.9945192,17.9627913 C15.8985482,17.7869267 18.8029004,17.829923 21.7075759,17.9421013" id="Fill-64" fill="#18162D"></path><path d="M15.9306499,21.3669029 C16.015996,21.2379139 16.0919669,21.0032123 16.1876579,20.9951303 C18.7163582,20.7833815 21.2466748,20.6779921 23.7705259,21.0549372 C23.8348587,21.0646356 23.8762386,21.2259526 23.9279635,21.3167944 C21.2621923,21.333605 18.5964211,21.3504156 15.9306499,21.3669029" id="Fill-66" fill="#18162D"></path><path d="M5.00273376,10.0793694 C5.07223907,10.2064187 5.14594703,11.2176402 5.21480578,11.3443661 C5.08937294,11.3291719 4.34356477,11.2913481 4.21910177,11.2764772 C4.27470602,11.1642989 4.94712951,10.1912245 5.00273376,10.0793694" id="Fill-68" fill="#18162D"></path><path d="M5.56478928,19.9534234 C5.244095,20.9914772 4.27554655,21.9554997 4.1966661,21.0861984 C4.31983598,20.7444909 5.2954966,19.9906007 5.56478928,19.9534234" id="Fill-70" fill="#18162D"></path></g></g></g></g></svg>