<svg xmlns="http://www.w3.org/2000/svg" xmlns:xlink="http://www.w3.org/1999/xlink" width="209px" height="60px" viewBox="0 0 209 60"><title>AC66554E-1FB6-492B-9E25-C5EB76E556F8</title><defs><polygon id="path-1" points="0 0 23.1973435 0 23.1973435 21.1977658 0 21.1977658"></polygon></defs><g id="Design" stroke="none" stroke-width="1" fill="none" fill-rule="evenodd"><g id="Technical-LP" transform="translate(-642.000000, -4057.000000)"><g id="klantenlogos-copy-2" transform="translate(0.000000, 3792.333339)"><g id="Group-60" transform="translate(642.000000, 265.072865)"><path d="M192.565985,31.5885561 L202.899871,31.5885561 C202.742491,29.0886587 200.606738,27.2323907 197.862359,27.1789358 C194.988006,27.1227675 192.847369,28.8865071 192.565985,31.5885561 L192.565985,31.5885561 Z M208.9864,34.2640134 C208.491197,35.8839404 208.250243,36.0611284 206.540501,36.0611284 C202.06413,36.0611284 197.58803,36.0611284 193.111659,36.0611284 C192.924702,36.0611284 192.738017,36.0611284 192.555945,36.0611284 C192.463145,38.002056 194.001669,40.0778418 196.012875,40.7331389 C197.938607,41.3607589 200.77063,41.1016248 202.267367,38.8258581 C202.611974,38.3021631 203.121017,38.0869868 203.735612,38.0878009 C204.787072,38.0888862 205.838532,38.0845447 206.889721,38.0886149 C207.891525,38.0924137 208.320792,38.6180081 208.08825,39.5934918 C207.800896,40.7998897 207.158895,41.8198739 206.310129,42.7052711 C204.661982,44.4250529 202.588096,45.3411121 200.283567,45.7652237 C197.335408,46.3073701 194.497958,46.008077 191.900377,44.4174553 C188.935666,42.6021602 187.274223,39.8754188 186.670482,36.5093896 C186.025496,32.9140743 186.679979,29.5656825 188.937837,26.6340759 C190.826666,24.1819352 193.386531,22.8954907 196.453538,22.6029812 C198.865791,22.3731524 201.197726,22.6805858 203.359257,23.8240317 C206.392075,25.4279494 208.002505,28.0689459 208.694162,31.3394618 C208.831191,31.987704 208.891159,32.6519554 208.9864,33.3088806 L208.9864,34.2640134 Z" id="Fill-1" fill="#18162D"></path><path d="M70.8200873,59 C70.0361729,58.7848238 69.7222273,58.1835242 69.5927959,57.4598483 C69.039253,54.3610935 68.4876095,51.261796 67.9546888,48.1595137 C67.6613654,46.4513998 67.4057588,44.7370449 67.1354996,43.0251321 C67.1083652,42.852557 67.0657641,42.6729269 67.0901851,42.5052359 C67.1094506,42.3733625 67.2215159,42.2547849 67.2920654,42.1302378 C67.4087436,42.2186961 67.5927152,42.2846328 67.6304321,42.3991402 C67.7897114,42.8810481 67.9158866,43.3751666 68.0347355,43.869285 C68.9988227,47.8708031 69.9544982,51.874492 70.9305246,55.8730254 C70.9875069,56.106653 71.1655089,56.427925 71.3516513,56.4805658 C71.5421352,56.5345634 71.8281323,56.332683 72.0427659,56.1961967 C72.2131703,56.0882016 72.3214367,55.8855072 72.487771,55.7669296 C73.2537766,55.2212557 73.2980058,54.518202 73.0996529,53.6604819 C72.6557332,51.7404478 72.2902321,49.8027764 71.893255,47.8721599 C71.8805018,47.810022 71.8552668,47.7413718 71.8696481,47.6841181 C71.9076363,47.5332505 71.964076,47.3867244 72.0134607,47.2385703 C72.1409926,47.3506356 72.335818,47.4388226 72.3857454,47.578565 C72.9582824,49.1797693 73.5088405,50.7882998 74.0648255,52.3952022 C74.2414708,52.9058727 74.4167594,53.4168145 74.592862,53.9274849 C74.7461717,54.3722186 75.0579466,54.5947212 75.5295434,54.5941785 C75.8801206,54.5939071 76.2312404,54.6091024 76.5810035,54.5925504 C77.0493442,54.5700288 77.2067241,54.3765602 77.1367172,53.9109329 C77.106598,53.7087812 77.0365911,53.5106997 76.9687549,53.316417 C75.9894724,50.5109856 75.0145314,47.7036549 74.0154408,44.9050072 C73.9220983,44.6431597 73.7164191,44.3791414 73.4914745,44.2119932 C68.5844796,40.5615949 63.9746069,36.581513 59.8965696,32.0120707 C56.9473257,28.7076367 54.3475735,25.1630628 52.5086715,21.1070044 C51.6921957,19.3052766 51.0727161,17.4384261 50.6722115,15.5004833 C50.6594583,15.438074 50.6331379,15.3705092 50.6461625,15.3127128 C50.6841507,15.1425798 50.7389623,14.9762456 50.7869903,14.8085546 C50.9188637,14.9208913 51.1044634,15.0071789 51.1736563,15.1496348 C51.5684626,15.9650251 51.9279941,16.7969675 52.3133034,17.6169708 C56.2005855,25.8921656 61.8293569,32.7824179 68.9293585,38.5132149 C72.4145079,41.3262438 76.0545951,43.9227399 79.7579056,46.4359331 C79.8203148,46.4779915 79.8876083,46.512995 80.0639822,46.6171913 C79.6466543,45.5581335 79.284138,44.5973024 78.8912311,43.6489532 C76.1373552,37.001283 72.649221,30.7429922 68.7755061,24.69228 C66.8877621,21.7435788 64.9783104,18.8084447 62.7057998,16.1297313 C60.7730125,13.8512511 58.687187,11.7325928 56.2453573,9.99300286 C54.8126581,8.97220465 53.6971606,7.65319877 52.5805778,6.31981163 C51.7440225,5.32099233 50.869479,4.34496597 49.9306269,3.44301668 C48.6851554,2.24665854 47.1748516,1.62772161 45.4132827,1.76746406 C43.4338242,1.92430121 42.0130641,2.91932169 41.2866748,4.75415356 C40.8750451,5.79448858 40.4281406,6.80171956 39.8336247,7.74599861 C39.7942797,7.80840786 39.7709441,7.88085685 39.7147758,8.00404728 L41.6519045,8.00404728 C41.2408175,8.70682967 40.8810147,9.32196778 40.5391205,9.90671529 C41.4565365,9.83969318 42.3582144,9.71351797 43.258807,9.71975889 C45.3541296,9.73495419 46.4590447,10.6056989 46.895638,12.6459386 C47.1911323,14.0273537 47.4133634,15.4321044 47.5509351,16.8376692 C47.951711,20.9306305 49.683432,24.4225635 52.2747725,27.5373277 C52.9764695,28.3809379 53.7495301,29.1651236 54.4718493,29.9921818 C54.5725181,30.1072319 54.570076,30.3120971 54.6153906,30.4754465 C54.4599102,30.4504828 54.2650848,30.4770746 54.1541048,30.3932291 C51.5277609,28.4050875 49.2080363,26.134205 47.6241982,23.2020557 C46.6807332,21.4548681 46.274259,19.5437885 45.9565145,17.6082878 C45.7117617,16.1183348 45.5139516,14.6188848 45.211131,13.140871 C44.9245912,11.7423612 44.2440591,11.2346755 42.8127165,11.1532722 C41.4787867,11.077567 40.1776896,11.2951854 38.8831047,11.5779264 C38.7145997,11.6148293 38.5441954,11.6422351 38.2812625,11.6916198 C38.7151424,10.8613054 39.1132049,10.0993699 39.5468135,9.26986962 L36.9109725,9.26986962 C37.01137,9.07830037 37.0691664,8.95402456 37.1389019,8.83653237 C37.6096847,8.04312089 38.1114008,7.26653278 38.5474515,6.45466988 C38.9585385,5.6886642 39.356601,4.90719189 39.663763,4.09614302 C40.6167251,1.58159304 43.2981519,-0.124621515 46.0807903,0.00888000542 C48.2770532,0.114433037 50.0489331,1.08638923 51.561679,2.59126612 C52.3165595,3.3420765 53.0329092,4.13793008 53.7082857,4.96091811 C54.9041012,6.41803836 56.1761645,7.77855995 57.6916238,8.92390532 C61.3463636,11.6853788 64.3924775,15.0353987 66.9691654,18.807902 C71.3345566,25.1999657 75.3387882,31.8069342 78.687994,38.7937851 C79.8908644,41.3031796 81.0231852,43.844864 81.7639559,46.5376873 C81.9107533,47.0714221 82.016035,47.6238796 82.0684045,48.174709 C82.1316277,48.8408599 81.7951605,49.1518208 81.171068,48.9282329 C80.3537782,48.6354521 79.550327,48.2677802 78.8011447,47.8298301 C77.8148072,47.2537656 76.8865375,46.5778463 75.8608551,45.8967715 C75.9343895,46.1081489 75.9864876,46.2628153 76.0415706,46.4163963 C76.9245258,48.8682657 77.8126365,51.318507 78.6852806,53.7741752 C78.8117271,54.1296366 78.9161948,54.5078909 78.9408871,54.8818037 C78.9997689,55.7726279 78.5007663,56.2979509 77.6118415,56.3199298 C76.9429772,56.3364819 76.2722134,56.3508631 75.6044345,56.3191158 C74.7844313,56.2803135 74.11014,56.5315786 73.5598533,57.1475307 C73.2738561,57.467446 72.9694075,57.7778641 72.6359251,58.0459525 C72.2096428,58.3886607 71.7459149,58.6841549 71.2981964,59 L70.8200873,59 Z" id="Fill-3" fill="#18162D"></path><path d="M116.899602,19.3615535 C116.899602,19.5987086 116.899602,19.785665 116.899602,19.97235 C116.899602,27.7070265 116.900416,35.441703 116.896346,43.1763795 C116.896075,43.492496 116.877623,43.8148533 116.813857,44.1231007 C116.659462,44.8682128 116.067931,45.4925767 115.310066,45.5202538 C113.800848,45.5750654 112.281861,45.6100688 110.778341,45.4996316 C109.6623,45.4179569 108.880285,44.6663325 108.328642,43.7084862 C107.67036,42.5644976 107.01642,41.4177955 106.365464,40.2694653 C103.401839,35.0401131 100.440113,29.8096755 97.4764879,24.5800519 C97.4010541,24.4465504 97.3139525,24.3195611 97.1237399,24.2042397 L97.1237399,24.74313 C97.1237399,30.9021087 97.1250967,37.0613587 97.1196698,43.2203374 C97.1193984,43.5513777 97.1082733,43.8946286 97.0227998,44.2110163 C96.8220048,44.9558571 96.3075355,45.4586586 95.5474994,45.5183544 C94.5676742,45.5951449 93.5734678,45.5935168 92.5928286,45.5229672 C91.7177424,45.4600153 91.0955493,44.7181593 91.0065483,43.8124112 C90.9910817,43.6544887 90.9937951,43.4943954 90.9937951,43.3353875 C90.9937951,34.5185889 90.9937951,25.7015189 90.9937951,16.8847204 C90.9937951,16.8212257 90.9937951,16.7574598 90.9948805,16.6936938 C91.0144173,15.4672164 91.6897939,14.6865581 92.9122011,14.6379875 C94.2637683,14.5839899 95.6202198,14.6070542 96.9731437,14.6447711 C98.3366501,14.682488 99.3010086,15.3852704 99.9554917,16.5604636 C100.852557,18.1719789 101.764003,19.7758966 102.668666,21.3833417 C105.249967,25.9701501 107.830725,30.5575011 110.412568,35.1443094 C110.504825,35.3082015 110.603595,35.4688375 110.812259,35.6248606 C110.812259,35.4490293 110.812259,35.2731981 110.812259,35.0976382 C110.812259,29.1294147 110.811716,23.1614626 110.814158,17.1932391 C110.814158,16.9235226 110.821213,16.6510927 110.858659,16.3846324 C110.984291,15.4927228 111.536477,14.9155729 112.421332,14.7576504 C112.685621,14.7104365 112.959408,14.6995827 113.228853,14.6995827 C128.811357,14.6968692 144.394132,14.6971406 159.976907,14.6976833 C160.167934,14.6976833 160.36086,14.691985 160.549715,14.7145066 C161.352353,14.8108339 161.738747,15.2289759 161.755842,16.0405675 C161.769952,16.7086178 161.770494,17.3774821 161.754485,18.0455324 C161.735762,18.8278187 161.34584,19.2500308 160.570609,19.3425593 C160.334539,19.3705078 160.093314,19.3610108 159.854531,19.3610108 C145.769306,19.3615535 131.684353,19.3615535 117.599129,19.3615535 L116.899602,19.3615535 Z" id="Fill-5" fill="#18162D"></path><path d="M125.146523,31.5885561 L135.436451,31.5885561 C135.306477,29.5236241 133.506377,26.9368964 129.730075,27.1870761 C127.253785,27.3509682 125.023604,29.4530745 125.146523,31.5885561 M125.050467,36.0611284 C125.154935,39.0255676 127.800001,41.2581906 130.783706,41.0145232 C132.46957,40.8769515 133.849357,40.2360357 134.812087,38.8038791 C135.139058,38.317901 135.618252,38.0937704 136.196759,38.091057 C137.327723,38.0850874 138.458687,38.0780325 139.589651,38.0926851 C140.366239,38.1027248 140.761317,38.5577696 140.651422,39.3357145 C140.478304,40.5613778 139.846072,41.573493 139.045062,42.475985 C137.389861,44.3414788 135.239184,45.3107215 132.833986,45.7600681 C129.88637,46.3108976 127.045121,46.0167601 124.448896,44.4277664 C121.306184,42.5047475 119.64447,39.5915924 119.119147,36.0131004 C118.695035,33.124909 119.126201,30.3487829 120.652786,27.8307054 C123.038176,23.895938 126.664696,22.3365209 131.158704,22.5663497 C133.047534,22.6632197 134.837322,23.138344 136.449923,24.154258 C139.118054,25.8349662 140.59037,28.3291653 141.172132,31.3589986 C141.370757,32.3933641 141.392736,33.4746721 141.378354,34.5326445 C141.366415,35.4074594 140.843806,35.8798702 139.977945,36.0133718 C139.727765,36.0519027 139.470802,36.059229 139.216824,36.059229 C134.692967,36.0619424 130.168839,36.0611284 125.644983,36.0611284 C125.456941,36.0611284 125.268628,36.0611284 125.050467,36.0611284" id="Fill-7" fill="#18162D"></path><path d="M159.430663,29.6814652 C158.904798,29.6814652 158.378932,29.6901482 157.853337,29.6790231 C157.377942,29.668712 156.976894,29.4980363 156.75005,29.0519458 C156.13247,27.8382216 155.095391,27.2396356 153.791309,27.0540359 C152.775124,26.9091379 151.75324,26.8868876 150.763104,27.2046321 C150.4071,27.3188682 150.057337,27.5041965 149.755873,27.726699 C148.951337,28.3201296 148.732362,29.9159069 150.066291,30.4675504 C150.811675,30.7757978 151.599931,30.9885319 152.380046,31.2039795 C154.29601,31.73283 156.239923,32.1713228 158.132551,32.7720797 C160.014325,33.369309 161.482571,34.5377187 162.226055,36.4368592 C163.308991,39.2026742 162.357114,42.2870478 159.910943,44.0127991 C158.349084,45.114458 156.571506,45.6305554 154.703027,45.8693386 C151.939654,46.2226292 149.269081,45.9067841 146.742863,44.6775933 C145.53945,44.0920317 144.479307,43.3132729 143.661203,42.2406479 C143.016489,41.3956809 142.640405,40.4446183 142.633015,39.3725359 C142.627109,38.5194286 143.037925,38.1010153 143.883977,38.0912469 C144.839924,38.0801218 145.796413,38.0877195 146.75236,38.092061 C147.368584,38.0947744 147.889837,38.3053378 148.182075,38.8746187 C149.000721,40.4684966 150.418768,41.1069703 152.089165,41.197328 C153.011465,41.2472554 153.960628,41.1088697 154.871803,40.9265262 C155.322778,40.8361684 155.787049,40.5260216 156.12026,40.1911824 C156.991004,39.3160963 156.745438,38.0231395 155.627498,37.5162678 C155.067171,37.2622893 154.460174,37.101382 153.862944,36.9402033 C151.928529,36.4181364 149.977019,35.9552226 148.055086,35.39164 C146.711387,34.9973763 145.507432,34.3059904 144.551756,33.2499174 C142.294441,30.7557183 142.764952,26.6945043 145.558173,24.5440988 C147.014208,23.4229031 148.701157,22.8964946 150.49583,22.6672085 C152.938202,22.3548909 155.331461,22.5377771 157.627307,23.4823275 C159.193237,24.1264995 160.527981,25.0740347 161.398725,26.5723993 C161.789733,27.2447911 162.0353,27.9584273 161.951454,28.7540095 C161.886603,29.3707757 161.582426,29.6594863 160.960504,29.6877061 C160.928757,29.6890628 160.896738,29.6901482 160.864991,29.6901482 C160.386881,29.6904196 159.908772,29.6904196 159.430663,29.6904196 C159.430663,29.6874348 159.430663,29.68445 159.430663,29.6814652" id="Fill-9" fill="#18162D"></path><path d="M171.518168,27.5819367 C171.5065,27.7186944 171.494289,27.7960276 171.494289,27.8733608 C171.494832,31.1669409 171.47828,34.4605211 171.504872,37.7541013 C171.521424,39.8049235 172.676809,40.9171648 174.733601,40.9505402 C174.908889,40.953525 175.084992,40.9475554 175.258924,40.9646501 C176.010005,41.0387272 176.47916,41.4641954 176.526103,42.2106643 C176.570875,42.9234864 176.570603,43.6436349 176.522847,44.3561857 C176.474819,45.073078 176.049622,45.5088573 175.329202,45.5525438 C173.769785,45.6477857 172.204127,45.6757342 170.673201,45.2928671 C167.70849,44.5512824 165.66418,42.0554552 165.590103,38.9073157 C165.506529,35.3611137 165.551301,31.8116556 165.540447,28.2635542 C165.539633,28.0592318 165.540176,27.854638 165.540176,27.5797659 C165.126104,27.5797659 164.750835,27.5879063 164.376108,27.5781379 C163.442411,27.5537169 162.999034,27.1277059 162.969458,26.2045918 C162.952091,25.6646161 162.953177,25.1224697 162.977869,24.582494 C163.012601,23.8175737 163.390856,23.4181545 164.16066,23.3527605 C164.599424,23.3155863 165.043615,23.3459769 165.540176,23.3459769 L165.540176,22.7012622 C165.540176,20.728316 165.537462,18.7553697 165.541533,16.7821521 C165.544246,15.3177056 166.172409,14.6984973 167.643367,14.6971406 C168.312232,14.6965979 168.981367,14.6892716 169.650503,14.6993113 C170.795848,14.716406 171.496189,15.4107768 171.501616,16.5563935 C171.511655,18.624853 171.504872,20.6933125 171.504872,22.7617721 C171.505143,22.9329905 171.504872,23.1042089 171.504872,23.3223699 C172.604631,23.3223699 173.652021,23.3223699 174.699683,23.3223699 C176.392873,23.3223699 176.679684,23.605925 176.679412,25.2787641 C176.679412,25.5970513 176.684025,25.9153385 176.6748,26.2333543 C176.649293,27.0965013 176.208901,27.5556163 175.334086,27.5724396 C174.187655,27.5944186 173.040411,27.5803086 171.893437,27.5819367 C171.784085,27.5819367 171.674733,27.5819367 171.518168,27.5819367" id="Fill-11" fill="#18162D"></path><path d="M178.276872,30.1329554 C178.276872,25.6924018 178.276058,21.2521195 178.277415,16.8115659 C178.277686,15.3129299 178.895809,14.6980631 180.394988,14.6972491 C181.112151,14.6967064 181.829315,14.6866667 182.546207,14.7005052 C183.609607,14.7211274 184.268974,15.3520035 184.349021,16.4072625 C184.361231,16.5657277 184.361231,16.7252783 184.361231,16.8842862 C184.361774,25.7173655 184.362045,34.5507161 184.360146,43.3837953 C184.359874,43.6377738 184.35499,43.8947371 184.318087,44.1451881 C184.206293,44.9019681 183.660077,45.4967554 182.900583,45.5385424 C181.853736,45.5960675 180.798748,45.5998663 179.751901,45.5412559 C178.935697,45.49567 178.368858,44.8455284 178.293153,44.0266106 C178.272531,43.8054648 178.277415,43.5816055 178.277415,43.3588316 C178.27663,38.9502967 178.276872,34.5414904 178.276872,30.1329554" id="Fill-13" fill="#18162D"></path><path d="M7.53024551,33.6871349 C7.24370567,34.1912931 7.27301088,34.6772712 7.46159534,35.1420844 C7.59726762,35.4763809 7.78259595,35.8055218 8.00971134,36.0850067 C8.6720634,36.8998544 9.36507739,37.6902811 10.0494084,38.4874914 C10.6110916,39.1417031 11.3306973,39.4241728 12.1485298,39.1465873 C14.0723627,38.493461 15.7777632,39.0364214 17.4356784,39.9842279 C19.0477364,40.9062567 20.5379607,41.9794245 21.810024,43.4349166 C21.3945955,43.7523898 20.9981611,44.055753 20.5881595,44.3691559 C19.3999417,43.0927512 18.0410481,42.1121119 16.5565221,41.2823403 C14.8562771,40.3318203 13.1823526,40.1850229 11.3602739,41.0134378 C8.92984072,42.1188956 6.43564159,43.0840681 3.97400379,44.121961 C3.5952068,44.2815116 3.22699224,44.4817639 2.88564079,44.7105074 C2.15626663,45.1983849 1.8216988,45.9171766 1.7967351,46.779781 C1.77964039,47.3680559 1.78859476,47.957145 1.78940879,48.5459627 C1.79130821,49.7979464 1.38673348,50.1444534 0.0970328124,49.9800186 C0.0970328124,48.7003577 0.000976840392,47.409843 0.1225392,46.1399505 C0.259839545,44.7050805 1.21849985,43.7570026 2.47048362,43.1608586 C3.90508228,42.4773417 5.3784832,41.8749568 6.83967363,41.2481509 C7.6282009,40.9100556 8.42649658,40.5944819 9.28747284,40.2414626 C9.15614208,40.0916804 9.04896098,39.9687613 8.94096585,39.8466563 C8.20399404,39.0117291 7.44151585,38.1971527 6.73520597,37.3367191 C5.68998675,36.0635705 5.32801312,34.6178467 5.77790239,33.0028039 C5.90082147,32.561055 5.82538768,32.1556662 5.53749111,31.7890797 C5.3510774,31.5513819 5.17416076,31.3052724 5.00375638,31.0559068 C4.38346273,30.1490733 4.06164809,29.1925837 4.44994214,28.0884827 C4.65643535,27.5015644 4.63527047,26.9103047 4.382106,26.3209443 C4.108048,25.6819279 4.28957751,25.0676038 4.81734267,24.6961331 C5.54943027,24.1811211 6.33415872,23.6989419 7.16311633,23.3711577 C9.24324368,22.5487123 11.4411346,22.2998894 13.7432218,22.2385655 C13.555994,22.6732595 13.4132668,23.072136 13.2092157,23.4370944 C13.1473491,23.547803 12.9205051,23.588776 12.7609545,23.6194379 C11.3418225,23.8924105 9.91237935,24.1197973 8.50437246,24.4410692 C7.97660731,24.5615462 7.46512282,24.8451013 7.00437977,25.1435803 C6.44432461,25.5060966 6.39521125,26.0183951 6.81633799,26.5320504 C7.0252733,26.7868429 7.27870911,27.0188425 7.55005367,27.2060702 C8.70869491,28.0049086 10.0030084,28.473792 11.3868657,28.7000933 C12.1175965,28.8197563 12.7685521,28.5315884 13.4075685,28.2469479 C14.587646,27.7210822 15.803541,27.5759129 17.0403294,27.9460268 C18.2564957,28.3098999 19.4658784,28.7079623 20.6497547,29.1649066 C21.5050327,29.4951329 22.3133681,29.9463789 23.1341854,30.3395571 C22.8050445,31.3218244 22.4368299,31.4588534 21.5316245,31.1397522 C20.0196926,30.6071029 18.5009772,30.0863927 16.9610968,29.6438297 C16.031199,29.3768267 15.030209,29.36136 14.1526807,29.8139627 C12.0440622,30.9017831 10.0773568,30.3995243 8.13534387,29.4050465 C7.57230392,29.1166072 7.04155397,28.7649447 6.47661461,28.4309195 C6.17270871,28.9703525 6.21476712,29.5309504 6.49506604,30.0853073 C6.98999851,31.0640471 7.78259595,31.7774119 8.6446576,32.4158857 C9.64781841,33.1590984 10.7391662,33.7373336 11.9357957,34.1188441 C12.0996878,34.1709422 12.2649366,34.3812343 12.3268032,34.5546234 C12.435341,34.8601574 12.4646462,35.1939112 12.5373666,35.5691807 C10.6648178,35.3607881 9.01504291,34.7757692 7.53024551,33.6871349" id="Fill-15" fill="#18162D"></path><g id="Group-19"><mask id="mask-2" fill="white"><use xlink:href="#path-1"></use></mask><g id="Clip-18"></g><path d="M7.0010965,11.8865266 C6.93733053,11.833343 6.87790607,11.7741899 6.8092559,11.728604 C6.63830883,11.6149107 6.36750697,11.5451751 6.30645444,11.3907801 C6.03321048,10.7021076 5.41481624,10.7202877 4.85014822,10.5664353 C3.14149157,10.100808 1.77527174,8.43556652 1.60948022,6.69896138 C1.59374224,6.53506927 1.49768626,6.32803337 1.37015432,6.23387681 C-0.46657696,4.87416926 -0.244074426,2.60925627 0.794089836,1.32769594 C2.01079881,-0.174196165 4.16228978,-0.415150129 5.75942382,0.77116826 C5.89780955,0.874007846 6.09779048,0.957039279 6.26412469,0.949170287 C8.54667508,0.839547087 10.0678326,1.78165538 10.9372206,3.89298735 C11.0579689,4.18631081 11.2047663,4.3263246 11.5254956,4.40799931 C12.2472721,4.59142823 12.7131707,5.0961291 12.9392007,5.82658864 C12.978817,5.82061906 13.0184333,5.81464948 13.058321,5.80840855 C13.0892543,5.64288838 13.1340261,5.47845358 13.1492214,5.31130533 C13.3003603,3.6612591 14.5189687,2.07633556 16.0395836,1.68641344 C16.5440131,1.55698209 16.8986604,1.32742459 17.2584633,0.971420541 C18.3685339,-0.126710868 20.1007975,-0.302542139 21.4526361,0.488427235 C22.7613309,1.25443291 23.4527168,2.79865476 23.11028,4.19119501 C23.1064811,4.20666165 23.1075665,4.22429905 23.0999689,4.23759493 C22.8468044,4.69128303 22.4948705,5.11892204 22.3673386,5.60517148 C22.2444195,6.07324084 22.4438577,6.62108549 22.3426462,7.10027997 C22.0987075,8.25837853 21.3649918,9.06752799 20.3189585,9.6151013 C20.152353,9.7022029 19.9898176,9.89512888 19.9314785,10.0739449 C19.5203915,11.3327123 17.7126941,12.3947549 16.4316765,12.0943765 C16.3244954,12.0691414 16.179326,11.9698293 16.1584325,11.8800143 C16.139167,11.7969829 16.2401072,11.6485574 16.3285655,11.5861481 C16.4824179,11.4778817 16.6669322,11.412759 16.8395073,11.3310843 C17.8128202,10.8703412 18.4550928,10.1287565 18.8043132,9.10768698 C18.8737774,8.90417857 19.0764718,8.68601755 19.273468,8.5962025 C20.6057697,7.98784801 21.1376051,6.97084862 20.8640897,5.54520434 C20.830443,5.36964441 20.9148312,5.11539456 21.0353082,4.97565212 C21.7847618,4.10762089 21.7095994,2.82633191 20.8421108,2.12192145 C19.9526434,1.40014494 18.6784094,1.59497032 17.9791545,2.54223416 C17.8820131,2.67383627 17.701569,2.80543838 17.5466312,2.82307577 C15.8138249,3.01980058 14.5930458,4.25604636 14.4107022,6.01734386 C14.3952356,6.16549799 14.3686438,6.35136901 14.2736732,6.4463396 C13.7917653,6.92906156 13.55054,7.52059269 13.4110689,8.16937751 C13.3844771,8.29311063 13.3668397,8.43068232 13.2990036,8.53053712 C13.2281827,8.63500477 13.1090624,8.74951217 12.9961831,8.76769226 C12.9261762,8.77881738 12.7924033,8.63364805 12.7514303,8.53270787 C12.6746398,8.34330937 12.6418071,8.13600213 12.5956785,7.93493582 C12.2969282,6.62922583 11.5857341,5.72863325 10.2056757,5.45430391 C10.0789578,5.42934021 9.92212062,5.2727744 9.8806049,5.14442843 C9.26926562,3.25207151 7.73399814,2.23290137 5.75264021,2.44726357 C5.41617296,2.48362374 5.17847513,2.43179693 4.90767327,2.191657 C4.08549927,1.46282553 2.81425004,1.61477848 2.15135529,2.47249861 C1.47326525,3.3500269 1.64638308,4.63999891 2.56217095,5.25513701 C2.84409794,5.44426416 2.94151063,5.63963224 2.98085559,5.9682305 C3.20308678,7.82205649 4.5199219,9.08489404 6.40766596,9.32937548 C6.57264345,9.35054036 6.78700565,9.48105709 6.86271078,9.62269894 C7.39346073,10.6171767 8.20749439,11.2114213 9.30209832,11.4415215 C9.41090748,11.4643144 9.53762539,11.4683846 9.62147086,11.5286231 C9.73706364,11.6121972 9.90963877,11.7554671 9.89498617,11.8469103 C9.87354995,11.9787837 9.72675254,12.1274805 9.59542178,12.1953167 C9.44699631,12.2721072 9.24674403,12.2422593 9.08556536,12.3030404 C8.65792635,12.4647618 8.14942665,12.5553909 7.83846579,12.8489857 C7.39834493,13.2646855 6.95523927,13.3409334 6.39681218,13.3273661 C5.50273188,13.3053872 4.66373452,13.5449845 3.93517439,14.0925578 C3.44648285,14.459687 3.22370897,14.9774124 2.97841349,15.5287845 C2.75672499,16.0264304 2.15515412,16.347431 1.89547738,16.8382933 C1.50636929,17.5739084 1.80457695,18.5401664 2.4273127,19.0394403 C3.07501215,19.5590652 4.05510868,19.6022089 4.75219284,19.1382098 C4.8835236,19.0508368 5.00481462,18.9482686 5.12122143,18.8595389 C5.47315532,18.9965679 5.80039685,19.1704998 6.14934595,19.2516318 C7.23743761,19.5050676 8.13368867,19.1420086 8.81530619,18.2853738 C9.02858301,18.0175567 9.24430193,17.9391382 9.57154346,17.9198727 C10.7741425,17.8487804 11.9018505,17.5701096 12.7405765,16.6016809 C12.8184524,16.5118658 12.9774603,16.4926004 13.09848,16.4405022 C13.1313127,16.6125346 13.2265546,16.8008478 13.1872096,16.9544288 C12.8773342,18.1605553 11.4853366,19.2429487 10.2086605,19.2689978 C9.90122709,19.2755101 9.6990754,19.355014 9.48688396,19.6000382 C8.54694642,20.6862304 7.32074038,20.8894675 5.96456031,20.6818889 C5.72496306,20.6452574 5.43001154,20.6805322 5.21917682,20.7928688 C3.93083288,21.4782852 2.28675623,21.2842738 1.16935935,20.2808417 C0.103517947,19.3238094 -0.285861487,17.6938427 0.24190367,16.3960017 C0.489912592,15.7865618 0.897743456,15.315779 1.4583413,14.9679153 C1.57990366,14.8924815 1.7275151,14.7649496 1.75112208,14.6404024 C1.88733704,13.9129277 2.33478421,13.4125683 2.90867794,13.0109784 C3.90749724,12.3117235 5.05229992,12.0702268 6.2464873,12.009717 C6.4906974,11.9975065 6.73626422,12.0080889 6.981017,12.0080889 C6.98780062,11.9673872 6.99431289,11.9269569 7.0010965,11.8865266" id="Fill-17" fill="#18162D" mask="url(#mask-2)"></path></g><path d="M60.8128459,36.7928633 C58.3422538,41.9264309 54.736356,45.8660824 49.4744424,48.1489042 C48.0213923,48.7795089 46.4674021,48.9585963 44.8971311,48.9708068 C42.8256868,48.9870875 40.7534285,49.0144933 38.6827982,48.9694501 C36.3060912,48.9178946 33.9888087,49.1976509 31.7013741,49.8570181 C28.5152464,50.7755194 25.7008607,50.0217243 23.1958078,47.7961562 C23.0829284,47.8775596 22.943186,47.9717162 22.8104985,48.0750984 C20.775143,49.6594793 18.7376167,51.241418 16.7066028,52.8317685 C14.9689122,54.1925614 12.9799567,54.6858658 10.7549313,54.5900812 C10.7549313,54.3830453 10.746791,54.197717 10.756288,54.013474 C10.7891207,53.3671313 11.0569378,53.093616 11.7062653,53.0724511 C12.7186519,53.0398897 13.6954923,52.869214 14.6275608,52.4510721 C15.9427678,51.861169 16.6170591,50.8658772 16.6173304,49.4217815 C16.6173304,49.1832696 16.615431,48.9444864 16.6132602,48.7057032 C16.6015924,47.3658038 15.994052,46.3933049 14.7865687,45.8142556 C14.1714306,45.5193041 13.5356703,45.2661396 12.8385862,44.9633191 C13.3052988,44.6892611 13.7473191,44.4200873 14.2010072,44.1720784 C14.2783404,44.1297486 14.4115705,44.1593252 14.5081692,44.1894444 C14.6745034,44.2412712 14.8305265,44.3259307 14.9944186,44.3861692 C17.0986956,45.1581445 18.0758074,46.6841863 18.0283221,48.8991719 C18.0228952,49.1531504 18.0285934,49.4071289 18.0304928,49.6611074 C18.0304928,49.6741319 18.043246,49.6874278 18.0790635,49.7552639 C20.5035271,47.9548928 22.9209357,46.1596772 25.3660215,44.3435681 C25.6392655,44.7012003 25.8886311,45.0273564 26.1678447,45.3925862 C25.6528327,45.8058439 25.1500312,46.2087906 24.5910615,46.6570518 C24.7535968,46.8043919 24.8889978,46.9492899 25.0455636,47.0659681 C26.813102,48.3838885 28.7833348,48.8655251 30.9076913,48.2373625 C33.5959018,47.4425943 36.3229146,47.1332615 39.1155927,47.202183 C40.9148785,47.2466835 42.7174203,47.1650088 44.5167061,47.2122228 C47.5267312,47.2914554 50.1140015,46.2313122 52.4730711,44.4518346 C55.2831153,42.3323623 57.4527863,39.6878383 59.065387,36.5736169 C59.1603576,36.3901879 59.2528861,36.2054023 59.3492134,36.0225161 C59.363052,35.996467 59.3915432,35.9780156 59.4235618,35.9454542 C59.477288,35.964991 59.5421394,35.9763875 59.5936948,36.0089488 C59.9819889,36.2553297 60.3678409,36.5060521 60.8128459,36.7928633" id="Fill-20" fill="#18162D"></path><path d="M197.931688,19.3615263 C195.016904,19.3615263 192.10185,19.3702093 189.187338,19.3493158 C188.858197,19.3471451 188.468275,19.2605861 188.214568,19.0701023 C187.703083,18.6853357 187.804838,16.596254 188.335045,16.2378078 C188.5722,16.0774432 188.889673,15.9927837 189.180283,15.9615791 C190.90522,15.7762507 192.633414,15.6183282 194.359979,15.4476525 C197.750158,15.1128133 201.139794,14.775532 204.529973,14.4398788 C205.242795,14.3690579 205.954803,14.284127 206.669254,14.234471 C207.663189,14.1655495 208.225957,14.6238504 208.288095,15.6185995 C208.340736,16.4584109 208.330425,17.3052773 208.294065,18.1467168 C208.261232,18.9043107 207.784208,19.3224527 206.962577,19.3512152 C206.214752,19.3772643 205.465569,19.3609836 204.71693,19.361255 C202.455273,19.362069 200.193345,19.3615263 197.931688,19.3615263" id="Fill-22" fill="#18162D"></path><path d="M39.9147024,43.5932733 C39.51664,42.9222382 39.1999809,42.295975 38.7975769,41.7307643 C38.0863828,40.7324877 37.0962466,40.2920955 35.9183399,40.7403567 C33.9749702,41.4800419 32.0647045,42.3065574 30.1454845,43.1083806 C29.7376536,43.278785 29.3509876,43.5002021 28.9203638,43.7153784 C28.6671993,43.3772831 28.4219039,43.0492275 28.1736236,42.7176444 C28.2013007,42.6671744 28.2124259,42.610192 28.2455299,42.5909265 C30.6575116,41.1897033 33.1511681,39.9651253 35.8133295,39.1068625 C37.3434414,38.6135581 38.6250018,39.0325141 39.7168923,40.1716185 C40.5572463,41.0480614 41.1305974,42.0807988 41.5549803,43.2454096 C42.9749263,42.8777377 44.3753356,42.5277033 45.6368164,41.7842192 C46.4532921,41.3028539 47.0456373,40.5968154 47.5484388,39.813715 C48.9190001,37.6793188 50.553851,35.7861478 52.5902919,34.2560359 C52.7938003,34.1032689 53.0024643,33.9562002 53.2168265,33.8191712 C54.373297,33.0794859 54.5187377,33.0930531 55.6206679,34.0519848 C52.4103905,35.6396218 50.2895614,38.2703072 48.5271786,41.3419276 C50.8802785,41.6935901 52.4877237,40.3005072 54.164633,39.0810847 C54.4935026,40.0796327 54.3407356,40.594916 53.5315862,41.1658249 C52.0907466,42.1828243 50.5413692,42.9195248 48.7323151,42.9537142 C48.5890451,42.9564277 48.4297659,42.9832908 48.3052187,42.932278 C47.5734025,42.6340703 46.9786152,42.9499154 46.3409555,43.2698306 C44.1094179,44.3896696 41.7053051,44.9600358 39.2444814,45.2180845 C37.1893177,45.4338034 35.1154313,45.4717917 33.0496852,45.5862991 C32.8936621,45.5949821 32.736825,45.5873844 32.5808018,45.5873844 C32.5723902,44.5711991 32.9107568,44.2643084 33.8729446,44.1959296 C35.7283987,44.0635134 37.5805966,43.8822553 39.4338799,43.7167351 C39.5565276,43.70561 39.6759192,43.6559539 39.9147024,43.5932733" id="Fill-24" fill="#18162D"></path><path d="M33.6176094,10.328439 C33.1460125,9.99305713 32.7221724,9.69186467 32.2720117,9.3716781 C32.5949118,8.93427068 32.9015311,8.51857082 33.2974228,7.98157995 C32.0888542,8.20679593 31.1567856,7.73329968 30.1840154,7.4087716 C28.0216707,6.68699508 26.2234703,7.64484136 25.5887954,9.83242115 C25.4338576,10.3661559 25.3106672,10.908845 25.1676686,11.4461072 C24.6838613,13.2643871 23.7512501,14.8395422 22.5383399,16.2605736 C21.0399753,18.0156302 19.5049791,19.744909 18.4388664,21.8155393 C17.777057,23.1008985 17.139126,24.3987395 16.509878,25.700108 C16.3809893,25.9665683 16.236634,26.0786336 15.9346275,26.0609962 C15.4643874,26.0333191 14.9917052,26.0536699 14.4636687,26.0536699 C14.6153503,25.6835559 14.7556354,25.3514302 14.8880516,25.0160483 C16.2143837,21.6508332 18.0530144,18.6022771 20.5621375,15.9835308 C22.1828785,14.2919689 23.1876674,12.3051841 23.6977952,10.030774 C23.9745666,8.79669899 24.419843,7.61743556 25.4354857,6.7608008 C26.8790387,5.54327779 28.5562194,5.10559903 30.2852269,5.84257083 C31.87612,6.52066087 33.4672845,6.7906487 35.1585751,6.69649214 C35.2331949,6.69215063 35.3089,6.70951668 35.47035,6.72552601 C34.9132796,7.5458006 34.3925694,8.3126203 33.8520511,9.10847388 C34.567858,9.65441912 35.2603293,10.182727 36.0062555,10.7520078 C35.5208201,10.9278391 35.0942664,11.0892891 34.6630999,11.2369006 C33.3538625,11.6851618 32.2166575,12.3806179 31.3678917,13.497472 C31.3296321,13.5479421 31.2911012,13.6119794 31.2379176,13.6347724 C31.0740255,13.7055933 30.9028071,13.7595909 30.7345735,13.8201007 C30.7218203,13.6437268 30.6461152,13.4413037 30.706625,13.2953203 C31.2159387,12.0699283 31.979231,11.061612 33.2271446,10.4947732 C33.3367678,10.4451172 33.4485617,10.4003453 33.6176094,10.328439" id="Fill-26" fill="#18162D"></path><path d="M37.7419109,14.4929538 C37.3772238,15.3883908 37.0423847,16.2105648 36.686652,17.0840229 C37.493088,17.4394843 38.2867708,17.7892474 39.0940208,18.1449801 C39.0614595,18.1981637 39.0476209,18.246463 39.0158736,18.2684419 C36.2136984,20.2044853 34.8054202,22.9095192 34.5872591,26.2717495 C34.5552405,26.7639685 34.5422159,27.258087 34.4849622,27.7473212 C34.4689529,27.8846216 34.325683,28.0067266 34.2407521,28.1358866 C34.1460529,28.0257207 33.9968134,27.9293934 33.964252,27.8032182 C33.0316408,24.1897228 33.7656278,21.0372417 36.5789282,18.4678802 C36.6131176,18.4364042 36.639438,18.3965165 36.6931642,18.3319365 C36.1998598,18.1246293 35.7214794,17.923563 35.2040253,17.7059447 C35.4099758,17.1985303 35.6050726,16.7182505 35.8137365,16.2040526 C35.7236501,16.2086654 35.6590701,16.1961836 35.6080574,16.2170771 C34.8254997,16.537535 34.0331736,16.5104006 33.2164265,16.3519353 C31.2646451,15.973681 29.7125542,16.6449875 29.0244244,18.2453776 C28.755522,18.8708268 28.6038404,19.5966735 28.6038404,20.276663 C28.6041117,21.8116591 28.1045664,23.1290369 27.2232393,24.3547003 C26.1565839,25.8384123 25.1303588,27.3508868 24.0623466,28.8856116 C23.5698562,28.6275629 23.0969027,28.3798254 22.571851,28.104682 C22.6855443,27.8987315 22.7740027,27.7011926 22.8950223,27.5259041 C23.6637414,26.4142054 24.371408,25.2509513 25.2302136,24.2125157 C26.3600923,22.8462959 26.8940984,21.3270377 26.9404983,19.5738806 C26.974959,18.2665425 27.4177933,17.0804955 28.3411789,16.1142375 C29.5638574,14.8348479 31.1010243,14.3404582 32.7828179,14.7271241 C34.3872782,15.0958814 35.906265,14.9135379 37.4485875,14.5412531 C37.5229359,14.5233444 37.5999977,14.5160181 37.7419109,14.4929538" id="Fill-28" fill="#18162D"></path><path d="M71.9124662,1.73818598 C71.4552507,2.92558975 70.9687299,4.03267553 70.6083843,5.17910626 C70.3587473,5.97387446 70.2054376,6.81802737 70.148998,7.64969843 C70.0746496,8.74484504 70.5934604,9.28047919 71.6725977,9.13123969 C72.8456202,8.96897565 74.0094169,8.66561243 75.1428231,8.31286451 C76.735887,7.81684667 78.2972036,7.21826059 79.8729014,6.66498904 C79.9903936,6.62374467 80.1130413,6.59633887 80.3138363,6.5398992 C80.3138363,7.08150293 80.3252328,7.58186229 80.3029825,8.08086492 C80.2991837,8.16688115 80.1683956,8.29169964 80.071797,8.32290426 C77.6823368,9.09460817 75.2945048,9.87255301 72.8928341,10.6059973 C72.4003437,10.7563222 71.8546698,10.783728 71.3339596,10.7810146 C69.6025101,10.7715175 68.6566029,9.84650393 68.5548487,8.11722509 C68.545623,7.96391542 68.5393821,7.81060575 68.5317844,7.65729607 C68.4924395,7.63938733 68.4533659,7.62147859 68.4140209,7.6038412 C67.280886,9.3024581 66.1480225,11.0013464 64.9755427,12.7591164 C64.5318944,12.2869768 64.175619,11.9079085 63.813374,11.5225992 C64.4108747,10.7028673 65.0281836,9.93333419 65.5619183,9.10980347 C67.0841612,6.76104501 68.5686873,4.38786555 70.0827899,2.03395154 C70.1736903,1.89258103 70.3888666,1.76640581 70.5568288,1.75148186 C70.9972211,1.7121369 71.4433115,1.73818598 71.9124662,1.73818598" id="Fill-30" fill="#18162D"></path><path d="M31.2564776,37.5591403 C31.2882249,37.5982139 31.3023348,37.6087963 31.3074904,37.6229062 C31.7503247,38.8374445 31.7533095,38.8436854 30.5754028,39.3912587 C29.3006261,39.9838752 27.984605,40.4443469 26.573342,40.5865315 C23.5730852,40.8890806 21.1912227,39.7822662 19.3802692,37.4118002 C19.1471842,37.1068089 18.9553436,37.0338172 18.5605373,37.0799458 C17.3785604,37.2188742 16.1865438,37.3119454 14.9966979,37.334467 C14.0244704,37.3529184 13.8429409,37.1016534 13.8266602,36.0868247 C15.2699419,35.9758448 16.7148516,35.8648649 18.1597614,35.7541563 C18.1944935,35.6838781 18.2292256,35.6135998 18.264229,35.5433216 C17.8167819,34.8248012 17.4132925,34.0734481 16.908049,33.3978002 C16.5156847,32.8732912 15.8807385,32.7701802 15.2561033,32.8792608 C14.7104294,32.9745027 14.1750666,33.1348673 13.6407892,33.2865489 C12.9827786,33.473234 12.6259606,33.2694542 12.5252917,32.5962484 C12.5098251,32.4917807 12.5890577,32.2917998 12.6661196,32.2673788 C13.7064546,31.9368811 14.7375639,31.538276 15.804762,31.3420939 C16.892311,31.1421129 17.8295351,31.6085542 18.4229656,32.5509338 C18.9805787,33.4360598 19.4274831,34.3898359 19.9533489,35.295584 C20.3033834,35.8987829 20.6577593,36.5103936 21.0946241,37.0503692 C22.8684034,39.2433759 25.1778169,39.7396651 27.7927644,38.9769156 C28.8387976,38.6716529 29.8302906,38.1799766 30.8448479,37.769161 C30.9892032,37.7105505 31.1237901,37.6275191 31.2564776,37.5591403" id="Fill-32" fill="#18162D"></path><path d="M50.5857883,30.7610638 C50.9542742,31.0348504 51.2845005,31.2801459 51.6554285,31.5561033 C49.8167978,33.8044643 48.2226486,36.2207875 45.9935531,38.0900802 C45.6329362,38.3926293 45.2147942,38.6487786 44.7855271,38.8438753 C43.7118167,39.3317528 42.6286093,39.0340879 42.0750664,37.9956523 C41.7255746,37.3398125 41.5939725,36.5670232 41.3744547,35.8436186 C41.3345671,35.7120165 41.3424361,35.5663045 41.3226279,35.3731071 C38.4005184,35.6327839 35.7866563,36.6866861 33.2750912,38.1687701 C33.1646539,37.7644667 33.0515032,37.4049352 32.9768835,37.0375346 C32.9592461,36.9515184 33.0447196,36.7922392 33.1272084,36.7461106 C36.1429317,35.0629603 39.3144069,33.846794 42.7933154,33.5675805 C42.8367305,33.564053 42.8823164,33.5860319 42.9468964,33.6009559 C42.9946531,34.297226 43.0255863,34.9929534 43.0964073,35.6846107 C43.130054,36.0129376 43.2011463,36.3483195 43.3221659,36.6541248 C43.5628486,37.2619366 44.0588664,37.4548626 44.6335742,37.1485146 C45.0085723,36.948805 45.3963237,36.7151773 45.6755373,36.4044878 C47.1630481,34.749286 48.6188116,33.0655931 50.0829868,31.3892264 C50.2495924,31.1987425 50.4001886,30.9938774 50.5857883,30.7610638" id="Fill-34" fill="#18162D"></path><path d="M80.3160613,14.4208033 C80.3160613,14.7987862 80.348894,15.1645587 80.2976099,15.5178493 C80.2805152,15.6364269 80.0620828,15.7815962 79.912572,15.8163283 C78.1838358,16.2176469 76.4268798,16.4398781 74.6547286,16.3845238 C72.7656278,16.325642 70.988321,16.7397138 69.2696246,17.4601336 C68.8829586,17.6221263 68.67538,17.5621592 68.4751277,17.210768 C68.3030953,16.9090328 68.0748945,16.6395877 67.8350259,16.3050199 C72.4280752,13.8862545 77.1741627,11.8818323 82.080615,10.0223081 C82.080615,10.6173667 82.1023225,11.1217962 82.0637916,11.6213415 C82.0553799,11.7306934 81.8469873,11.8609388 81.7050741,11.9179211 C79.6835572,12.72897 77.6576987,13.5294364 75.6329257,14.3326163 C75.5884252,14.3502537 75.5368697,14.3613788 75.503223,14.3917694 C75.3718922,14.5100756 75.246531,14.6351655 75.1189991,14.7575419 C75.2856047,14.8470856 75.4519389,15.011249 75.6190871,15.0120631 C76.1742581,15.0150479 76.7348559,14.9944257 77.2840573,14.9181778 C78.276093,14.7806062 79.2613451,14.5966346 80.3160613,14.4208033" id="Fill-36" fill="#18162D"></path><path d="M29.9520158,29.5977011 C30.2220036,29.9469216 30.47354,30.2719923 30.7644214,30.6480759 C30.3129041,30.8423586 29.8858077,30.9972963 29.4855745,31.2043322 C28.3014269,31.8159429 27.1191787,32.4324377 25.9561959,33.0825792 C25.6449637,33.2565111 25.3842016,33.5384381 25.1378207,33.8054411 C24.8368996,34.1313259 24.6260649,34.5158212 24.8287593,34.9762929 C25.0168011,35.4042032 25.4354857,35.5214241 25.8270359,35.4915762 C26.772943,35.4193985 27.7524969,35.4028465 28.6463058,35.1285172 C29.9767082,34.720415 31.2531129,34.1291552 32.5363013,33.577783 C33.4482904,33.1862328 33.7076958,33.2505415 34.2498422,34.2333515 C33.2960661,34.6954513 32.3566712,35.181158 31.3923127,35.6115105 C29.697766,36.367205 27.9478649,36.9576508 26.0663618,36.9462543 C25.4596354,36.9427268 24.8176342,36.8531831 24.2556796,36.6371929 C23.2150732,36.2366883 22.766812,35.1049102 23.2807386,34.1145026 C23.5935989,33.511575 24.0727934,32.9610169 24.579665,32.4989171 C25.7369495,31.4436581 28.2604539,30.1279084 29.9520158,29.5977011" id="Fill-38" fill="#18162D"></path><path d="M49.4884438,29.6403836 C48.2570822,30.3466935 47.0615381,30.7938693 45.8103684,31.1099857 C44.1049678,31.5411522 42.3935977,31.3927268 40.6876545,31.1498734 C38.4922057,30.8372845 36.3152084,30.74557 34.1699584,31.4526939 C33.2861891,31.7438466 33.2842897,31.7384197 32.7171796,30.9816398 C32.6696943,30.9184165 32.6254652,30.8527511 32.4976619,30.6728497 C33.1602853,30.3624315 33.7754234,30.0096836 34.4337053,29.778498 C36.1572859,29.1731283 37.9378488,29.2341808 39.7216679,29.4360612 C40.6542792,29.5416142 41.585805,29.6629052 42.5208583,29.7437659 C44.4132153,29.9073867 46.2279676,29.5464984 47.9805821,28.8526704 C48.3037535,28.7245958 48.5376525,28.7015315 48.7476732,29.0173765 C48.8336894,29.1470792 48.9661055,29.2482907 49.0871252,29.3511303 C49.1934923,29.4412167 49.3134265,29.5155651 49.4884438,29.6403836" id="Fill-40" fill="#18162D"></path><path d="M74.1014299,37.188972 C73.9288547,37.2777017 73.8238444,37.3639893 73.709337,37.3791846 C73.6339032,37.3892243 73.540832,37.3029367 73.4626848,37.2494819 C68.9879418,34.1824744 65.0938761,30.5526983 62.3592657,25.8019978 C62.2328191,25.5822087 62.1028451,25.3599776 62.0181856,25.1230938 C61.979112,25.0134706 62.04532,24.8664018 62.0637715,24.7364278 C62.205956,24.7692605 62.3535674,24.7879832 62.4876116,24.8408954 C62.5527343,24.8666732 62.5931647,24.9559455 62.6436348,25.0175407 C66.0582346,29.1636855 69.7770117,33.0235618 73.6767757,36.713305 C73.8097345,36.8392089 73.9220711,36.9868203 74.1014299,37.188972" id="Fill-42" fill="#18162D"></path><path d="M12.7668427,12.1328531 C12.9152681,11.9841563 13.1054807,11.7939438 13.3155013,11.5839231 C13.3811667,11.6357499 13.460942,11.6824212 13.5195524,11.7480866 C14.8035549,13.1862127 15.9421166,14.7282638 16.8774413,16.4179263 C17.0304796,16.6941551 17.0291229,16.8824682 16.8074344,17.1274923 C16.5019004,17.4655877 16.2514494,17.853339 15.9928581,18.1993033 C14.9232178,16.1878262 13.855477,14.1796051 12.7668427,12.1328531" id="Fill-44" fill="#18162D"></path><path d="M37.6760556,23.8178451 C37.8871617,23.4176118 38.0700479,23.0344733 38.2917364,22.6754845 C38.346548,22.5867548 38.5272635,22.5354707 38.6501825,22.5346567 C40.4953255,22.5259736 42.3407398,22.5227175 44.1856114,22.5406262 C44.3275246,22.541983 44.5256062,22.6787406 44.5972411,22.808172 C44.764118,23.1101785 44.8699424,23.4455603 45.0210813,23.8178451 L37.6760556,23.8178451 Z" id="Fill-46" fill="#18162D"></path><path d="M15.5986215,10.1088941 C15.3234782,9.94201721 15.0833382,9.79657653 14.8209481,9.63756863 C15.3715062,8.26510787 16.1011517,7.05192637 17.1249347,6.027058 C17.5061738,5.64500486 17.9009801,5.27489089 18.3117957,4.92485642 C18.4040529,4.8461665 18.5880245,4.87492902 18.7299377,4.85430683 C18.7264102,4.98292415 18.7711821,5.14220341 18.712029,5.23581728 C17.6871606,6.85682964 16.6492677,8.46997301 15.5986215,10.1088941" id="Fill-48" fill="#18162D"></path><path d="M10.3380647,8.3271101 C10.2865092,8.39494624 10.2352251,8.47255078 10.1741726,8.54174365 C10.0488114,8.6833855 9.91829466,8.8204145 9.7620002,8.98946216 C8.66549686,8.07096085 7.58364612,7.16575541 6.50260942,6.25946461 C6.11295864,5.93303711 5.71652425,5.61339322 5.34234011,5.26987102 C5.2582233,5.19253782 5.25442447,5.02783168 5.21372279,4.90328453 C5.33908398,4.87913486 5.47828373,4.80695721 5.58844962,4.83816183 C7.06320727,5.253319 9.46379254,7.02058608 10.3380647,8.3271101" id="Fill-50" fill="#18162D"></path><path d="M10.8312334,14.2265206 C10.9077526,14.4818558 10.9799302,14.7225384 11.0700166,15.0223742 C10.2532695,15.2994169 9.44954695,15.5710328 8.64636707,15.8442768 C7.6556881,16.1812867 6.66772258,16.5272511 5.67161673,16.8479803 C5.53757252,16.8911241 5.36336931,16.8108061 5.20788888,16.7877418 C5.27002679,16.6569537 5.29743259,16.4827505 5.39918679,16.4018899 C6.9534484,15.1672721 8.73753884,14.4734441 10.693119,14.195316 C10.7221529,14.1912458 10.7539002,14.2083405 10.8312334,14.2265206" id="Fill-52" fill="#18162D"></path><path d="M42.9055978,5.50086664 C42.9633942,5.0317119 43.0909261,4.51480053 43.6726888,4.27031909 C44.1535114,4.06843874 44.9808409,4.25593782 45.3593666,4.63175003 C45.6098176,4.88030164 45.6277263,5.16467073 45.377004,5.37957562 C44.9602187,5.73639371 44.5328511,6.10759306 44.0490437,6.35315988 C43.3682402,6.6985815 42.8985428,6.34854702 42.9055978,5.50086664" id="Fill-54" fill="#18162D"></path><path d="M28.2162247,9.76786828 C28.2582831,9.26778027 28.4216325,8.81870503 28.9119521,8.61166914 C29.3927747,8.40870341 29.8467341,8.55685754 30.2374703,8.87785814 C30.560099,9.14296177 30.5975445,9.47535885 30.3457368,9.79853021 C30.0011292,10.2408218 29.5289896,10.4994132 28.973276,10.5645359 C28.4834991,10.6217896 28.1958739,10.300789 28.2162247,9.76786828" id="Fill-56" fill="#18162D"></path><path d="M32.730177,17.4796704 C32.9524082,17.5567323 33.189292,17.6066597 33.3936145,17.7168256 C33.809857,17.9414989 33.9479714,18.3295216 33.6370105,18.6627327 C33.2926743,19.0314899 32.8400716,19.314231 32.3956092,19.565496 C32.2707907,19.6360456 31.9291679,19.5261511 31.8233435,19.3918355 C31.4944739,18.9745076 31.5720785,18.4925997 31.7769436,18.0375548 C31.956031,17.6394924 32.2962971,17.500564 32.730177,17.4796704" id="Fill-58" fill="#18162D"></path></g></g></g></g></svg>