<svg xmlns="http://www.w3.org/2000/svg" xmlns:xlink="http://www.w3.org/1999/xlink" width="138px" height="91px" viewBox="0 0 138 91"><title>E11E1F89-5975-497F-AC70-3F830E835B36</title><defs><polygon id="path-1" points="0 0 136.881231 0 136.881231 90 0 90"></polygon></defs><g id="Design" stroke="none" stroke-width="1" fill="none" fill-rule="evenodd"><g id="Technical-LP" transform="translate(-905.000000, -4041.000000)"><g id="klantenlogos-copy-2" transform="translate(0.000000, 3792.333339)"><g id="Group-6" transform="translate(905.321784, 249.572865)"><polygon id="Fill-1" fill="#18162D" points="41.9987302 31.4607967 39.865566 38.1573585 43.5887659 38.0021442"></polygon><polygon id="Fill-2" fill="#18162D" points="48.3488654 64.785841 52.4558503 64.6145952 50.7018559 57.3989521"></polygon><g id="Group-5"><mask id="mask-2" fill="white"><use xlink:href="#path-1"></use></mask><g id="Clip-4"></g><path d="M113.273403,31.3156143 C113.239883,31.7722698 112.864842,32.1295784 112.406972,32.1439097 L110.480275,32.2041493 C109.92573,32.2213954 109.459115,31.7921877 109.429481,31.2378857 C109.418308,31.0309333 109.404705,30.8264099 109.388431,30.6238297 C109.288355,29.5788658 108.900927,28.999302 108.22566,28.8858668 C107.19527,28.6050722 106.413126,28.5788388 105.879956,28.8066808 C105.34873,29.0024597 104.989235,29.6507648 104.801715,30.751839 C104.437362,33.1820723 104.411371,36.4687776 104.723986,40.6117119 C104.954014,41.7866283 105.805385,42.2838485 107.277613,42.1041011 C108.175622,42.0198141 108.665069,41.4361209 108.746198,40.3527786 L108.992015,37.8708072 L107.065803,37.8720217 C106.5834,37.8722646 106.204959,37.4573882 106.24941,36.9769283 L106.469965,34.6001334 C106.510529,34.1621813 106.890914,33.8352354 107.329837,33.8607401 L111.895664,34.1247745 C112.459196,34.1573233 112.883303,34.650657 112.830836,35.212732 L112.146582,42.5532266 C111.807005,45.2445794 110.421735,46.619404 107.990773,46.6769718 C106.430129,46.7056342 105.307193,46.5450761 104.621724,46.1955403 C102.68774,45.5443203 101.532255,44.0220543 101.155758,41.6284992 C100.571579,36.1862827 100.642506,31.3314029 101.36854,27.063374 C101.645448,25.6917071 102.394071,24.9124779 103.615139,24.7254435 C106.48041,24.1903306 108.662883,24.1502518 110.162073,24.605207 C112.355963,25.3939094 113.430318,26.8425762 113.385624,28.9507216 C113.372507,29.6862285 113.3351,30.474688 113.273403,31.3156143 L113.273403,31.3156143 Z M105.149307,68.4118316 C104.837664,69.1415089 104.206119,69.6418867 103.255158,69.9124794 C102.336746,70.1910879 101.090417,70.3305136 99.5161699,70.3305136 C97.3839772,70.2323812 96.1092281,69.871429 95.6909511,69.2483857 C94.8055738,67.8543718 94.3872967,66.4584148 94.4363629,65.0602716 C94.4740127,63.992232 94.6481734,63.0327696 94.958602,62.1823701 C95.1211033,61.737131 95.5668283,61.4611945 96.0370863,61.5199767 L97.627122,61.7196421 C98.1248279,61.7820678 98.4493448,62.2873037 98.2817425,62.7599908 C97.9776294,63.6176773 98.0242665,64.4071084 98.4214111,65.1280412 C98.6509534,65.5625926 99.2127854,65.7758605 100.106421,65.7676018 C101.090417,65.7676018 101.709331,65.685501 101.963892,65.5215422 C102.422977,65.3247917 102.677052,65.0337953 102.726361,64.64831 C102.964162,63.1396464 102.320472,62.1065848 100.795291,61.548882 C96.5969751,59.6219415 94.4611389,57.4613293 94.3872967,55.0668026 C94.3547479,52.2054185 94.7110849,50.5245375 95.4572795,50.0241596 C96.8019843,49.0238897 98.6961331,48.4171208 101.139726,48.203853 C103.648659,48.203853 105.144935,49.1715741 105.629038,51.1065304 C105.842549,52.119917 105.89113,53.5127164 105.774537,55.2849285 C105.735429,55.8810097 105.25667,56.3539396 104.660103,56.3813875 L103.213865,56.4481856 C102.820364,56.4664032 102.483216,56.1654478 102.459169,55.7719467 C102.433907,55.3590135 102.399901,54.9929604 102.357393,54.6735444 C102.209709,53.5418646 101.627473,52.8981746 100.610929,52.7422316 C99.2659809,52.7589919 98.4707202,53.320581 98.2246606,54.4274848 C97.9788439,55.2803133 98.9708551,56.2354035 101.20118,57.2932412 C106.26034,59.18739 107.576383,62.8935868 105.149307,68.4118316 L105.149307,68.4118316 Z M93.8111335,45.6633423 L88.3198508,32.992123 L88.1367028,43.6734901 C88.1226145,44.5008139 87.4764955,45.1792388 86.650872,45.2338917 L85.1980759,45.3300809 C84.6119536,45.3689452 84.1091468,44.916419 84.0860711,44.3293252 L83.2468451,22.9483733 C83.2189114,22.2347276 83.7161315,21.6077979 84.4173892,21.4727444 L86.6445565,21.0437797 C87.2831456,20.9206285 87.9217346,21.2568047 88.1818825,21.8528859 L93.733162,34.5743858 L93.443623,23.3829248 C93.4268627,22.7436071 93.9216538,22.2067939 94.5602429,22.1713302 L97.4267279,22.0122295 C98.2239319,21.9677785 98.8875398,22.6168123 98.8610635,23.4147449 L98.1287143,45.5117715 C98.1080677,46.1387012 97.5936015,46.6361643 96.966186,46.6361643 L95.2930778,46.6361643 C94.6493879,46.6361643 94.0671521,46.2538367 93.8111335,45.6633423 L93.8111335,45.6633423 Z M92.7778289,71.7019376 L81.8569606,72.1457193 C81.1284978,72.1753533 80.5275586,71.5812153 80.5491769,70.8522668 L81.1765924,49.6199709 C81.1955388,48.9821106 81.7415822,48.4878053 82.378228,48.5327421 L92.5769491,49.2507601 C93.0530367,49.2842805 93.4258911,49.6734093 93.4394936,50.1504686 L93.5062916,52.5204622 C93.5271812,53.2647136 92.9296426,53.8794982 92.1851483,53.8794982 L85.5085045,53.8794982 L85.5085045,58.8929929 L90.5703367,59.0528224 C91.0384086,59.0673965 91.4100485,59.4511814 91.4100485,59.9194963 L91.4100485,62.4109408 C91.4100485,63.0988389 90.8756643,63.6682009 90.1892236,63.7114374 L85.5085045,64.0068061 L85.5085045,66.7715153 L92.8305386,67.1351394 C93.2624182,67.1565148 93.6104965,67.4973061 93.6406164,67.9286998 L93.8237644,70.5330937 C93.8670009,71.1478784 93.3935852,71.6769187 92.7778289,71.7019376 L92.7778289,71.7019376 Z M78.5228894,45.5751689 C77.8515086,45.7221245 77.2180205,45.2062009 77.2260363,44.5190315 L77.4137995,28.801094 C77.4206007,28.2397478 77.8607389,27.7794487 78.4211135,27.7473857 L80.9815422,27.6014017 C81.6189167,27.5649664 82.1457709,28.0923064 82.1086069,28.7299238 L81.2091413,44.1891708 C81.1814505,44.6669588 80.8389588,45.0682327 80.3711298,45.1704944 L78.5228894,45.5751689 Z M77.8306191,73.230762 C77.8070576,73.7933227 77.3868374,74.2596943 76.8298633,74.3417951 L74.5866645,74.6726275 C74.0513088,74.7515706 73.570606,74.3366942 73.570606,73.7955088 L73.570606,61.7551057 L70.8229,69.8383944 C70.5953009,70.507589 69.9744437,70.9637588 69.2678421,70.9810048 C68.4813259,71.000194 67.7684089,70.5207057 67.4893146,69.7851989 L64.9801382,63.1663656 L65.008072,74.762987 C65.0092865,75.3024721 64.5378139,75.7212349 64.0022153,75.6561372 L61.5632375,75.3593111 C60.9613267,75.2861976 60.5017563,74.7860627 60.4796523,74.1800225 L59.6248806,50.7890576 C59.6054484,50.2636609 59.9362808,49.7885448 60.4359299,49.6243432 L62.9761978,48.7894894 C63.5117964,48.6133855 64.0911174,48.8893221 64.2919972,49.4159333 L69.1842839,62.2406666 L74.2645766,48.3056289 C74.4710432,47.7394246 75.0428342,47.3925607 75.64013,47.4707751 L77.8830859,47.7651722 C78.4575488,47.8404718 78.8789836,48.3418212 78.8546934,48.9206564 L77.8306191,73.230762 Z M58.5238064,73.4265409 L55.9456459,74.0182498 C55.242202,74.1795367 54.5431304,73.7338117 54.3927742,73.0279389 L53.6395355,69.4917734 L46.8941504,69.4917734 L46.0010002,72.5416493 C45.8448143,73.0753048 45.3065437,73.4010362 44.761229,73.2919732 L42.6462824,72.8690811 C41.8211447,72.7039078 41.3287826,71.8515651 41.5981608,71.0546041 L48.9197091,49.38217 C49.1417214,48.7253633 49.806058,48.325061 50.4905555,48.4360672 L51.774049,48.6442341 C52.1996131,48.7132182 52.5479344,49.0197604 52.670357,49.4329365 L59.3572027,71.9994924 C59.5432655,72.6264221 59.1614238,73.2803139 58.5238064,73.4265409 L58.5238064,73.4265409 Z M37.5013777,71.7366725 C35.8467301,71.8658963 34.6446088,71.7665495 33.8947707,71.4393606 C31.8004707,70.8704844 30.4773842,69.3278146 29.925754,66.8111083 C28.960462,61.071337 28.727762,55.9130727 29.227654,51.3365585 C29.4346064,49.8631157 30.1800723,48.988426 31.4642945,48.7122466 C34.4719055,47.9626514 36.7860317,47.7814466 38.4064301,48.1693609 C40.7851682,48.8674609 42.0174094,50.3370173 42.1038825,52.5777871 C42.1381316,53.397338 42.1478477,54.2800434 42.1327878,55.2259033 C42.1262294,55.6381078 41.8089996,55.9798707 41.3984954,56.0175205 L38.8203349,56.2526495 C38.4520957,56.28617 38.12685,56.0153344 38.0906577,55.6473381 C38.0559227,55.2941587 38.0146294,54.9475378 37.9667777,54.6074751 C37.7943174,53.5042148 37.3464063,52.9139633 36.6225587,52.8362347 C35.5107968,52.6035347 34.6788579,52.6251529 34.1274707,52.9008466 C33.5758405,53.142291 33.2352921,53.8532648 33.1060683,55.0340108 C32.8733683,57.6369473 33.0543302,61.1274473 33.648954,65.5055107 C33.9678841,66.7379948 34.9030564,67.2118964 36.4542277,66.9274583 C37.4022738,66.7809885 37.8849198,66.1304972 37.9021658,64.9754988 L38.005642,62.3251964 L35.7996072,62.4583067 C35.3740431,62.4840543 35.0184347,62.138162 35.0325231,61.7121121 L35.1262832,58.8560718 C35.1386712,58.4764162 35.4498285,58.174975 35.829727,58.1742463 L41.2107323,58.1638015 C41.6139494,58.1630728 41.9374947,58.4970629 41.9241351,58.9000371 L41.6513563,67.0955464 C41.4616499,69.9741765 40.0783237,71.5212186 37.5013777,71.7366725 L37.5013777,71.7366725 Z M28.4819453,43.6108214 L28.3009834,29.8727771 C28.2932105,29.2910271 27.8195518,28.8236839 27.2378019,28.8236839 L25.2387194,28.8236839 C24.6586697,28.8236839 24.1857398,28.3587697 24.1757808,27.7789629 L24.1412887,25.8109719 C24.1315727,25.2401525 24.5741399,24.7633362 25.1442306,24.7310302 L35.3633554,24.1526808 C35.98567,24.1174601 36.5045084,24.622696 36.4860479,25.2454964 L36.4107483,27.7918367 C36.3937452,28.3665426 35.9230013,28.8236839 35.3480526,28.8236839 L33.6584271,28.8236839 C33.0786204,28.8236839 32.6059333,29.2878694 32.5954885,29.8674333 L32.3504005,43.3982823 C32.3406845,43.9270797 31.9440257,44.3684324 31.4191147,44.4340159 L29.6770225,44.6518989 C29.0479066,44.7303562 28.4902039,44.2445524 28.4819453,43.6108214 L28.4819453,43.6108214 Z M41.8070564,23.3355589 L42.9707993,23.5242937 C43.3565274,23.5869624 43.6722999,23.8648421 43.783306,24.2393968 L49.8451652,44.6968357 C50.0137392,45.265469 49.667604,45.8579067 49.0897404,45.9905311 L46.7522957,46.5271013 C46.1146782,46.6733283 45.4809472,46.2691395 45.3446793,45.629336 L44.6616392,42.423517 L38.5470703,42.423517 L37.7372354,45.1882262 C37.5956236,45.6720867 37.1076338,45.9674554 36.6133285,45.8685943 L34.696104,45.4850523 C33.9479662,45.3356676 33.5017554,44.5627539 33.7458718,43.8401208 L40.3831656,24.1934884 C40.5842883,23.597893 41.186685,23.2349976 41.8070564,23.3355589 L41.8070564,23.3355589 Z M47.1467683,23.0593795 C48.5915487,21.8089206 50.6885206,20.956578 53.4379269,20.5016227 C53.4835924,20.4940928 53.5307154,20.488506 53.5771097,20.4853483 C56.4127462,20.2934558 58.1869015,21.2776942 58.9000614,23.4373348 C59.2333228,24.5886897 59.4072405,26.1952427 59.4218146,28.2572367 C59.4266726,28.920116 58.9362538,29.4826767 58.2779897,29.5618627 L57.0411333,29.7110045 C56.3469198,29.7948056 55.7066304,29.316046 55.5995107,28.6249902 C55.5528735,28.325978 55.5038074,28.0524705 55.4518263,27.8042247 C55.1970223,26.5695545 54.5202977,25.8855428 53.4216525,25.7521897 C53.3317788,25.7412591 53.2394761,25.7419878 53.1496024,25.7519468 C51.6943772,25.914691 50.875555,26.6212926 50.6931357,27.8727231 C50.4847259,28.8652201 51.6866044,29.8696194 54.2987711,30.8864066 C54.3315629,30.8992804 54.366055,30.9106968 54.3995754,30.9206558 C60.3200657,32.6717354 65.5910365,35.2661704 62.7391255,43.3181247 C62.4437568,44.181155 61.7624171,44.8080848 60.6951062,45.1989139 C59.6656881,45.5965442 58.2485985,45.862036 56.4438376,45.995632 C53.9912574,46.0638875 52.4991111,45.7583169 51.9666702,45.0794062 C50.8330472,43.5564114 50.2352657,41.9916375 50.1730828,40.3843558 C50.1271743,39.1999662 50.2355086,38.1205103 50.4980855,37.1467167 C50.6567004,36.5586512 51.2093022,36.1646644 51.8175285,36.1955129 L53.1049084,36.2610965 C53.8909389,36.3011753 54.4379539,37.0276948 54.2999857,37.8025518 C54.1476862,38.658538 54.2968279,39.4324233 54.7474109,40.123965 C55.0473947,40.6027246 55.7095452,40.7994751 56.7336195,40.7142165 C57.861413,40.6306583 58.5641281,40.4841885 58.8420078,40.2745641 C59.351616,40.010044 59.6185651,39.6549215 59.6421266,39.2087107 C59.7856816,37.4734197 58.9746323,36.3475695 57.2092214,35.8318888 C57.1803161,35.8233873 57.1506821,35.8136712 57.1225055,35.8032264 C52.1733797,33.9532857 46.6347312,31.6624781 46.347864,28.9315323 C46.0675553,25.6538144 46.3337757,23.6962682 47.1467683,23.0593795 L47.1467683,23.0593795 Z M61.4094807,20.1656894 L74.4406805,19.4282394 C75.2794207,19.3806306 75.9789781,20.0617274 75.9542021,20.9014392 L75.8609278,24.0496904 C75.8378521,24.8243045 75.2033924,25.4403037 74.4282925,25.4403037 L72.3767433,25.4403037 C71.5953279,25.4403037 70.9579534,26.0662618 70.9438651,26.8474342 L70.6302788,44.1568648 C70.617405,44.8695389 70.082535,45.4644056 69.3752048,45.5528219 L67.2568575,45.8178279 C66.4088871,45.9237331 65.6573487,45.2688696 65.6461752,44.4145837 L65.4146897,26.8544784 C65.4042449,26.0703911 64.7658988,25.4403037 63.9818115,25.4403037 L61.532389,25.4403037 C60.7504879,25.4403037 60.1131133,24.8138597 60.0995108,24.0322015 L60.0574888,21.6214004 C60.0441292,20.8518872 60.6409391,20.2091689 61.4094807,20.1656894 L61.4094807,20.1656894 Z M79.0305543,19.6910592 L81.4615163,19.9312891 C82.0568688,19.9903143 82.4880196,20.5266416 82.4173352,21.1205367 L81.9470772,25.0708499 C81.878093,25.6504138 81.3563398,26.0674763 80.7758043,26.0069938 L78.885299,25.8102432 C78.348243,25.7543758 77.9374959,25.3064647 77.9277798,24.7664939 L77.8575812,20.7727012 C77.8461648,20.1338693 78.3946372,19.6281476 79.0305543,19.6910592 L79.0305543,19.6910592 Z M115.385435,20.9087263 C109.603642,13.3782823 95.6720048,0.240448567 83.0923595,0.00191892482 C76.7166711,-0.118803308 70.733755,5.31952679 68.4405184,7.64021131 C66.1475247,5.31952679 60.1643656,-0.118803308 53.7886772,0.00191892482 C41.2092749,0.240448567 30.3148828,11.8586882 21.4956015,20.9087263 C16.5671224,25.966672 6.96059616,45.5610806 0,44.1228586 C19.0549235,60.4849718 28.0524947,89.147879 67.2451982,89.9841901 C108.840444,90.8715107 125.320365,54.1534915 136.88128,44.1228586 C130.168686,46.3488114 119.72512,26.56081 115.385435,20.9087263 L115.385435,20.9087263 Z" id="Fill-3" fill="#18162D" mask="url(#mask-2)"></path></g></g></g></g></g></svg>