<svg xmlns="http://www.w3.org/2000/svg" xmlns:xlink="http://www.w3.org/1999/xlink" width="181px" height="79px" viewBox="0 0 181 79"><title>993A4B2C-20F4-48EC-8336-4F55EFC94759</title><defs><polygon id="path-1" points="0 0 180.450629 0 180.450629 78 0 78"></polygon></defs><g id="Design" stroke="none" stroke-width="1" fill="none" fill-rule="evenodd"><g id="Technical-LP" transform="translate(-1579.000000, -4038.000000)"><g id="klantenlogos-copy-2" transform="translate(0.000000, 3792.333339)"><g id="Group-6" transform="translate(1579.056035, 246.572865)"><g id="Group-3"><mask id="mask-2" fill="white"><use xlink:href="#path-1"></use></mask><g id="Clip-2"></g><path d="M67.5879661,23.4432421 C69.8179023,23.4382903 71.653623,21.6075096 71.6637895,19.3778203 C71.6738772,17.1254068 69.7265115,15.1864392 67.4975632,15.2296646 C65.2424327,15.273384 63.4805657,17.0782294 63.4795772,19.345463 C63.4785897,21.7403968 65.1913032,23.4484174 67.5879661,23.4432421 L67.5879661,23.4432421 Z M63.7786974,50.4497151 L71.102067,50.4497151 L71.102067,26.595226 L63.7786974,26.595226 L63.7786974,50.4497151 Z M79.5236087,31.3774365 C79.5236087,31.9326976 79.5236087,32.3731026 79.5236087,32.8132606 C79.5238557,36.0949325 79.5011315,39.3766043 79.5300307,42.6580292 C79.565105,46.6760148 81.5687873,49.5931113 84.8951665,50.4101947 C87.3763041,51.0195493 89.778401,50.5687702 92.0777449,49.564459 C94.4998489,48.5063014 94.5455444,48.3136397 93.3206602,45.9811974 C92.5206199,44.4576876 92.5206199,44.4576876 90.9595657,45.1379318 C88.4690421,46.2232596 87.0613763,45.3170084 87.0522372,42.6034417 C87.0413691,39.4037746 87.0495202,36.2041075 87.0495202,33.0044403 C87.0495202,32.5640353 87.0495202,32.1236303 87.0495202,31.5197098 C88.8565886,31.5197098 90.5292878,31.5528081 92.198529,31.4915516 C92.530747,31.4794485 93.1156484,31.1245062 93.1309625,30.8972642 C93.2201303,29.5683921 93.1746819,28.2306279 93.1746819,26.7523194 L87.0070358,26.7523194 L87.0070358,19.1646436 C86.3053024,19.1646436 85.7394202,19.1646436 85.1735381,19.1646436 C82.5723574,19.1641634 82.5718634,19.1639164 81.9222475,21.6314688 C81.2550944,24.1654649 80.1425963,26.3136435 77.3297347,27.0469931 C77.1207708,27.1015806 76.8394352,27.4137915 76.8315312,27.6155923 C76.7850947,28.8296083 76.80856,30.0460944 76.80856,31.3774365 L79.5236087,31.3774365 Z M168.250027,32.3237021 C168.704264,31.43153 169.19407,30.3560822 169.787122,29.340656 C170.253462,28.5425917 170.080067,28.136767 169.263724,27.7415634 C165.844472,26.0861544 162.284676,25.3775049 158.523079,26.1167827 C156.259797,26.5613867 154.186213,27.4449137 152.84919,29.4572411 C150.531568,32.9459008 152.104725,37.5228525 156.302528,39.3869784 C158.208151,40.2329611 160.209116,40.8618288 162.14092,41.652977 C163.019754,42.0128593 163.927735,42.5147679 163.844001,43.6601173 C163.75508,44.8743804 162.814496,45.3451666 161.770664,45.6220562 C161.457465,45.7050489 161.126729,45.7257971 160.802415,45.7618594 C158.488498,46.0202238 156.434922,45.2424137 154.491755,44.1148484 C153.771249,43.6966736 153.3427,43.7253259 152.960341,44.5330233 C152.558468,45.381723 152.053102,46.1847273 151.552181,46.9820505 C151.137464,47.6422875 151.250591,48.0856566 151.923673,48.4912343 C156.712799,51.3759735 161.714595,51.8121795 166.845078,49.6104015 C169.699436,48.3855173 170.991258,45.9283389 171.033248,42.9284966 C171.070546,40.2502513 169.874314,38.0544013 167.491236,36.7450424 C165.962045,35.9047407 164.283665,35.3245325 162.645793,34.6956647 C161.541199,34.2715619 160.361516,34.0344397 159.275694,33.5722985 C158.86493,33.3974209 158.344496,32.8021455 158.375124,32.4407812 C158.413904,31.9843211 158.89704,31.2897507 159.307064,31.1914438 C160.556401,30.8925711 161.904786,30.5556601 163.13634,30.7436288 C164.803605,30.9980411 166.398251,31.7259567 168.250027,32.3237021 L168.250027,32.3237021 Z M119.808934,40.1707166 C119.808934,38.7778709 119.887234,37.586579 119.794361,36.4086253 C119.516237,32.8871143 118.367923,29.7625358 115.349556,27.6257194 C113.026994,25.9816724 110.358628,25.6618045 107.604059,25.8092649 C103.09034,26.0505861 99.8709128,28.1794984 98.0304991,32.3501314 C96.808826,35.1187796 96.8974998,38.0388402 97.0731184,40.9322245 C97.365816,45.7539554 100.375538,49.3130107 104.949279,50.4637942 C107.448695,51.0924149 110.019,51.2418513 112.501867,50.6436119 C114.661654,50.1231781 116.73425,49.2102578 118.800177,48.3613111 C119.169939,48.2094047 119.629611,47.4071414 119.515743,47.1045637 C119.060023,45.8925236 118.394846,44.7587833 117.79636,43.5753955 C117.498228,43.7127288 117.305566,43.7813954 117.133159,43.8836543 C114.696729,45.3305935 112.056522,45.9004277 109.237979,45.7564254 C106.301863,45.606495 104.305591,43.2379905 104.672884,40.1707166 L119.808934,40.1707166 Z M132.391723,50.4549021 L132.391723,48.9765937 C132.391723,44.2180954 132.416176,39.4591031 132.370234,34.7010988 C132.361588,33.7921305 132.634032,33.1726489 133.454326,32.8656251 C134.325256,32.5395821 135.216193,32.1307934 136.122198,32.0596567 C138.772532,31.8521749 139.697308,32.7900424 139.698049,35.4514916 C139.699037,40.004978 139.698296,44.5584645 139.698296,49.1119509 C139.698296,49.5464279 139.698296,49.9811518 139.698296,50.4605832 L146.808256,50.4605832 C146.878158,50.324979 146.945342,50.2555713 146.945342,50.1861637 C146.949294,44.1160835 147.033275,38.0445212 146.909774,31.976911 C146.850987,29.0904427 144.956727,26.918305 142.141889,26.2820272 C139.023239,25.5770828 136.021915,25.9268379 133.390106,27.9678175 C133.024296,28.2516231 132.643418,28.5156685 132.20573,28.8352894 C132.157812,28.0014098 132.119032,27.3226476 132.078524,26.6189382 L124.934972,26.6189382 L124.934972,50.4549021 L132.391723,50.4549021 Z M28.6001433,18.4300727 C28.793546,19.0883337 28.896052,19.557638 29.0674715,20.000513 C30.1446483,22.7871924 31.2401033,25.5664617 32.3237021,28.350424 C35.0698731,35.4043142 37.8224662,42.4557343 40.5439369,49.5192576 C40.8386106,50.2842236 41.2308502,50.5927294 42.0765859,50.549504 C43.5516833,50.4739213 45.0401189,50.440823 46.5097822,50.5559261 C47.7082371,50.6497869 48.2007596,50.1908567 48.6009033,49.0919437 C51.5822204,40.9048072 54.6383792,32.744841 57.6658858,24.5742536 C58.4004704,22.5920606 59.115789,20.6027045 59.9091602,18.4263677 C57.7827178,18.4263677 55.8615343,18.4698401 53.9440559,18.4061135 C53.1022722,18.3782022 52.7134907,18.6541038 52.4420352,19.452662 C51.1514485,23.2473576 49.8000992,27.0215519 48.467028,30.8016743 C47.4558008,33.6688764 46.4396336,36.5341025 45.3461547,39.6253356 C45.1278047,39.1298491 45.0047975,38.8811178 44.9064906,38.6232475 C42.4873506,32.2785007 40.0813017,25.928814 37.6310394,19.5961703 C37.4561619,19.1439092 36.9712964,18.4950343 36.6101792,18.4814492 C34.0309817,18.3851183 31.4461032,18.4300727 28.6001433,18.4300727 L28.6001433,18.4300727 Z M180.450703,21.9140394 C178.754292,23.1203984 176.991437,24.2454936 175.380982,25.5570756 C173.877973,26.7812187 173.9664,27.3078275 175.237721,28.7293254 C177.606966,31.3786715 178.853834,34.5126361 179.222855,38.0385932 C179.749711,43.074475 178.611524,47.6329015 175.366903,51.5664123 C172.826979,54.6455423 169.332144,56.4239585 165.899307,58.2856144 C163.201795,59.7486087 160.445744,61.1496055 157.924098,62.8805972 C154.160031,65.4642407 152.10596,69.1329651 152.031118,73.7810534 C152.009629,75.1173356 152.027907,76.4543587 152.027907,78.0000988 C147.799476,76.1285628 144.814948,73.2477756 143.12891,69.1312361 C141.456458,65.0473009 141.256386,60.8919821 143.093095,56.8339822 C140.577871,56.2772391 138.194547,55.7328462 135.803318,55.2267386 C134.141981,54.8750074 132.824471,55.277127 131.717407,56.7285122 C129.495621,59.6414097 126.889501,62.1919549 123.084678,62.8223047 C119.879824,63.3531125 116.70214,63.1085803 113.830492,61.3393032 C112.096783,60.2710185 111.664529,59.1923597 112.114567,57.038006 C110.990707,57.14397 109.907602,57.1926295 108.841787,57.3551569 C103.711057,58.136672 98.8922899,57.1019796 94.3284294,54.7986837 C93.2887969,54.2740509 92.6129988,54.3876719 92.0698408,55.2944172 C91.211261,56.7277712 90.434686,58.2100317 89.6111805,59.6646279 C88.7279004,61.2249411 88.0291311,62.9411128 86.9015658,64.3016011 C83.7211649,68.1377931 78.6176044,67.7309804 74.9874124,65.822394 C74.4138732,65.5210512 74.0557199,64.4201622 73.9771732,63.6505032 C73.7854994,61.7727921 73.8749143,61.763653 72.0480856,61.4825645 C69.9927799,61.1664016 69.3342719,60.4127978 69.2517732,58.3016695 C69.231519,57.7883989 69.1823656,57.2763632 69.1465502,56.7635865 C69.0339172,56.7332053 68.9212842,56.703071 68.8086512,56.6726897 C68.5868431,57.1948525 68.3803493,57.7241783 68.1405101,58.237943 C66.5599427,61.6218738 65.82684,61.7120296 62.0017632,61.4134039 C61.9222285,61.4072288 61.8466458,61.3588164 61.7666171,61.3442432 C57.1950995,60.5103636 57.256603,59.0597194 56.9325361,55.5273403 C56.7546945,53.5893607 56.6917089,51.6412539 56.2876132,49.6022504 C56.1320018,49.8816099 55.9472441,50.1491134 55.825225,50.442552 C55.1499209,52.0638748 54.500305,53.6955716 53.8217898,55.3156594 C53.2601067,56.6558936 52.2743207,57.3694831 50.7764991,57.36726 C46.6666287,57.360838 42.5567583,57.366519 38.4471349,57.3927013 C36.3021673,57.4065334 35.0073816,56.268347 34.2626698,54.3881659 C32.8337618,50.7797101 31.4399281,47.1574221 30.0171952,43.5467433 C27.141842,36.2502969 24.4929899,28.8530736 21.3130829,21.6909964 C17.7443945,13.6520612 11.759283,8.08635959 2.9558759,5.97498437 C1.98688608,5.74255526 1.00801617,5.55038751 0.0335923057,5.33944759 C0.0222302023,5.17988414 0.0111151011,5.02007368 0,4.86026323 C1.52128684,4.56880058 3.03417561,4.2197864 4.56534254,3.99699037 C8.43636177,3.43357825 12.3249182,3.31971021 16.2196496,3.74455408 C25.1248216,4.71650792 33.402114,7.19344646 39.9597766,13.7212219 C41.9273965,15.6799497 43.4452254,17.9553344 44.5196851,20.5202057 C44.6720855,20.884287 44.8684523,21.2300902 45.1517639,21.8001714 C45.9233989,19.9004771 46.6592186,18.2292599 47.2824053,16.5170403 C47.9717885,14.6232741 49.3858764,13.8763393 51.2660575,13.848428 C53.7728833,13.8111307 56.2816852,13.8753513 58.787029,13.8059436 C59.2570742,13.7930995 59.8572897,13.4705146 60.1531984,13.0975412 C61.1980179,11.7805252 62.4848996,11.0548326 64.173654,11.1351083 C66.6713407,11.2539164 69.1700154,11.3734655 71.6630091,11.5606932 C72.4546513,11.6202207 72.9074065,11.5125278 73.2677827,10.6872933 C73.9897703,9.03410721 75.7286661,8.131808 77.5372166,8.55813388 C79.8763279,9.1094429 82.193209,9.79191011 84.4641476,10.5773773 C85.5474995,10.9520797 86.1077006,10.771027 86.5878729,9.76498686 C87.3456758,8.17700941 88.1936346,6.63201035 89.0008379,5.06725111 C90.1955878,2.75185204 91.7205797,0.786208154 94.3644917,0 L96.0910374,0 C97.3309887,0.344074131 98.5576019,0.908968272 99.8138553,0.984797962 C102.129007,1.12410723 104.46145,0.977140892 106.786482,0.947500622 C108.712111,0.9230474 109.762365,1.50794872 110.053827,3.36664064 C110.41865,5.69043778 110.652067,8.09006462 110.481635,10.4232479 C110.368755,11.973187 109.536111,13.5053419 108.845245,14.9599381 C108.595773,15.4853119 107.820433,15.7617074 107.285179,16.151724 C107.176992,16.042302 107.068558,15.93288 106.960124,15.823458 C107.039165,15.4833359 107.170076,15.1456838 107.188107,14.8023507 C107.25628,13.5100349 107.345942,12.2135201 107.295059,10.9239214 C107.28098,10.5637921 106.86157,10.0095191 106.536268,9.93270139 C106.230974,9.86082373 105.727336,10.2323151 105.448718,10.5348929 C105.037706,10.9812259 104.665226,11.5028947 104.421929,12.0561797 C102.992527,15.3072233 101.602646,18.575804 100.209553,21.8426558 C100.109023,22.0782959 100.088028,22.3475284 100.035416,22.5779815 C107.584546,18.8166312 114.821465,18.3263318 121.767662,23.960206 C123.421589,21.5833034 125.097005,19.1098229 126.841582,16.6862368 C128.51601,14.3604637 130.713095,13.5490613 133.597341,14.2068283 C137.855659,15.1780411 142.157204,15.9664723 146.452079,16.7692296 C148.260876,17.1071287 148.868008,17.8150371 148.527392,19.6048154 C148.35202,20.5248988 147.987445,21.4217639 147.919025,22.3448113 C147.87333,22.9610819 148.198879,23.6050168 148.358195,24.2366016 C148.930005,24.0370237 149.655698,23.9928103 150.044726,23.6087218 C151.149567,22.5177129 152.13313,21.3017208 153.132749,20.108453 C153.81571,19.2928516 154.553505,18.8027991 155.686011,19.1730555 C156.575713,19.4640241 157.493079,19.7626498 158.415633,19.8332925 C159.170965,19.891091 160.090802,19.8332925 160.692746,19.446487 C161.99593,18.6098904 163.173637,17.5658118 164.34591,16.5419875 C167.725394,13.5910517 170.179609,13.4675506 173.791028,16.154935 C176.021212,17.8142961 178.231388,19.5008275 180.450703,21.1752557 L180.450703,21.9140394 Z" id="Fill-1" fill="#18162D" mask="url(#mask-2)"></path></g><path d="M112.713177,35.6204164 L104.668561,35.6204164 C104.932359,32.5121402 106.404493,30.6571533 108.605036,30.5909567 C110.906109,30.521549 112.331312,32.2236415 112.713177,35.6204164" id="Fill-4" fill="#18162D"></path></g></g></g></g></svg>