<svg xmlns="http://www.w3.org/2000/svg" xmlns:xlink="http://www.w3.org/1999/xlink" width="237px" height="59px" viewBox="0 0 237 59"><title>FC416813-7FAE-49BA-A2D2-3D80728AB137</title><defs><polygon id="path-1" points="0 0 58.0470132 0 58.0470132 58 0 58"></polygon></defs><g id="Design" stroke="none" stroke-width="1" fill="none" fill-rule="evenodd"><g id="Technical-LP" transform="translate(-354.000000, -3963.000000)"><g id="klantenlogos-copy-2" transform="translate(0.000000, 3792.333339)"><g id="Group-11" transform="translate(354.691665, 156.874483)"><g id="logoVodafone" transform="translate(0.000000, 14.060614)"><g id="Group-3"><mask id="mask-2" fill="white"><use xlink:href="#path-1"></use></mask><g id="Clip-2"></g><path d="M40.7892191,2.50707099 C40.1200209,2.50707099 39.503408,2.49172585 38.8876371,2.50959733 C35.1117014,2.61888473 31.5434866,3.58712615 28.1345245,5.16711501 C23.0523799,7.52259525 18.9536346,10.9846104 16.1467825,15.8859817 C14.4643367,18.8239226 13.3104564,21.9522744 13.0251676,25.3302654 C12.4653504,31.9580595 14.3879852,37.6580335 19.7476525,41.8670954 C28.9140393,49.0655605 42.348623,44.095791 44.622512,32.6686147 C45.4637816,28.4413071 44.8352855,24.4181648 42.2501895,20.8529442 C40.4351579,18.3496265 37.9056412,16.7909712 35.0522857,15.7211149 C34.2237413,15.4105628 33.3758283,15.1404321 32.5191199,14.9209216 C32.1019003,14.814067 32.0098294,14.6129894 32.020309,14.236659 C32.1030231,11.2683085 33.1493938,8.68386741 35.1341577,6.48473925 C36.7276204,4.71929867 38.6756121,3.51564022 40.9849633,2.90398635 C41.3205916,2.81509677 41.6052254,2.83933088 41.9183974,3.0028877 C50.3370826,7.39899195 55.6546443,14.1953955 57.4948457,23.5171052 C60.2184223,37.3135162 52.626036,50.6618302 40.0213067,55.8396949 C35.8278707,57.5622814 31.4545035,58.2607663 26.9482697,57.9133484 C14.3531779,56.9423 4.05536711,48.2990517 0.905214034,36.1313784 C-2.69163256,22.2384988 4.71782838,7.5496364 18.0274988,2.15787531 C22.2431104,0.450166162 26.6172262,-0.238400579 31.1444192,0.0724322395 C34.3832747,0.294749752 37.5019889,1.05648665 40.4868074,2.34370131 C40.5792526,2.38356126 40.6647737,2.43932778 40.7892191,2.50707099" id="Fill-1" fill="#18162D" mask="url(#mask-2)"></path></g><path d="M127.415612,29.7895655 C127.415612,28.1566172 127.406068,26.5236689 127.423753,24.8909077 C127.427215,24.5695952 127.331775,24.3958395 127.022907,24.3254764 C126.387768,24.1807267 125.76133,23.9613098 125.118518,23.8930052 C123.072093,23.6755532 121.313951,24.2759789 120.215556,26.0871742 C118.551918,28.8303066 118.633415,31.7222121 120.042175,34.500526 C121.590351,37.5537427 125.020459,37.432385 127.010182,35.5350136 C127.295003,35.2633857 127.43049,34.9604126 127.424688,34.5481521 C127.402419,32.9622685 127.415706,31.3758234 127.415612,29.7895655 L127.415612,29.7895655 Z M132.774804,40.9676639 C131.197911,40.9676639 129.672378,40.9633597 128.14694,40.9714066 C127.854259,40.9729972 127.827218,40.7800601 127.797744,40.5777661 C127.744784,40.2139738 127.700527,39.8489651 127.645228,39.4273478 C127.532011,39.4935004 127.460244,39.5177345 127.412712,39.5658284 C124.874025,42.1386671 120.907304,41.8412145 118.480806,40.2953779 C116.213841,38.8512498 114.935983,36.71528 114.292984,34.1724767 C113.475481,30.9392352 113.550616,27.7373391 115.058277,24.7111636 C116.908583,20.9971699 120.001754,19.2341621 124.140172,19.3780696 C125.216858,19.4154968 126.285872,19.6730894 127.400173,19.8357106 L127.400173,11.7698703 L132.774804,11.7698703 L132.774804,40.9676639 Z" id="Fill-4" fill="#18162D"></path><path d="M230.030564,27.8839975 C229.874587,26.2934355 229.355752,24.9493315 227.950922,24.1390328 C226.562748,23.3381845 225.177381,23.4983729 223.857511,24.3584497 C222.590975,25.1837193 222.027789,26.3919626 221.906805,27.8839975 L230.030564,27.8839975 Z M235.465273,31.7640744 L221.828676,31.7640744 C221.546943,33.7137503 222.91472,35.8067724 224.939156,36.4844852 C227.040974,37.1881164 229.123423,36.9381028 231.150012,36.1562488 C231.854111,35.8845274 232.507309,35.4812494 233.217115,35.1211063 C233.251081,35.2086859 233.304601,35.3304178 233.345958,35.4560796 C233.719575,36.5923691 234.075602,37.7348341 234.471768,38.8632639 C234.609407,39.2553137 234.551769,39.4567656 234.174784,39.6789895 C232.83882,40.4663641 231.386645,40.9017359 229.879358,41.1742058 C227.776044,41.5545596 225.669267,41.6322211 223.579146,41.0839127 C220.374723,40.2433916 218.216859,38.1977149 217.139236,35.1263461 C215.931742,31.6850094 216.006128,28.2057778 217.495824,24.8442547 C219.077684,21.2748235 222.575349,19.196398 226.495566,19.3542472 C229.119961,19.459979 231.413218,20.2754239 233.106612,22.3816391 C234.254691,23.8093928 234.920614,25.4745286 235.186908,27.2623319 C235.39229,28.6406818 235.404267,30.047757 235.498677,31.4422005 C235.504759,31.5310901 235.480899,31.6220382 235.465273,31.7640744 L235.465273,31.7640744 Z" id="Fill-6" fill="#18162D"></path><path d="M194.138974,40.9700779 L194.138974,19.8981017 L199.018731,19.8981017 C199.109773,20.4000939 199.205025,20.9253845 199.314312,21.5280559 C199.545987,21.3634698 199.72676,21.2304161 199.912118,21.1039122 C202.291552,19.4795721 204.902753,18.9714045 207.699968,19.6126258 C210.400901,20.2318587 211.937287,22.0789841 212.54969,24.6778347 C212.846487,25.9376339 212.984032,27.2592816 213.002465,28.5555723 C213.059167,32.5243516 213.023611,36.4945344 213.022302,40.4640623 C213.022208,40.6153617 213.005272,40.7665676 212.993108,40.9700779 C212.676661,40.9700779 212.399326,40.9700779 212.121897,40.9700779 C210.797068,40.9699843 209.472052,40.9540778 208.147691,40.9792476 C207.730284,40.9872008 207.624833,40.8556443 207.626423,40.4495593 C207.64102,36.7135771 207.649722,32.9773142 207.623149,29.2414256 C207.617534,28.4389866 207.546704,27.6178341 207.361813,26.8394421 C206.744545,24.2408722 204.289322,23.0903604 201.880601,24.2810129 C201.150958,24.6417174 200.520029,25.2014411 199.844281,25.6706845 C199.561425,25.8670836 199.49153,26.135998 199.492278,26.4767726 C199.502571,31.1001534 199.499296,35.7235343 199.499015,40.3470087 C199.498922,40.9688615 199.497986,40.9696101 198.857888,40.9698908 C197.486368,40.9704522 196.114849,40.9700779 194.743329,40.9700779 C194.55872,40.9700779 194.374017,40.9700779 194.138974,40.9700779" id="Fill-8" fill="#18162D"></path><path d="M175.704754,30.4717977 C175.685011,31.7455386 175.918463,33.1144381 176.585696,34.3820034 C177.387948,35.9060387 178.634929,36.7840805 180.383246,36.8361979 C182.074581,36.886631 183.335129,36.1104847 184.233943,34.7078071 C184.833901,33.771566 185.140336,32.729593 185.251494,31.6385904 C185.436759,29.8201903 185.347495,28.0238723 184.468143,26.3676255 C183.634078,24.7967128 182.358185,23.850647 180.516393,23.8504598 C178.676753,23.8502727 177.404884,24.7915665 176.558374,26.3585494 C175.891141,27.5934596 175.696988,28.9405578 175.704754,30.4717977 M180.522007,19.35377 C185.616597,19.2762957 189.280999,22.7035036 190.30089,27.439166 C191.07451,31.0316149 190.586085,34.4505888 188.446467,37.4999691 C186.374591,40.4528809 183.417843,41.6013343 179.866377,41.4556489 C175.163463,41.2628053 171.548371,37.8746153 170.619428,32.7765641 C170.172079,30.3216211 170.366233,27.9134621 171.285164,25.5834323 C172.852147,21.6098811 176.220407,19.3454425 180.522007,19.35377" id="Fill-10" fill="#18162D"></path><path d="M96.0267186,30.4997932 C96.0546954,30.8301818 96.0379468,31.3551917 96.1549067,31.8484821 C96.3472825,32.6595293 96.5419975,33.488448 96.8860469,34.2412959 C97.6426376,35.897262 98.9713028,36.8107661 100.818148,36.8368716 C102.637483,36.8626028 103.972324,35.966128 104.753336,34.3845485 C106.063007,31.7322706 106.065533,29.0001793 104.787863,26.3406967 C104.027342,24.7578072 102.696993,23.8542213 100.875037,23.8497143 C99.0547655,23.8453323 97.7834574,24.7650119 96.933018,26.309445 C96.2482876,27.5529634 96.0620873,28.9198044 96.0267186,30.4997932 M90.7298354,30.6932918 C90.7570637,28.4447598 91.0927856,26.6327223 91.9173066,24.9442882 C93.7703268,21.1497325 96.8461869,19.3393792 101.059179,19.3502774 C106.131031,19.3634262 109.783831,22.9156409 110.713148,27.7123096 C111.38637,31.1873307 110.882506,34.4803621 108.849929,37.4236364 C106.778521,40.4233321 103.806615,41.6027565 100.21585,41.4555741 C95.4562347,41.2603913 91.8151304,37.7969726 90.9379306,32.5916925 C90.8117074,31.8430551 90.7709118,31.0801954 90.7298354,30.6932918" id="Fill-12" fill="#18162D"></path><path d="M148.196985,31.0179166 C147.195901,31.1401163 146.230373,31.1956021 145.293945,31.3907849 C144.435833,31.5695933 143.55854,31.7982735 142.78127,32.1873291 C141.758853,32.6990524 141.277727,33.9727933 141.490968,35.1057143 C141.668092,36.0467275 142.405314,36.6872003 143.632646,36.8905235 C145.315091,37.1691689 146.763149,36.6106617 148.037358,35.5454838 C148.163768,35.4398456 148.221874,35.1925454 148.224681,35.0097136 C148.241804,33.9201145 148.235067,32.8302347 148.231979,31.7404485 C148.231418,31.5272071 148.211956,31.3139656 148.196985,31.0179166 M153.564044,40.9287302 L148.668006,40.9287302 C148.590719,40.4434867 148.514087,39.9624537 148.429127,39.4293034 C148.320775,39.5078069 148.254342,39.543737 148.203067,39.5949187 C146.089834,41.7032859 142.163441,42.0292768 139.457923,40.512727 C135.391552,38.2333175 134.839595,31.9665087 139.269664,29.4040561 C140.859104,28.4846572 142.578509,27.9842556 144.37202,27.7159962 C145.509432,27.5458896 146.65826,27.4485789 147.803999,27.3397594 C148.079089,27.3136539 148.170786,27.2255129 148.179114,26.9452768 C148.239558,24.9174716 147.096158,23.7345852 144.965334,23.6715204 C143.080969,23.6156603 141.436979,24.3017943 139.921272,25.3583639 C139.795516,25.4459435 139.671445,25.5360495 139.493572,25.6627405 C139.282296,25.2144564 139.086926,24.7978917 138.889872,24.3821692 C138.557144,23.6800351 138.23396,22.9730355 137.884765,22.2791354 C137.749653,22.0105953 137.764343,21.8531204 138.030263,21.668885 C139.725715,20.4945133 141.609706,19.8001454 143.634517,19.4959559 C145.199067,19.2609131 146.767828,19.2674629 148.316846,19.6607291 C151.17778,20.3870037 152.782939,22.2869951 153.357352,25.1082567 C153.502009,25.8186248 153.5516,26.5588411 153.5545,27.2857707 C153.572278,31.6741088 153.563763,36.062634 153.564044,40.4511593 C153.564044,40.5900141 153.564044,40.7289626 153.564044,40.9287302" id="Fill-14" fill="#18162D"></path><path d="M169.189887,19.846237 L169.189887,24.2078146 L164.696659,24.2078146 L164.696659,40.9360847 L159.326512,40.9360847 L159.326512,24.2311131 L156.523403,24.2311131 L156.523403,19.8784244 L159.302746,19.8784244 C159.302746,19.4655089 159.302372,19.1128512 159.302746,18.7601935 C159.304149,17.5251897 159.419893,16.3062797 159.863218,15.1411713 C160.748278,12.8152585 162.49435,11.5910151 164.913924,11.2716676 C166.825892,11.0194083 168.698468,11.2189888 170.529406,11.8362568 C170.872426,11.9519068 171.033457,12.0767265 170.969643,12.4844021 C170.777735,13.7119204 170.634015,14.9469241 170.467277,16.1783723 C170.4553,16.2671683 170.408984,16.3513795 170.365849,16.4737664 C169.393397,16.0645936 168.396524,15.8813875 167.356516,15.8978555 C165.752387,15.9231188 164.751583,16.8595472 164.681969,18.4523548 C164.662413,18.8997969 164.678975,19.3489232 164.678975,19.846237 L169.189887,19.846237 Z" id="Fill-16" fill="#18162D"></path><path d="M68.0246208,19.8643985 C69.4823164,19.8643985 70.8959414,19.8613108 72.3096599,19.8661763 C72.7746928,19.8676734 73.349668,19.7278828 73.6736939,19.9477676 C73.9964098,20.1666231 74.0766912,20.7521715 74.2468913,21.1834263 C75.8551377,25.2577503 77.4596414,29.3335713 79.0661099,33.4086439 C79.1221572,33.5508672 79.1874676,33.6894414 79.2888017,33.9226128 C79.3926622,33.679336 79.4685458,33.5169956 79.5322656,33.3499767 C81.1899159,29.0111361 82.8506539,24.6734183 84.4947368,20.3295249 C84.6309718,19.9696625 84.8044468,19.8475563 85.1921925,19.8541996 C86.6719701,19.879463 88.1525897,19.8643985 89.6328351,19.8643985 L90.1524181,19.8643985 C89.7633625,20.8220668 89.3969503,21.725372 89.0294152,22.628303 C86.605069,28.5851211 84.1764186,34.5401614 81.7657332,40.5025 C81.6164923,40.8714385 81.4291692,40.9845622 81.0481604,40.978106 C79.7863027,40.9565854 78.52379,40.960141 77.2619322,40.9767025 C76.9496023,40.9808195 76.8023263,40.8786433 76.6806879,40.5873662 C73.8477303,33.8063078 71.0035445,27.0299277 68.1623529,20.2523314 C68.1158496,20.1412662 68.081323,20.0252419 68.0246208,19.8643985" id="Fill-18" fill="#18162D"></path></g></g></g></g></g></svg>